<svg xmlns="http://www.w3.org/2000/svg" xmlns:xlink="http://www.w3.org/1999/xlink" width="500" zoomAndPan="magnify" viewBox="0 0 375 374.999991" height="500" preserveAspectRatio="xMidYMid meet" version="1.0"><defs><clipPath id="841c416a66"><path d="M 2 46 L 373 46 L 373 331.875 L 2 331.875 Z M 2 46 " clip-rule="nonzero"/></clipPath></defs><g clip-path="url(#841c416a66)"><path fill="#ffffff" d="M 363.191406 54.921875 C 351.398438 43.128906 332.28125 43.128906 320.488281 54.921875 L 128.9375 246.472656 L 54.511719 172.050781 C 42.71875 160.257812 23.601562 160.257812 11.808594 172.050781 C 0.015625 183.84375 0.015625 202.960938 11.808594 214.753906 L 107.582031 310.53125 L 128.9375 331.882812 L 363.191406 97.628906 C 374.984375 85.832031 374.984375 66.714844 363.191406 54.921875 " fill-opacity="1" fill-rule="nonzero"/><path fill="#ffffff" d="M 363.191406 54.921875 C 351.398438 43.128906 332.28125 43.128906 320.488281 54.921875 L 128.9375 246.472656 L 54.511719 172.050781 C 42.71875 160.257812 23.601562 160.257812 11.808594 172.050781 C 0.015625 183.84375 0.015625 202.960938 11.808594 214.753906 L 107.582031 310.53125 L 128.9375 331.882812 L 363.191406 97.628906 C 374.984375 85.832031 374.984375 66.714844 363.191406 54.921875 " fill-opacity="1" fill-rule="nonzero"/></g></svg>