<svg xmlns="http://www.w3.org/2000/svg" xmlns:xlink="http://www.w3.org/1999/xlink" width="500" zoomAndPan="magnify" viewBox="0 0 375 374.999991" height="500" preserveAspectRatio="xMidYMid meet" version="1.0"><path fill="#ffffff" d="M 363.175781 144.492188 C 370.789062 136.878906 375 126.757812 375 115.980469 C 375 105.203125 370.789062 95.105469 363.175781 87.492188 C 347.457031 71.773438 321.875 71.773438 306.125 87.46875 L 192.234375 201.125 C 189.617188 203.738281 185.382812 203.738281 182.765625 201.125 L 68.875 87.46875 C 53.152344 71.773438 27.542969 71.773438 11.824219 87.492188 C 4.183594 95.105469 0 105.203125 0 115.980469 C 0 126.757812 4.183594 136.878906 11.824219 144.492188 L 158.960938 291.5 C 166.601562 299.136719 176.722656 303.347656 187.5 303.347656 C 198.277344 303.347656 208.398438 299.136719 216.011719 291.5 L 363.175781 144.492188 " fill-opacity="1" fill-rule="nonzero"/><path fill="#ffffff" d="M 363.175781 144.492188 C 370.789062 136.878906 375 126.757812 375 115.980469 C 375 105.203125 370.789062 95.105469 363.175781 87.492188 C 347.457031 71.773438 321.875 71.773438 306.125 87.46875 L 192.234375 201.125 C 189.617188 203.738281 185.382812 203.738281 182.765625 201.125 L 68.875 87.46875 C 53.152344 71.773438 27.542969 71.773438 11.824219 87.492188 C 4.183594 95.105469 0 105.203125 0 115.980469 C 0 126.757812 4.183594 136.878906 11.824219 144.492188 L 158.960938 291.5 C 166.601562 299.136719 176.722656 303.347656 187.5 303.347656 C 198.277344 303.347656 208.398438 299.136719 216.011719 291.5 L 363.175781 144.492188 " fill-opacity="1" fill-rule="nonzero"/></svg>