<svg xmlns="http://www.w3.org/2000/svg" xmlns:xlink="http://www.w3.org/1999/xlink" width="500" zoomAndPan="magnify" viewBox="0 0 375 299.999988" height="400" preserveAspectRatio="xMidYMid meet" version="1.0"><defs><clipPath id="a7eee6c674"><path d="M 340 151 L 372.816406 151 L 372.816406 181 L 340 181 Z M 340 151 " clip-rule="nonzero"/></clipPath><clipPath id="51cd6a3a34"><path d="M 2.316406 82 L 50 82 L 50 113 L 2.316406 113 Z M 2.316406 82 " clip-rule="nonzero"/></clipPath><clipPath id="87e1b8bb7d"><path d="M 340 151 L 372.816406 151 L 372.816406 181 L 340 181 Z M 340 151 " clip-rule="nonzero"/></clipPath><clipPath id="ce6874e040"><path d="M 2.316406 82 L 50 82 L 50 113 L 2.316406 113 Z M 2.316406 82 " clip-rule="nonzero"/></clipPath></defs><path fill="#8e00ff" d="M 114.742188 147.507812 C 108.230469 140.996094 108.230469 130.441406 114.742188 123.929688 L 166.617188 72.058594 C 173.125 65.546875 183.683594 65.546875 190.191406 72.058594 C 196.703125 78.566406 196.703125 89.125 190.191406 95.632812 L 138.320312 147.507812 C 131.808594 154.015625 121.253906 154.015625 114.742188 147.507812 Z M 114.742188 147.507812 " fill-opacity="1" fill-rule="nonzero"/><path fill="#8e00ff" d="M 138.320312 218.238281 C 131.808594 211.726562 131.808594 201.171875 138.320312 194.660156 L 237.375 95.605469 C 243.882812 89.09375 254.441406 89.09375 260.949219 95.605469 C 267.460938 102.113281 267.460938 112.671875 260.949219 119.179688 L 161.894531 218.238281 C 155.386719 224.746094 144.828125 224.746094 138.320312 218.238281 Z M 138.320312 218.238281 " fill-opacity="1" fill-rule="nonzero"/><path fill="#8e00ff" d="M 126.53125 182.871094 C 120.019531 176.363281 120.019531 165.804688 126.53125 159.296875 L 201.980469 83.84375 C 208.492188 77.335938 219.046875 77.335938 225.558594 83.84375 C 232.066406 90.355469 232.066406 100.910156 225.558594 107.421875 L 150.105469 182.871094 C 143.597656 189.382812 133.039062 189.382812 126.53125 182.871094 Z M 126.53125 182.871094 " fill-opacity="1" fill-rule="nonzero"/><path fill="#8e00ff" d="M 173.683594 230.023438 C 167.171875 223.515625 167.171875 212.957031 173.683594 206.449219 L 249.132812 131 C 255.644531 124.488281 266.199219 124.488281 272.710938 131 C 279.21875 137.507812 279.21875 148.066406 272.710938 154.574219 L 197.289062 230.023438 C 190.777344 236.535156 180.222656 236.535156 173.683594 230.023438 Z M 173.683594 230.023438 " fill-opacity="1" fill-rule="nonzero"/><path fill="#8e00ff" d="M 209.078125 241.8125 C 202.566406 235.304688 202.566406 224.746094 209.078125 218.238281 L 260.949219 166.363281 C 267.460938 159.851562 278.015625 159.851562 284.527344 166.363281 C 291.035156 172.871094 291.035156 183.429688 284.527344 189.9375 L 232.652344 241.8125 C 226.144531 248.324219 215.585938 248.324219 209.078125 241.8125 Z M 209.078125 241.8125 " fill-opacity="1" fill-rule="nonzero"/><path fill="#8e00ff" d="M 29.085938 153.078125 C 29.261719 153.253906 29.496094 153.34375 29.703125 153.34375 C 29.9375 153.34375 30.144531 153.253906 30.320312 153.078125 C 30.671875 152.726562 30.671875 152.171875 30.320312 151.816406 L 22.488281 143.960938 C 22.167969 143.605469 21.582031 143.636719 21.230469 143.960938 L 13.398438 151.816406 C 13.046875 152.171875 13.046875 152.726562 13.398438 153.078125 C 13.75 153.429688 14.308594 153.402344 14.660156 153.078125 L 21.875 145.867188 Z M 29.085938 153.078125 " fill-opacity="1" fill-rule="nonzero"/><path fill="#8e00ff" d="M 14.660156 142.933594 L 21.875 135.71875 L 29.085938 142.933594 C 29.261719 143.109375 29.496094 143.195312 29.703125 143.195312 C 29.910156 143.195312 30.144531 143.109375 30.320312 142.933594 C 30.671875 142.582031 30.671875 142.023438 30.320312 141.671875 L 22.488281 133.84375 C 22.136719 133.492188 21.582031 133.492188 21.230469 133.84375 L 13.398438 141.671875 C 13.046875 142.023438 13.046875 142.582031 13.398438 142.933594 C 13.75 143.285156 14.335938 143.285156 14.660156 142.933594 Z M 14.660156 142.933594 " fill-opacity="1" fill-rule="nonzero"/><path fill="#8e00ff" d="M 107.585938 125.867188 C 109.960938 125.867188 111.925781 123.988281 111.925781 121.671875 C 111.925781 119.355469 109.960938 117.480469 107.585938 117.480469 C 105.503906 117.480469 103.863281 118.917969 103.421875 120.792969 L 85.332031 120.792969 L 85.332031 97.597656 C 85.332031 97.101562 84.917969 96.71875 84.449219 96.71875 L 63.308594 96.71875 C 62.867188 94.84375 61.226562 93.40625 59.144531 93.40625 C 56.769531 93.40625 54.832031 95.28125 54.832031 97.597656 C 54.832031 99.914062 56.769531 101.792969 59.144531 101.792969 C 61.226562 101.792969 62.867188 100.355469 63.308594 98.476562 L 83.542969 98.476562 L 83.542969 121.671875 C 83.542969 122.171875 83.953125 122.554688 84.449219 122.554688 L 103.421875 122.554688 C 103.863281 124.429688 105.503906 125.867188 107.585938 125.867188 Z M 107.585938 125.867188 " fill-opacity="1" fill-rule="nonzero"/><path fill="#8e00ff" d="M 71.136719 254.980469 C 68.175781 254.980469 65.742188 256.972656 64.863281 259.671875 L 54.160156 254.6875 C 54.394531 253.511719 54.128906 252.75 53.925781 252.132812 L 65.125 247.03125 C 66.066406 248 67.382812 248.585938 68.820312 248.585938 C 71.695312 248.585938 74.039062 246.242188 74.039062 243.367188 C 74.039062 240.492188 71.695312 238.148438 68.820312 238.148438 C 65.949219 238.148438 63.601562 240.492188 63.601562 243.367188 C 63.601562 244.160156 63.808594 244.863281 64.128906 245.535156 L 53.105469 250.550781 C 51.960938 248.9375 50.199219 247.792969 48.089844 247.792969 C 44.660156 247.792969 41.871094 250.609375 41.871094 254.039062 C 41.871094 257.472656 44.660156 260.257812 48.089844 260.257812 C 50.640625 260.257812 52.839844 258.703125 53.808594 256.472656 L 64.511719 261.460938 C 64.511719 261.519531 64.453125 261.605469 64.453125 261.664062 C 64.453125 265.359375 67.441406 268.351562 71.136719 268.351562 C 74.832031 268.351562 77.824219 265.359375 77.824219 261.664062 C 77.824219 258 74.832031 254.980469 71.136719 254.980469 Z M 71.136719 254.980469 " fill-opacity="1" fill-rule="nonzero"/><path fill="#8e00ff" d="M 316.429688 178.738281 L 308.71875 186.449219 L 301.007812 178.738281 C 300.65625 178.386719 300.097656 178.386719 299.746094 178.738281 C 299.394531 179.089844 299.394531 179.644531 299.746094 180 L 308.074219 188.324219 C 308.425781 188.679688 308.984375 188.679688 309.304688 188.324219 L 317.632812 180 C 317.984375 179.644531 317.984375 179.089844 317.632812 178.738281 C 317.339844 178.414062 316.78125 178.386719 316.429688 178.738281 Z M 316.429688 178.738281 " fill-opacity="1" fill-rule="nonzero"/><path fill="#8e00ff" d="M 316.429688 189.527344 L 308.71875 197.242188 L 301.007812 189.527344 C 300.65625 189.175781 300.097656 189.175781 299.746094 189.527344 C 299.394531 189.878906 299.394531 190.4375 299.746094 190.789062 L 308.074219 199.117188 C 308.425781 199.46875 308.984375 199.46875 309.335938 199.117188 L 317.664062 190.789062 C 318.015625 190.4375 318.015625 189.878906 317.664062 189.527344 C 317.339844 189.207031 316.78125 189.175781 316.429688 189.527344 Z M 316.429688 189.527344 " fill-opacity="1" fill-rule="nonzero"/><path fill="#8e00ff" d="M 343.90625 153.957031 C 343.90625 151.203125 341.589844 148.972656 338.746094 148.972656 C 336.226562 148.972656 334.203125 150.761719 333.761719 153.078125 L 310.917969 153.078125 L 310.917969 124.105469 C 310.917969 123.636719 310.535156 123.226562 310.039062 123.226562 L 279.863281 123.226562 C 279.394531 120.910156 277.402344 119.121094 274.878906 119.121094 C 272.035156 119.121094 269.71875 121.351562 269.71875 124.105469 C 269.71875 126.863281 272.035156 129.121094 274.878906 129.121094 C 277.402344 129.121094 279.394531 127.332031 279.863281 125.015625 L 309.160156 125.015625 L 309.160156 153.957031 C 309.160156 154.457031 309.570312 154.839844 310.039062 154.839844 L 333.761719 154.839844 C 334.230469 157.15625 336.226562 158.945312 338.746094 158.945312 C 341.589844 158.945312 343.90625 156.714844 343.90625 153.957031 Z M 343.90625 153.957031 " fill-opacity="1" fill-rule="nonzero"/><path fill="#8e00ff" d="M 228.488281 79.828125 C 231.246094 79.828125 233.503906 77.511719 233.503906 74.667969 C 233.503906 72.144531 231.714844 70.152344 229.425781 69.683594 L 229.425781 40.359375 L 258.339844 40.359375 C 258.78125 42.96875 260.949219 45.019531 263.707031 45.019531 C 266.757812 45.019531 269.25 42.527344 269.25 39.480469 C 269.25 36.429688 266.757812 33.964844 263.707031 33.964844 C 260.980469 33.964844 258.808594 35.960938 258.371094 38.570312 L 228.519531 38.570312 C 228.050781 38.570312 227.640625 38.980469 227.640625 39.449219 L 227.640625 69.683594 C 225.320312 70.09375 223.503906 72.117188 223.503906 74.667969 C 223.503906 77.511719 225.734375 79.828125 228.488281 79.828125 Z M 228.488281 79.828125 " fill-opacity="1" fill-rule="nonzero"/><path fill="#8e00ff" d="M 201.746094 27.894531 L 205.089844 27.894531 L 205.089844 31.238281 C 205.089844 31.738281 205.5 32.117188 205.96875 32.117188 C 206.46875 32.117188 206.847656 31.738281 206.847656 31.238281 L 206.847656 27.894531 L 210.191406 27.894531 C 210.691406 27.894531 211.070312 27.515625 211.070312 27.015625 C 211.070312 26.515625 210.660156 26.136719 210.191406 26.136719 L 206.847656 26.136719 L 206.847656 22.792969 C 206.847656 22.296875 206.4375 21.914062 205.96875 21.914062 C 205.46875 21.914062 205.089844 22.296875 205.089844 22.792969 L 205.089844 26.136719 L 201.746094 26.136719 C 201.246094 26.136719 200.867188 26.515625 200.867188 27.015625 C 200.867188 27.515625 201.277344 27.894531 201.746094 27.894531 Z M 201.746094 27.894531 " fill-opacity="1" fill-rule="nonzero"/><path fill="#8e00ff" d="M 81.488281 72.878906 L 84.832031 72.878906 L 84.832031 76.222656 C 84.832031 76.71875 85.242188 77.101562 85.710938 77.101562 C 86.179688 77.101562 86.589844 76.71875 86.589844 76.222656 L 86.589844 72.878906 L 89.933594 72.878906 C 90.433594 72.878906 90.8125 72.496094 90.8125 72 C 90.8125 71.5 90.402344 71.117188 89.933594 71.117188 L 86.589844 71.117188 L 86.589844 67.746094 C 86.589844 67.25 86.179688 66.867188 85.710938 66.867188 C 85.242188 66.867188 84.832031 67.25 84.832031 67.746094 L 84.832031 71.089844 L 81.488281 71.089844 C 80.992188 71.089844 80.609375 71.472656 80.609375 71.96875 C 80.609375 72.46875 80.992188 72.878906 81.488281 72.878906 Z M 81.488281 72.878906 " fill-opacity="1" fill-rule="nonzero"/><path fill="#8e00ff" d="M 279.980469 208.089844 L 276.726562 208.089844 L 276.726562 204.835938 C 276.726562 204.335938 276.316406 203.957031 275.847656 203.957031 C 275.378906 203.957031 274.96875 204.335938 274.96875 204.835938 L 274.96875 208.089844 L 271.710938 208.089844 C 271.214844 208.089844 270.832031 208.472656 270.832031 208.96875 C 270.832031 209.46875 271.242188 209.851562 271.710938 209.851562 L 274.96875 209.851562 L 274.96875 213.105469 C 274.96875 213.601562 275.378906 213.984375 275.847656 213.984375 C 276.316406 213.984375 276.726562 213.601562 276.726562 213.105469 L 276.726562 209.851562 L 279.980469 209.851562 C 280.480469 209.851562 280.863281 209.46875 280.863281 208.96875 C 280.863281 208.472656 280.449219 208.089844 279.980469 208.089844 Z M 279.980469 208.089844 " fill-opacity="1" fill-rule="nonzero"/><path fill="#8e00ff" d="M 38 209.613281 L 34.746094 209.613281 L 34.746094 206.359375 C 34.746094 205.863281 34.335938 205.480469 33.867188 205.480469 C 33.398438 205.480469 32.988281 205.863281 32.988281 206.359375 L 32.988281 209.613281 L 29.734375 209.613281 C 29.234375 209.613281 28.851562 209.996094 28.851562 210.496094 C 28.851562 210.992188 29.261719 211.375 29.734375 211.375 L 32.988281 211.375 L 32.988281 214.628906 C 32.988281 215.128906 33.398438 215.507812 33.867188 215.507812 C 34.335938 215.507812 34.746094 215.128906 34.746094 214.628906 L 34.746094 211.375 L 38 211.375 C 38.5 211.375 38.882812 210.992188 38.882812 210.496094 C 38.882812 209.996094 38.472656 209.613281 38 209.613281 Z M 38 209.613281 " fill-opacity="1" fill-rule="nonzero"/><path fill="#8e00ff" d="M 274.675781 42.527344 L 277.664062 42.878906 C 278.046875 44.433594 278.691406 45.929688 279.570312 47.277344 L 277.636719 49.742188 C 277.371094 50.09375 277.402344 50.59375 277.695312 50.914062 L 280.773438 53.992188 C 281.097656 54.289062 281.59375 54.347656 281.945312 54.050781 L 284.613281 51.96875 C 285.90625 52.703125 287.285156 53.203125 288.71875 53.496094 L 289.160156 57.042969 C 289.21875 57.484375 289.601562 57.835938 290.039062 57.835938 L 294.410156 57.835938 C 294.847656 57.835938 295.230469 57.511719 295.289062 57.042969 L 295.757812 53.113281 C 296.988281 52.734375 298.164062 52.175781 299.21875 51.5 L 302.472656 54.082031 C 302.824219 54.347656 303.324219 54.316406 303.644531 54.023438 L 306.726562 50.945312 C 307.046875 50.621094 307.078125 50.125 306.785156 49.769531 L 304.054688 46.3125 C 304.613281 45.285156 305.023438 44.230469 305.316406 43.113281 L 309.773438 42.585938 C 310.214844 42.527344 310.566406 42.148438 310.566406 41.707031 L 310.566406 37.339844 C 310.566406 36.898438 310.242188 36.515625 309.773438 36.457031 L 305.316406 35.929688 C 305.023438 34.816406 304.613281 33.761719 304.054688 32.734375 L 306.785156 29.273438 C 307.046875 28.921875 307.046875 28.421875 306.726562 28.101562 L 303.644531 25.023438 C 303.324219 24.699219 302.824219 24.671875 302.472656 24.933594 L 299.21875 27.515625 C 298.132812 26.8125 296.988281 26.28125 295.730469 25.902344 L 295.257812 21.972656 C 295.199219 21.53125 294.820312 21.179688 294.378906 21.179688 L 290.011719 21.179688 C 289.570312 21.179688 289.1875 21.503906 289.128906 21.972656 L 288.691406 25.519531 C 287.226562 25.8125 285.847656 26.3125 284.554688 27.015625 L 281.917969 24.933594 C 281.566406 24.671875 281.066406 24.699219 280.742188 25.023438 L 277.664062 28.101562 C 277.34375 28.421875 277.3125 28.921875 277.605469 29.273438 L 279.542969 31.707031 C 278.660156 33.085938 278.015625 34.550781 277.636719 36.105469 L 274.644531 36.457031 C 274.203125 36.515625 273.851562 36.898438 273.851562 37.339844 L 273.851562 41.707031 C 273.910156 42.117188 274.234375 42.5 274.675781 42.527344 Z M 275.671875 38.101562 L 278.515625 37.75 C 278.898438 37.71875 279.21875 37.425781 279.277344 37.042969 C 279.628906 35.285156 280.332031 33.644531 281.417969 32.148438 C 281.652344 31.824219 281.652344 31.386719 281.390625 31.09375 L 279.542969 28.746094 L 281.507812 26.78125 L 284.027344 28.746094 C 284.320312 28.980469 284.730469 29.011719 285.054688 28.804688 C 286.492188 27.925781 288.046875 27.367188 289.71875 27.105469 C 290.097656 27.046875 290.421875 26.722656 290.480469 26.339844 L 290.890625 22.910156 L 293.675781 22.910156 L 294.117188 26.636719 C 294.144531 26.988281 294.410156 27.28125 294.761719 27.398438 C 296.226562 27.777344 297.574219 28.421875 298.808594 29.273438 C 299.128906 29.507812 299.570312 29.507812 299.863281 29.246094 L 303 26.753906 L 304.9375 28.746094 L 302.328125 32.058594 C 302.089844 32.351562 302.0625 32.734375 302.269531 33.058594 C 302.972656 34.257812 303.46875 35.519531 303.761719 36.867188 C 303.851562 37.25 304.144531 37.515625 304.527344 37.574219 L 308.808594 38.101562 L 308.808594 40.886719 L 304.527344 41.414062 C 304.144531 41.441406 303.851562 41.738281 303.761719 42.117188 C 303.46875 43.464844 302.972656 44.757812 302.269531 45.929688 C 302.09375 46.253906 302.09375 46.632812 302.328125 46.925781 L 304.9375 50.242188 L 302.972656 52.207031 L 299.804688 49.710938 C 299.511719 49.476562 299.070312 49.476562 298.75 49.683594 C 297.546875 50.5625 296.167969 51.179688 294.730469 51.558594 C 294.378906 51.648438 294.117188 51.941406 294.085938 52.324219 L 293.648438 56.046875 L 290.859375 56.046875 L 290.449219 52.617188 C 290.390625 52.234375 290.097656 51.910156 289.6875 51.851562 C 288.015625 51.617188 286.460938 51.03125 285.023438 50.152344 C 284.703125 49.945312 284.292969 49.976562 284.027344 50.210938 L 281.507812 52.175781 L 279.542969 50.210938 L 281.390625 47.867188 C 281.625 47.542969 281.652344 47.101562 281.417969 46.808594 C 280.363281 45.34375 279.628906 43.703125 279.277344 41.914062 C 279.21875 41.53125 278.898438 41.238281 278.515625 41.207031 L 275.671875 40.855469 Z M 275.671875 38.101562 " fill-opacity="1" fill-rule="nonzero"/><path fill="#8e00ff" d="M 291.359375 45.519531 C 292.941406 45.519531 294.527344 44.902344 295.730469 43.730469 C 298.132812 41.324219 298.132812 37.425781 295.730469 34.992188 C 293.324219 32.585938 289.394531 32.585938 286.988281 34.992188 C 284.585938 37.398438 284.585938 41.324219 286.988281 43.730469 C 288.191406 44.902344 289.777344 45.519531 291.359375 45.519531 Z M 288.25 36.222656 C 289.101562 35.375 290.246094 34.933594 291.359375 34.933594 C 292.472656 34.933594 293.617188 35.375 294.46875 36.222656 C 296.167969 37.953125 296.167969 40.738281 294.46875 42.441406 C 292.765625 44.171875 289.953125 44.171875 288.25 42.441406 C 286.519531 40.738281 286.519531 37.953125 288.25 36.222656 Z M 288.25 36.222656 " fill-opacity="1" fill-rule="nonzero"/><path fill="#8e00ff" d="M 263.414062 276.855469 C 263.765625 276.503906 263.765625 275.945312 263.414062 275.59375 C 263.0625 275.242188 262.503906 275.242188 262.152344 275.59375 C 259.132812 278.613281 254.234375 278.613281 251.214844 275.59375 C 250.863281 275.242188 250.304688 275.242188 249.953125 275.59375 C 249.601562 275.945312 249.601562 276.503906 249.953125 276.855469 C 251.800781 278.703125 254.234375 279.640625 256.667969 279.640625 C 259.101562 279.640625 261.566406 278.703125 263.414062 276.855469 Z M 263.414062 276.855469 " fill-opacity="1" fill-rule="nonzero"/><path fill="#8e00ff" d="M 276.609375 288.789062 C 265.613281 299.785156 247.753906 299.785156 236.789062 288.789062 C 236.4375 288.4375 235.878906 288.4375 235.527344 288.789062 C 235.175781 289.140625 235.175781 289.699219 235.527344 290.050781 C 241.363281 295.886719 249.046875 298.789062 256.699219 298.789062 C 264.351562 298.789062 272.035156 295.886719 277.871094 290.050781 C 278.222656 289.699219 278.222656 289.140625 277.871094 288.789062 C 277.519531 288.4375 276.933594 288.4375 276.609375 288.789062 Z M 276.609375 288.789062 " fill-opacity="1" fill-rule="nonzero"/><path fill="#8e00ff" d="M 242.09375 282.191406 C 241.742188 282.542969 241.742188 283.101562 242.09375 283.453125 C 246.113281 287.46875 251.390625 289.492188 256.699219 289.492188 C 262.007812 289.492188 267.253906 287.46875 271.273438 283.453125 C 271.625 283.101562 271.625 282.542969 271.273438 282.191406 C 270.921875 281.839844 270.363281 281.839844 270.011719 282.191406 C 262.652344 289.550781 250.6875 289.550781 243.355469 282.191406 C 243.003906 281.839844 242.445312 281.867188 242.09375 282.191406 Z M 242.09375 282.191406 " fill-opacity="1" fill-rule="nonzero"/><path fill="#8e00ff" d="M 153.390625 231.578125 C 150.546875 231.578125 148.230469 233.894531 148.230469 236.738281 C 148.230469 239.289062 150.078125 241.3125 152.511719 241.753906 L 152.511719 253.71875 L 97.324219 253.71875 C 96.855469 251.136719 94.683594 249.113281 91.957031 249.113281 C 88.90625 249.113281 86.445312 251.578125 86.445312 254.628906 C 86.445312 257.675781 88.90625 260.167969 91.957031 260.167969 C 94.714844 260.167969 96.882812 258.117188 97.324219 255.507812 L 153.390625 255.507812 C 153.859375 255.507812 154.269531 255.097656 154.269531 254.628906 L 154.269531 241.753906 C 156.703125 241.34375 158.582031 239.289062 158.582031 236.738281 C 158.582031 233.894531 156.265625 231.578125 153.390625 231.578125 Z M 153.390625 231.578125 " fill-opacity="1" fill-rule="nonzero"/><path fill="#8e00ff" d="M 255.820312 269.464844 C 255.820312 269.964844 256.199219 270.34375 256.699219 270.34375 C 257.195312 270.34375 257.578125 269.964844 257.578125 269.464844 L 257.578125 254.628906 C 257.578125 254.15625 257.195312 253.746094 256.699219 253.746094 L 196.144531 253.746094 L 196.144531 241.753906 C 198.578125 241.34375 200.457031 239.289062 200.457031 236.738281 C 200.457031 233.894531 198.140625 231.578125 195.265625 231.578125 C 192.421875 231.578125 190.074219 233.894531 190.074219 236.738281 C 190.074219 239.289062 191.953125 241.3125 194.355469 241.753906 L 194.355469 254.628906 C 194.355469 255.125 194.765625 255.535156 195.265625 255.535156 L 255.820312 255.535156 Z M 255.820312 269.464844 " fill-opacity="1" fill-rule="nonzero"/><path fill="#8e00ff" d="M 356.78125 147.242188 C 355.460938 147.242188 354.199219 147.769531 353.261719 148.710938 C 352.910156 149.0625 352.910156 149.617188 353.261719 149.96875 C 353.4375 150.148438 353.671875 150.234375 353.878906 150.234375 C 354.113281 150.234375 354.316406 150.148438 354.492188 149.96875 C 355.109375 149.355469 355.902344 149.03125 356.75 149.03125 C 357.601562 149.03125 358.394531 149.355469 359.007812 149.96875 C 359.359375 150.324219 359.917969 150.324219 360.269531 149.96875 C 360.621094 149.617188 360.621094 149.0625 360.269531 148.710938 C 359.359375 147.742188 358.128906 147.242188 356.78125 147.242188 Z M 356.78125 147.242188 " fill-opacity="1" fill-rule="nonzero"/><path fill="#8e00ff" d="M 347.691406 143.726562 C 352.703125 138.710938 360.855469 138.710938 365.871094 143.726562 C 366.046875 143.902344 366.28125 143.988281 366.488281 143.988281 C 366.722656 143.988281 366.925781 143.902344 367.101562 143.726562 C 367.453125 143.371094 367.453125 142.816406 367.101562 142.464844 C 364.347656 139.707031 360.679688 138.183594 356.75 138.183594 C 352.851562 138.183594 349.1875 139.707031 346.398438 142.464844 C 346.046875 142.816406 346.046875 143.371094 346.398438 143.726562 C 346.753906 144.078125 347.367188 144.046875 347.691406 143.726562 Z M 347.691406 143.726562 " fill-opacity="1" fill-rule="nonzero"/><path fill="#8e00ff" d="M 363.378906 147.066406 C 363.613281 147.066406 363.816406 146.980469 363.996094 146.804688 C 364.347656 146.453125 364.347656 145.894531 363.996094 145.542969 C 360.007812 141.554688 353.527344 141.554688 349.539062 145.542969 C 349.1875 145.894531 349.1875 146.453125 349.539062 146.804688 C 349.890625 147.15625 350.445312 147.15625 350.796875 146.804688 C 354.082031 143.488281 359.449219 143.488281 362.734375 146.804688 C 362.9375 147.007812 363.171875 147.066406 363.378906 147.066406 Z M 363.378906 147.066406 " fill-opacity="1" fill-rule="nonzero"/><g clip-path="url(#a7eee6c674)"><path fill="#8e00ff" d="M 372.761719 174.425781 L 369.183594 162.519531 C 369.066406 162.140625 368.714844 161.875 368.335938 161.875 L 357.660156 161.875 L 357.660156 152.171875 C 357.660156 151.671875 357.25 151.289062 356.78125 151.289062 C 356.3125 151.289062 355.902344 151.671875 355.902344 152.171875 L 355.902344 161.875 L 345.402344 161.875 C 345.023438 161.875 344.671875 162.140625 344.550781 162.492188 L 340.800781 174.398438 C 340.769531 174.457031 340.769531 174.71875 340.769531 174.808594 L 341.589844 179.46875 C 341.679688 179.882812 342.03125 180.203125 342.46875 180.203125 L 371.265625 180.203125 C 371.707031 180.203125 372.085938 179.882812 372.144531 179.441406 L 372.792969 174.777344 C 372.820312 174.71875 372.792969 174.484375 372.761719 174.425781 Z M 346.078125 163.636719 L 355.929688 163.636719 L 355.929688 166.625 C 355.929688 167.125 356.339844 167.507812 356.808594 167.507812 C 357.277344 167.507812 357.691406 167.125 357.691406 166.625 L 357.691406 163.636719 L 367.6875 163.636719 L 370.738281 173.78125 L 342.882812 173.78125 Z M 370.503906 178.445312 L 343.234375 178.445312 L 342.734375 175.570312 L 370.914062 175.570312 Z M 370.503906 178.445312 " fill-opacity="1" fill-rule="nonzero"/></g><path fill="#8e00ff" d="M 182.625 46.28125 L 162.804688 46.28125 C 162.421875 44.140625 160.808594 42.5 158.667969 42.117188 L 158.667969 36.253906 L 178.816406 36.253906 C 179.3125 36.253906 179.695312 35.871094 179.695312 35.375 L 179.695312 8.894531 C 179.695312 8.425781 179.3125 8.015625 178.816406 8.015625 L 161.925781 8.015625 L 161.925781 1.210938 C 161.925781 0.710938 161.542969 0.332031 161.042969 0.332031 L 135.679688 0.332031 C 135.179688 0.332031 134.769531 0.710938 134.769531 1.210938 L 134.769531 35.375 C 134.769531 35.871094 135.179688 36.253906 135.679688 36.253906 L 156.878906 36.253906 L 156.878906 42.117188 C 154.738281 42.527344 153.128906 44.140625 152.746094 46.28125 L 134.15625 46.28125 C 133.65625 46.28125 133.273438 46.664062 133.273438 47.160156 C 133.273438 47.660156 133.65625 48.042969 134.15625 48.042969 L 152.746094 48.042969 C 153.128906 50.183594 154.769531 51.824219 156.910156 52.207031 L 156.910156 62.96875 C 154.5625 63.40625 152.746094 65.371094 152.746094 67.835938 C 152.746094 70.621094 155.003906 72.878906 157.789062 72.878906 C 160.546875 72.878906 162.804688 70.621094 162.804688 67.835938 C 162.804688 65.371094 161.015625 63.40625 158.667969 62.96875 L 158.667969 52.207031 C 160.808594 51.824219 162.421875 50.183594 162.804688 48.042969 L 182.625 48.042969 C 183.125 48.042969 183.507812 47.660156 183.507812 47.160156 C 183.507812 46.664062 183.125 46.28125 182.625 46.28125 Z M 136.558594 34.492188 L 136.558594 2.089844 L 160.164062 2.089844 L 160.164062 8.015625 L 154.503906 8.015625 C 154.035156 8.015625 153.625 8.425781 153.625 8.894531 C 153.625 9.390625 154.035156 9.804688 154.503906 9.804688 L 177.933594 9.804688 L 177.933594 34.492188 Z M 136.558594 34.492188 " fill-opacity="1" fill-rule="nonzero"/><path fill="#8e00ff" d="M 171.015625 16.078125 L 142.660156 16.078125 C 142.160156 16.078125 141.777344 16.460938 141.777344 16.957031 C 141.777344 17.457031 142.1875 17.835938 142.660156 17.835938 L 171.015625 17.835938 C 171.511719 17.835938 171.894531 17.457031 171.894531 16.957031 C 171.894531 16.460938 171.511719 16.078125 171.015625 16.078125 Z M 171.015625 16.078125 " fill-opacity="1" fill-rule="nonzero"/><path fill="#8e00ff" d="M 171.015625 21.914062 L 142.660156 21.914062 C 142.160156 21.914062 141.777344 22.292969 141.777344 22.792969 C 141.777344 23.292969 142.1875 23.671875 142.660156 23.671875 L 171.015625 23.671875 C 171.511719 23.671875 171.894531 23.292969 171.894531 22.792969 C 171.894531 22.292969 171.511719 21.914062 171.015625 21.914062 Z M 171.015625 21.914062 " fill-opacity="1" fill-rule="nonzero"/><path fill="#8e00ff" d="M 171.015625 27.71875 L 142.660156 27.71875 C 142.160156 27.71875 141.777344 28.101562 141.777344 28.597656 C 141.777344 29.097656 142.1875 29.480469 142.660156 29.480469 L 171.015625 29.480469 C 171.511719 29.480469 171.894531 29.097656 171.894531 28.597656 C 171.894531 28.101562 171.511719 27.71875 171.015625 27.71875 Z M 171.015625 27.71875 " fill-opacity="1" fill-rule="nonzero"/><path fill="#8e00ff" d="M 21.875 175.71875 C 21.375 175.71875 20.992188 176.097656 20.992188 176.597656 L 20.992188 181.667969 C 20.992188 182.167969 21.40625 182.550781 21.875 182.550781 C 22.371094 182.550781 22.753906 182.167969 22.753906 181.667969 L 22.753906 176.597656 C 22.753906 176.097656 22.371094 175.71875 21.875 175.71875 Z M 21.875 175.71875 " fill-opacity="1" fill-rule="nonzero"/><path fill="#8e00ff" d="M 21.875 156.128906 C 21.375 156.128906 20.992188 156.511719 20.992188 157.007812 L 20.992188 173.105469 C 20.992188 173.605469 21.40625 173.988281 21.875 173.988281 C 22.371094 173.988281 22.753906 173.605469 22.753906 173.105469 L 22.753906 157.007812 C 22.753906 156.539062 22.371094 156.128906 21.875 156.128906 Z M 21.875 156.128906 " fill-opacity="1" fill-rule="nonzero"/><g clip-path="url(#51cd6a3a34)"><path fill="#8e00ff" d="M 49.703125 104.019531 C 49.703125 100.472656 47.152344 97.304688 43.542969 96.191406 C 43.574219 95.925781 43.601562 95.664062 43.601562 95.398438 C 43.601562 90.824219 39.554688 87.128906 34.542969 87.128906 C 33.046875 87.128906 31.636719 87.453125 30.378906 88.097656 C 29.085938 84.929688 25.804688 82.789062 22.019531 82.789062 C 18.089844 82.789062 14.71875 85.046875 13.515625 88.363281 C 8.707031 88.539062 4.867188 92.171875 4.867188 96.628906 C 4.867188 97.1875 4.925781 97.746094 5.070312 98.242188 C 3.398438 99.769531 2.460938 101.820312 2.460938 104.019531 C 2.460938 108.59375 6.507812 112.347656 11.523438 112.347656 C 11.609375 112.347656 40.523438 112.347656 40.730469 112.347656 C 45.683594 112.347656 49.703125 108.59375 49.703125 104.019531 Z M 40.730469 110.558594 C 40.496094 110.558594 11.699219 110.558594 11.523438 110.558594 C 7.503906 110.558594 4.25 107.628906 4.25 104.019531 C 4.25 102.171875 5.128906 100.441406 6.65625 99.242188 C 6.976562 99.007812 7.066406 98.566406 6.917969 98.214844 C 6.714844 97.746094 6.625 97.21875 6.625 96.628906 C 6.625 93.230469 9.585938 90.503906 13.222656 90.207031 C 13.253906 92.40625 14.074219 94.605469 15.628906 96.160156 C 17.210938 97.773438 19.46875 98.683594 21.757812 98.683594 C 22.136719 98.683594 22.519531 98.652344 22.898438 98.59375 C 23.398438 98.535156 23.722656 98.066406 23.664062 97.597656 C 23.605469 97.101562 23.132812 96.746094 22.664062 96.835938 C 20.613281 97.128906 18.382812 96.394531 16.917969 94.902344 C 15.511719 93.464844 14.835938 91.382812 15.070312 89.386719 C 15.863281 86.542969 18.675781 84.550781 22.019531 84.550781 C 25.421875 84.550781 28.296875 86.632812 29.027344 89.621094 C 29.085938 89.886719 29.292969 90.121094 29.585938 90.238281 C 29.851562 90.355469 30.171875 90.324219 30.40625 90.148438 C 31.609375 89.328125 33.015625 88.917969 34.570312 88.917969 C 38.589844 88.917969 41.84375 91.820312 41.84375 95.398438 C 41.84375 95.808594 41.753906 96.21875 41.695312 96.628906 C 41.578125 97.453125 42.136719 97.65625 42.371094 97.714844 C 45.597656 98.390625 47.972656 101.027344 47.972656 104.019531 C 47.941406 107.628906 44.6875 110.558594 40.730469 110.558594 Z M 40.730469 110.558594 " fill-opacity="1" fill-rule="nonzero"/></g><path fill="#ffffff" d="M 239.691406 209.085938 L 219.105469 209.085938 C 218.957031 208.355469 218.34375 207.796875 217.582031 207.796875 L 207.992188 207.796875 L 207.992188 201.875 C 207.992188 201.109375 207.433594 200.496094 206.703125 200.347656 L 206.703125 190.144531 C 206.703125 189.265625 205.996094 188.5625 205.117188 188.5625 C 204.238281 188.5625 203.535156 189.265625 203.535156 190.144531 L 203.535156 200.289062 L 195.851562 200.289062 L 195.851562 190.144531 C 195.851562 189.265625 195.148438 188.5625 194.269531 188.5625 C 193.386719 188.5625 192.683594 189.265625 192.683594 190.144531 L 192.683594 200.347656 C 191.953125 200.496094 191.394531 201.113281 191.394531 201.875 L 191.394531 207.796875 L 180.957031 207.796875 C 180.164062 207.796875 179.546875 208.355469 179.429688 209.085938 L 159.695312 209.085938 C 158.816406 209.085938 158.113281 209.792969 158.113281 210.671875 L 158.113281 220.023438 C 158.113281 220.90625 158.816406 221.609375 159.695312 221.609375 L 179.429688 221.609375 C 179.578125 222.339844 180.191406 222.898438 180.957031 222.898438 L 217.609375 222.898438 C 218.402344 222.898438 218.988281 222.339844 219.136719 221.609375 L 239.71875 221.609375 C 240.601562 221.609375 241.304688 220.90625 241.304688 220.023438 L 241.304688 210.671875 C 241.304688 209.792969 240.570312 209.085938 239.691406 209.085938 Z M 161.25 212.285156 L 179.3125 212.285156 L 179.3125 218.441406 L 161.25 218.441406 Z M 238.105469 218.441406 L 219.164062 218.441406 L 219.164062 212.285156 L 238.105469 212.285156 Z M 238.105469 218.441406 " fill-opacity="1" fill-rule="nonzero"/><path fill="#ffffff" d="M 246.140625 102.289062 C 246.464844 102.671875 246.933594 102.875 247.375 102.875 C 247.726562 102.875 248.078125 102.757812 248.371094 102.523438 C 249.046875 101.96875 249.164062 100.96875 248.605469 100.265625 C 247.226562 98.566406 245.703125 96.894531 244.148438 95.3125 C 243.53125 94.695312 242.507812 94.695312 241.890625 95.3125 C 241.273438 95.925781 241.273438 96.953125 241.890625 97.570312 C 243.386719 99.066406 244.824219 100.648438 246.140625 102.289062 Z M 246.140625 102.289062 " fill-opacity="1" fill-rule="nonzero"/><path fill="#ffffff" d="M 153.949219 178.210938 C 153.390625 177.535156 152.363281 177.445312 151.691406 178.003906 C 151.015625 178.5625 150.925781 179.585938 151.484375 180.261719 C 152.628906 181.640625 153.890625 182.988281 155.179688 184.28125 C 155.503906 184.601562 155.914062 184.75 156.324219 184.75 C 156.734375 184.75 157.144531 184.601562 157.46875 184.28125 C 158.082031 183.664062 158.082031 182.636719 157.46875 182.023438 C 156.207031 180.789062 155.03125 179.527344 153.949219 178.210938 Z M 153.949219 178.210938 " fill-opacity="1" fill-rule="nonzero"/><path fill="#ffffff" d="M 154.710938 100.558594 L 154.210938 104.285156 C 154.09375 105.164062 154.710938 105.957031 155.589844 106.074219 C 155.648438 106.074219 155.738281 106.074219 155.796875 106.074219 C 156.585938 106.074219 157.261719 105.488281 157.378906 104.695312 L 158.492188 96.367188 C 158.550781 95.898438 158.40625 95.457031 158.113281 95.105469 C 157.820312 94.753906 157.378906 94.546875 156.910156 94.546875 L 147.996094 94.546875 C 147.117188 94.546875 146.410156 95.253906 146.410156 96.132812 C 146.410156 97.011719 147.117188 97.714844 147.996094 97.714844 L 152.949219 97.714844 C 133.742188 119.0625 131.308594 150.996094 147.527344 174.984375 C 147.847656 175.453125 148.347656 175.6875 148.847656 175.6875 C 149.167969 175.6875 149.460938 175.601562 149.726562 175.421875 C 150.457031 174.925781 150.664062 173.929688 150.164062 173.195312 C 134.945312 150.734375 137.027344 120.792969 154.710938 100.558594 Z M 154.710938 100.558594 " fill-opacity="1" fill-rule="nonzero"/><path fill="#ffffff" d="M 201.277344 90.941406 L 201.277344 115.808594 C 207.699219 115.71875 213.886719 115.074219 219.574219 113.992188 C 215.675781 100.96875 208.988281 92.054688 201.277344 90.941406 Z M 201.277344 90.941406 " fill-opacity="1" fill-rule="nonzero"/><path fill="#ffffff" d="M 219.574219 165.628906 C 213.886719 164.515625 207.699219 163.898438 201.277344 163.8125 L 201.277344 188.679688 C 208.988281 187.5625 215.675781 178.621094 219.574219 165.628906 Z M 219.574219 165.628906 " fill-opacity="1" fill-rule="nonzero"/><path fill="#ffffff" d="M 220.394531 117.070312 C 214.441406 118.242188 207.960938 118.917969 201.246094 119.003906 L 201.246094 138.210938 L 223.0625 138.210938 C 222.945312 130.585938 222.007812 123.433594 220.394531 117.070312 Z M 220.394531 117.070312 " fill-opacity="1" fill-rule="nonzero"/><path fill="#ffffff" d="M 223.0625 141.40625 L 201.246094 141.40625 L 201.246094 160.613281 C 207.960938 160.703125 214.414062 161.378906 220.394531 162.550781 C 222.007812 156.1875 222.945312 149.003906 223.0625 141.40625 Z M 223.0625 141.40625 " fill-opacity="1" fill-rule="nonzero"/><path fill="#ffffff" d="M 222.710938 113.316406 C 228.136719 112.054688 232.976562 110.324219 237.082031 108.214844 C 230.335938 100.238281 221.097656 94.460938 210.601562 92.054688 C 215.703125 96.453125 219.925781 103.902344 222.710938 113.316406 Z M 222.710938 113.316406 " fill-opacity="1" fill-rule="nonzero"/><path fill="#ffffff" d="M 226.261719 138.210938 L 248.605469 138.210938 C 248.28125 127.976562 244.792969 118.507812 239.074219 110.765625 C 234.675781 113.109375 229.398438 115.015625 223.535156 116.394531 C 225.203125 122.964844 226.144531 130.324219 226.261719 138.210938 Z M 226.261719 138.210938 " fill-opacity="1" fill-rule="nonzero"/><path fill="#ffffff" d="M 210.574219 187.5625 C 221.070312 185.160156 230.308594 179.382812 237.050781 171.40625 C 232.945312 169.296875 228.109375 167.566406 222.683594 166.304688 C 219.925781 175.6875 215.703125 183.136719 210.574219 187.5625 Z M 210.574219 187.5625 " fill-opacity="1" fill-rule="nonzero"/><path fill="#ffffff" d="M 248.605469 141.40625 L 226.261719 141.40625 C 226.144531 149.265625 225.175781 156.65625 223.535156 163.226562 C 229.398438 164.601562 234.675781 166.507812 239.074219 168.855469 C 244.792969 161.113281 248.28125 151.640625 248.605469 141.40625 Z M 248.605469 141.40625 " fill-opacity="1" fill-rule="nonzero"/><path fill="#ffffff" d="M 198.082031 119.003906 C 191.363281 118.917969 184.914062 118.242188 178.933594 117.070312 C 177.320312 123.433594 176.378906 130.617188 176.261719 138.210938 L 198.082031 138.210938 Z M 198.082031 119.003906 " fill-opacity="1" fill-rule="nonzero"/><path fill="#ffffff" d="M 175.792969 163.226562 C 174.152344 156.65625 173.183594 149.296875 173.066406 141.40625 L 150.722656 141.40625 C 151.046875 151.640625 154.535156 161.113281 160.253906 168.855469 C 164.652344 166.507812 169.929688 164.601562 175.792969 163.226562 Z M 175.792969 163.226562 " fill-opacity="1" fill-rule="nonzero"/><path fill="#ffffff" d="M 188.753906 92.054688 C 178.257812 94.460938 169.019531 100.238281 162.277344 108.214844 C 166.382812 110.324219 171.21875 112.054688 176.644531 113.316406 C 179.402344 103.902344 183.625 96.453125 188.753906 92.054688 Z M 188.753906 92.054688 " fill-opacity="1" fill-rule="nonzero"/><path fill="#ffffff" d="M 173.066406 138.210938 C 173.183594 130.351562 174.152344 122.964844 175.792969 116.394531 C 169.929688 115.015625 164.652344 113.109375 160.253906 110.765625 C 154.535156 118.507812 151.046875 127.949219 150.722656 138.210938 Z M 173.066406 138.210938 " fill-opacity="1" fill-rule="nonzero"/><path fill="#ffffff" d="M 162.277344 171.40625 C 169.019531 179.382812 178.257812 185.160156 188.753906 187.5625 C 183.625 183.164062 179.402344 175.71875 176.617188 166.304688 C 171.21875 167.566406 166.382812 169.296875 162.277344 171.40625 Z M 162.277344 171.40625 " fill-opacity="1" fill-rule="nonzero"/><path fill="#ffffff" d="M 198.082031 188.679688 L 198.082031 163.8125 C 191.660156 163.898438 185.472656 164.515625 179.78125 165.628906 C 183.652344 178.621094 190.367188 187.5625 198.082031 188.679688 Z M 198.082031 188.679688 " fill-opacity="1" fill-rule="nonzero"/><path fill="#ffffff" d="M 198.082031 115.808594 L 198.082031 90.941406 C 190.367188 92.027344 183.652344 100.96875 179.78125 113.960938 C 185.472656 115.074219 191.660156 115.71875 198.082031 115.808594 Z M 198.082031 115.808594 " fill-opacity="1" fill-rule="nonzero"/><path fill="#ffffff" d="M 198.082031 141.40625 L 176.261719 141.40625 C 176.378906 149.03125 177.320312 156.1875 178.933594 162.550781 C 184.914062 161.378906 191.363281 160.703125 198.082031 160.613281 Z M 198.082031 141.40625 " fill-opacity="1" fill-rule="nonzero"/><path fill="#ffffff" d="M 250.246094 182.695312 L 245.613281 182.695312 C 264.996094 161.90625 268.078125 130.03125 252.738281 105.984375 C 252.269531 105.25 251.273438 105.015625 250.539062 105.488281 C 249.808594 105.957031 249.574219 106.953125 250.042969 107.6875 C 264.558594 130.441406 261.683594 160.554688 243.472656 180.292969 L 244.03125 176.15625 C 244.148438 175.277344 243.53125 174.484375 242.652344 174.367188 C 241.773438 174.222656 240.980469 174.867188 240.863281 175.746094 L 239.75 184.074219 C 239.691406 184.542969 239.835938 184.984375 240.128906 185.335938 C 240.425781 185.6875 240.863281 185.890625 241.332031 185.890625 L 250.246094 185.890625 C 251.128906 185.890625 251.832031 185.1875 251.832031 184.308594 C 251.859375 183.398438 251.128906 182.695312 250.246094 182.695312 Z M 250.246094 182.695312 " fill-opacity="1" fill-rule="nonzero"/><path fill="#8e00ff" d="M 114.742188 147.507812 C 108.230469 140.996094 108.230469 130.441406 114.742188 123.929688 L 166.617188 72.058594 C 173.125 65.546875 183.683594 65.546875 190.191406 72.058594 C 196.703125 78.566406 196.703125 89.125 190.191406 95.632812 L 138.320312 147.507812 C 131.808594 154.015625 121.253906 154.015625 114.742188 147.507812 Z M 114.742188 147.507812 " fill-opacity="1" fill-rule="nonzero"/><path fill="#8e00ff" d="M 138.320312 218.238281 C 131.808594 211.726562 131.808594 201.171875 138.320312 194.660156 L 237.375 95.605469 C 243.882812 89.09375 254.441406 89.09375 260.949219 95.605469 C 267.460938 102.113281 267.460938 112.671875 260.949219 119.179688 L 161.894531 218.238281 C 155.386719 224.746094 144.828125 224.746094 138.320312 218.238281 Z M 138.320312 218.238281 " fill-opacity="1" fill-rule="nonzero"/><path fill="#8e00ff" d="M 126.53125 182.871094 C 120.019531 176.363281 120.019531 165.804688 126.53125 159.296875 L 201.980469 83.84375 C 208.492188 77.335938 219.046875 77.335938 225.558594 83.84375 C 232.066406 90.355469 232.066406 100.910156 225.558594 107.421875 L 150.105469 182.871094 C 143.597656 189.382812 133.039062 189.382812 126.53125 182.871094 Z M 126.53125 182.871094 " fill-opacity="1" fill-rule="nonzero"/><path fill="#8e00ff" d="M 173.683594 230.023438 C 167.171875 223.515625 167.171875 212.957031 173.683594 206.449219 L 249.132812 131 C 255.644531 124.488281 266.199219 124.488281 272.710938 131 C 279.21875 137.507812 279.21875 148.066406 272.710938 154.574219 L 197.289062 230.023438 C 190.777344 236.535156 180.222656 236.535156 173.683594 230.023438 Z M 173.683594 230.023438 " fill-opacity="1" fill-rule="nonzero"/><path fill="#8e00ff" d="M 209.078125 241.8125 C 202.566406 235.304688 202.566406 224.746094 209.078125 218.238281 L 260.949219 166.363281 C 267.460938 159.851562 278.015625 159.851562 284.527344 166.363281 C 291.035156 172.871094 291.035156 183.429688 284.527344 189.9375 L 232.652344 241.8125 C 226.144531 248.324219 215.585938 248.324219 209.078125 241.8125 Z M 209.078125 241.8125 " fill-opacity="1" fill-rule="nonzero"/><path fill="#8e00ff" d="M 29.085938 153.078125 C 29.261719 153.253906 29.496094 153.34375 29.703125 153.34375 C 29.9375 153.34375 30.144531 153.253906 30.320312 153.078125 C 30.671875 152.726562 30.671875 152.171875 30.320312 151.816406 L 22.488281 143.960938 C 22.167969 143.605469 21.582031 143.636719 21.230469 143.960938 L 13.398438 151.816406 C 13.046875 152.171875 13.046875 152.726562 13.398438 153.078125 C 13.75 153.429688 14.308594 153.402344 14.660156 153.078125 L 21.875 145.867188 Z M 29.085938 153.078125 " fill-opacity="1" fill-rule="nonzero"/><path fill="#8e00ff" d="M 14.660156 142.933594 L 21.875 135.71875 L 29.085938 142.933594 C 29.261719 143.109375 29.496094 143.195312 29.703125 143.195312 C 29.910156 143.195312 30.144531 143.109375 30.320312 142.933594 C 30.671875 142.582031 30.671875 142.023438 30.320312 141.671875 L 22.488281 133.84375 C 22.136719 133.492188 21.582031 133.492188 21.230469 133.84375 L 13.398438 141.671875 C 13.046875 142.023438 13.046875 142.582031 13.398438 142.933594 C 13.75 143.285156 14.335938 143.285156 14.660156 142.933594 Z M 14.660156 142.933594 " fill-opacity="1" fill-rule="nonzero"/><path fill="#8e00ff" d="M 107.585938 125.867188 C 109.960938 125.867188 111.925781 123.988281 111.925781 121.671875 C 111.925781 119.355469 109.960938 117.480469 107.585938 117.480469 C 105.503906 117.480469 103.863281 118.917969 103.421875 120.792969 L 85.332031 120.792969 L 85.332031 97.597656 C 85.332031 97.101562 84.917969 96.71875 84.449219 96.71875 L 63.308594 96.71875 C 62.867188 94.84375 61.226562 93.40625 59.144531 93.40625 C 56.769531 93.40625 54.832031 95.28125 54.832031 97.597656 C 54.832031 99.914062 56.769531 101.792969 59.144531 101.792969 C 61.226562 101.792969 62.867188 100.355469 63.308594 98.476562 L 83.542969 98.476562 L 83.542969 121.671875 C 83.542969 122.171875 83.953125 122.554688 84.449219 122.554688 L 103.421875 122.554688 C 103.863281 124.429688 105.503906 125.867188 107.585938 125.867188 Z M 107.585938 125.867188 " fill-opacity="1" fill-rule="nonzero"/><path fill="#8e00ff" d="M 71.136719 254.980469 C 68.175781 254.980469 65.742188 256.972656 64.863281 259.671875 L 54.160156 254.6875 C 54.394531 253.511719 54.128906 252.75 53.925781 252.132812 L 65.125 247.03125 C 66.066406 248 67.382812 248.585938 68.820312 248.585938 C 71.695312 248.585938 74.039062 246.242188 74.039062 243.367188 C 74.039062 240.492188 71.695312 238.148438 68.820312 238.148438 C 65.949219 238.148438 63.601562 240.492188 63.601562 243.367188 C 63.601562 244.160156 63.808594 244.863281 64.128906 245.535156 L 53.105469 250.550781 C 51.960938 248.9375 50.199219 247.792969 48.089844 247.792969 C 44.660156 247.792969 41.871094 250.609375 41.871094 254.039062 C 41.871094 257.472656 44.660156 260.257812 48.089844 260.257812 C 50.640625 260.257812 52.839844 258.703125 53.808594 256.472656 L 64.511719 261.460938 C 64.511719 261.519531 64.453125 261.605469 64.453125 261.664062 C 64.453125 265.359375 67.441406 268.351562 71.136719 268.351562 C 74.832031 268.351562 77.824219 265.359375 77.824219 261.664062 C 77.824219 258 74.832031 254.980469 71.136719 254.980469 Z M 71.136719 254.980469 " fill-opacity="1" fill-rule="nonzero"/><path fill="#8e00ff" d="M 316.429688 178.738281 L 308.71875 186.449219 L 301.007812 178.738281 C 300.65625 178.386719 300.097656 178.386719 299.746094 178.738281 C 299.394531 179.089844 299.394531 179.644531 299.746094 180 L 308.074219 188.324219 C 308.425781 188.679688 308.984375 188.679688 309.304688 188.324219 L 317.632812 180 C 317.984375 179.644531 317.984375 179.089844 317.632812 178.738281 C 317.339844 178.414062 316.78125 178.386719 316.429688 178.738281 Z M 316.429688 178.738281 " fill-opacity="1" fill-rule="nonzero"/><path fill="#8e00ff" d="M 316.429688 189.527344 L 308.71875 197.242188 L 301.007812 189.527344 C 300.65625 189.175781 300.097656 189.175781 299.746094 189.527344 C 299.394531 189.878906 299.394531 190.4375 299.746094 190.789062 L 308.074219 199.117188 C 308.425781 199.46875 308.984375 199.46875 309.335938 199.117188 L 317.664062 190.789062 C 318.015625 190.4375 318.015625 189.878906 317.664062 189.527344 C 317.339844 189.207031 316.78125 189.175781 316.429688 189.527344 Z M 316.429688 189.527344 " fill-opacity="1" fill-rule="nonzero"/><path fill="#8e00ff" d="M 343.90625 153.957031 C 343.90625 151.203125 341.589844 148.972656 338.746094 148.972656 C 336.226562 148.972656 334.203125 150.761719 333.761719 153.078125 L 310.917969 153.078125 L 310.917969 124.105469 C 310.917969 123.636719 310.535156 123.226562 310.039062 123.226562 L 279.863281 123.226562 C 279.394531 120.910156 277.402344 119.121094 274.878906 119.121094 C 272.035156 119.121094 269.71875 121.351562 269.71875 124.105469 C 269.71875 126.863281 272.035156 129.121094 274.878906 129.121094 C 277.402344 129.121094 279.394531 127.332031 279.863281 125.015625 L 309.160156 125.015625 L 309.160156 153.957031 C 309.160156 154.457031 309.570312 154.839844 310.039062 154.839844 L 333.761719 154.839844 C 334.230469 157.15625 336.226562 158.945312 338.746094 158.945312 C 341.589844 158.945312 343.90625 156.714844 343.90625 153.957031 Z M 343.90625 153.957031 " fill-opacity="1" fill-rule="nonzero"/><path fill="#8e00ff" d="M 228.488281 79.828125 C 231.246094 79.828125 233.503906 77.511719 233.503906 74.667969 C 233.503906 72.144531 231.714844 70.152344 229.425781 69.683594 L 229.425781 40.359375 L 258.339844 40.359375 C 258.78125 42.96875 260.949219 45.019531 263.707031 45.019531 C 266.757812 45.019531 269.25 42.527344 269.25 39.480469 C 269.25 36.429688 266.757812 33.964844 263.707031 33.964844 C 260.980469 33.964844 258.808594 35.960938 258.371094 38.570312 L 228.519531 38.570312 C 228.050781 38.570312 227.640625 38.980469 227.640625 39.449219 L 227.640625 69.683594 C 225.320312 70.09375 223.503906 72.117188 223.503906 74.667969 C 223.503906 77.511719 225.734375 79.828125 228.488281 79.828125 Z M 228.488281 79.828125 " fill-opacity="1" fill-rule="nonzero"/><path fill="#8e00ff" d="M 201.746094 27.894531 L 205.089844 27.894531 L 205.089844 31.238281 C 205.089844 31.738281 205.5 32.117188 205.96875 32.117188 C 206.46875 32.117188 206.847656 31.738281 206.847656 31.238281 L 206.847656 27.894531 L 210.191406 27.894531 C 210.691406 27.894531 211.070312 27.515625 211.070312 27.015625 C 211.070312 26.515625 210.660156 26.136719 210.191406 26.136719 L 206.847656 26.136719 L 206.847656 22.792969 C 206.847656 22.296875 206.4375 21.914062 205.96875 21.914062 C 205.46875 21.914062 205.089844 22.296875 205.089844 22.792969 L 205.089844 26.136719 L 201.746094 26.136719 C 201.246094 26.136719 200.867188 26.515625 200.867188 27.015625 C 200.867188 27.515625 201.277344 27.894531 201.746094 27.894531 Z M 201.746094 27.894531 " fill-opacity="1" fill-rule="nonzero"/><path fill="#8e00ff" d="M 81.488281 72.878906 L 84.832031 72.878906 L 84.832031 76.222656 C 84.832031 76.71875 85.242188 77.101562 85.710938 77.101562 C 86.179688 77.101562 86.589844 76.71875 86.589844 76.222656 L 86.589844 72.878906 L 89.933594 72.878906 C 90.433594 72.878906 90.8125 72.496094 90.8125 72 C 90.8125 71.5 90.402344 71.117188 89.933594 71.117188 L 86.589844 71.117188 L 86.589844 67.746094 C 86.589844 67.25 86.179688 66.867188 85.710938 66.867188 C 85.242188 66.867188 84.832031 67.25 84.832031 67.746094 L 84.832031 71.089844 L 81.488281 71.089844 C 80.992188 71.089844 80.609375 71.472656 80.609375 71.96875 C 80.609375 72.46875 80.992188 72.878906 81.488281 72.878906 Z M 81.488281 72.878906 " fill-opacity="1" fill-rule="nonzero"/><path fill="#8e00ff" d="M 279.980469 208.089844 L 276.726562 208.089844 L 276.726562 204.835938 C 276.726562 204.335938 276.316406 203.957031 275.847656 203.957031 C 275.378906 203.957031 274.96875 204.335938 274.96875 204.835938 L 274.96875 208.089844 L 271.710938 208.089844 C 271.214844 208.089844 270.832031 208.472656 270.832031 208.96875 C 270.832031 209.46875 271.242188 209.851562 271.710938 209.851562 L 274.96875 209.851562 L 274.96875 213.105469 C 274.96875 213.601562 275.378906 213.984375 275.847656 213.984375 C 276.316406 213.984375 276.726562 213.601562 276.726562 213.105469 L 276.726562 209.851562 L 279.980469 209.851562 C 280.480469 209.851562 280.863281 209.46875 280.863281 208.96875 C 280.863281 208.472656 280.449219 208.089844 279.980469 208.089844 Z M 279.980469 208.089844 " fill-opacity="1" fill-rule="nonzero"/><path fill="#8e00ff" d="M 38 209.613281 L 34.746094 209.613281 L 34.746094 206.359375 C 34.746094 205.863281 34.335938 205.480469 33.867188 205.480469 C 33.398438 205.480469 32.988281 205.863281 32.988281 206.359375 L 32.988281 209.613281 L 29.734375 209.613281 C 29.234375 209.613281 28.851562 209.996094 28.851562 210.496094 C 28.851562 210.992188 29.261719 211.375 29.734375 211.375 L 32.988281 211.375 L 32.988281 214.628906 C 32.988281 215.128906 33.398438 215.507812 33.867188 215.507812 C 34.335938 215.507812 34.746094 215.128906 34.746094 214.628906 L 34.746094 211.375 L 38 211.375 C 38.5 211.375 38.882812 210.992188 38.882812 210.496094 C 38.882812 209.996094 38.472656 209.613281 38 209.613281 Z M 38 209.613281 " fill-opacity="1" fill-rule="nonzero"/><path fill="#8e00ff" d="M 274.675781 42.527344 L 277.664062 42.878906 C 278.046875 44.433594 278.691406 45.929688 279.570312 47.277344 L 277.636719 49.742188 C 277.371094 50.09375 277.402344 50.59375 277.695312 50.914062 L 280.773438 53.992188 C 281.097656 54.289062 281.59375 54.347656 281.945312 54.050781 L 284.613281 51.96875 C 285.90625 52.703125 287.285156 53.203125 288.71875 53.496094 L 289.160156 57.042969 C 289.21875 57.484375 289.601562 57.835938 290.039062 57.835938 L 294.410156 57.835938 C 294.847656 57.835938 295.230469 57.511719 295.289062 57.042969 L 295.757812 53.113281 C 296.988281 52.734375 298.164062 52.175781 299.21875 51.5 L 302.472656 54.082031 C 302.824219 54.347656 303.324219 54.316406 303.644531 54.023438 L 306.726562 50.945312 C 307.046875 50.621094 307.078125 50.125 306.785156 49.769531 L 304.054688 46.3125 C 304.613281 45.285156 305.023438 44.230469 305.316406 43.113281 L 309.773438 42.585938 C 310.214844 42.527344 310.566406 42.148438 310.566406 41.707031 L 310.566406 37.339844 C 310.566406 36.898438 310.242188 36.515625 309.773438 36.457031 L 305.316406 35.929688 C 305.023438 34.816406 304.613281 33.761719 304.054688 32.734375 L 306.785156 29.273438 C 307.046875 28.921875 307.046875 28.421875 306.726562 28.101562 L 303.644531 25.023438 C 303.324219 24.699219 302.824219 24.671875 302.472656 24.933594 L 299.21875 27.515625 C 298.132812 26.8125 296.988281 26.28125 295.730469 25.902344 L 295.257812 21.972656 C 295.199219 21.53125 294.820312 21.179688 294.378906 21.179688 L 290.011719 21.179688 C 289.570312 21.179688 289.1875 21.503906 289.128906 21.972656 L 288.691406 25.519531 C 287.226562 25.8125 285.847656 26.3125 284.554688 27.015625 L 281.917969 24.933594 C 281.566406 24.671875 281.066406 24.699219 280.742188 25.023438 L 277.664062 28.101562 C 277.34375 28.421875 277.3125 28.921875 277.605469 29.273438 L 279.542969 31.707031 C 278.660156 33.085938 278.015625 34.550781 277.636719 36.105469 L 274.644531 36.457031 C 274.203125 36.515625 273.851562 36.898438 273.851562 37.339844 L 273.851562 41.707031 C 273.910156 42.117188 274.234375 42.5 274.675781 42.527344 Z M 275.671875 38.101562 L 278.515625 37.75 C 278.898438 37.71875 279.21875 37.425781 279.277344 37.042969 C 279.628906 35.285156 280.332031 33.644531 281.417969 32.148438 C 281.652344 31.824219 281.652344 31.386719 281.390625 31.09375 L 279.542969 28.746094 L 281.507812 26.78125 L 284.027344 28.746094 C 284.320312 28.980469 284.730469 29.011719 285.054688 28.804688 C 286.492188 27.925781 288.046875 27.367188 289.71875 27.105469 C 290.097656 27.046875 290.421875 26.722656 290.480469 26.339844 L 290.890625 22.910156 L 293.675781 22.910156 L 294.117188 26.636719 C 294.144531 26.988281 294.410156 27.28125 294.761719 27.398438 C 296.226562 27.777344 297.574219 28.421875 298.808594 29.273438 C 299.128906 29.507812 299.570312 29.507812 299.863281 29.246094 L 303 26.753906 L 304.9375 28.746094 L 302.328125 32.058594 C 302.089844 32.351562 302.0625 32.734375 302.269531 33.058594 C 302.972656 34.257812 303.46875 35.519531 303.761719 36.867188 C 303.851562 37.25 304.144531 37.515625 304.527344 37.574219 L 308.808594 38.101562 L 308.808594 40.886719 L 304.527344 41.414062 C 304.144531 41.441406 303.851562 41.738281 303.761719 42.117188 C 303.46875 43.464844 302.972656 44.757812 302.269531 45.929688 C 302.09375 46.253906 302.09375 46.632812 302.328125 46.925781 L 304.9375 50.242188 L 302.972656 52.207031 L 299.804688 49.710938 C 299.511719 49.476562 299.070312 49.476562 298.75 49.683594 C 297.546875 50.5625 296.167969 51.179688 294.730469 51.558594 C 294.378906 51.648438 294.117188 51.941406 294.085938 52.324219 L 293.648438 56.046875 L 290.859375 56.046875 L 290.449219 52.617188 C 290.390625 52.234375 290.097656 51.910156 289.6875 51.851562 C 288.015625 51.617188 286.460938 51.03125 285.023438 50.152344 C 284.703125 49.945312 284.292969 49.976562 284.027344 50.210938 L 281.507812 52.175781 L 279.542969 50.210938 L 281.390625 47.867188 C 281.625 47.542969 281.652344 47.101562 281.417969 46.808594 C 280.363281 45.34375 279.628906 43.703125 279.277344 41.914062 C 279.21875 41.53125 278.898438 41.238281 278.515625 41.207031 L 275.671875 40.855469 Z M 275.671875 38.101562 " fill-opacity="1" fill-rule="nonzero"/><path fill="#8e00ff" d="M 291.359375 45.519531 C 292.941406 45.519531 294.527344 44.902344 295.730469 43.730469 C 298.132812 41.324219 298.132812 37.425781 295.730469 34.992188 C 293.324219 32.585938 289.394531 32.585938 286.988281 34.992188 C 284.585938 37.398438 284.585938 41.324219 286.988281 43.730469 C 288.191406 44.902344 289.777344 45.519531 291.359375 45.519531 Z M 288.25 36.222656 C 289.101562 35.375 290.246094 34.933594 291.359375 34.933594 C 292.472656 34.933594 293.617188 35.375 294.46875 36.222656 C 296.167969 37.953125 296.167969 40.738281 294.46875 42.441406 C 292.765625 44.171875 289.953125 44.171875 288.25 42.441406 C 286.519531 40.738281 286.519531 37.953125 288.25 36.222656 Z M 288.25 36.222656 " fill-opacity="1" fill-rule="nonzero"/><path fill="#8e00ff" d="M 263.414062 276.855469 C 263.765625 276.503906 263.765625 275.945312 263.414062 275.59375 C 263.0625 275.242188 262.503906 275.242188 262.152344 275.59375 C 259.132812 278.613281 254.234375 278.613281 251.214844 275.59375 C 250.863281 275.242188 250.304688 275.242188 249.953125 275.59375 C 249.601562 275.945312 249.601562 276.503906 249.953125 276.855469 C 251.800781 278.703125 254.234375 279.640625 256.667969 279.640625 C 259.101562 279.640625 261.566406 278.703125 263.414062 276.855469 Z M 263.414062 276.855469 " fill-opacity="1" fill-rule="nonzero"/><path fill="#8e00ff" d="M 276.609375 288.789062 C 265.613281 299.785156 247.753906 299.785156 236.789062 288.789062 C 236.4375 288.4375 235.878906 288.4375 235.527344 288.789062 C 235.175781 289.140625 235.175781 289.699219 235.527344 290.050781 C 241.363281 295.886719 249.046875 298.789062 256.699219 298.789062 C 264.351562 298.789062 272.035156 295.886719 277.871094 290.050781 C 278.222656 289.699219 278.222656 289.140625 277.871094 288.789062 C 277.519531 288.4375 276.933594 288.4375 276.609375 288.789062 Z M 276.609375 288.789062 " fill-opacity="1" fill-rule="nonzero"/><path fill="#8e00ff" d="M 242.09375 282.191406 C 241.742188 282.542969 241.742188 283.101562 242.09375 283.453125 C 246.113281 287.46875 251.390625 289.492188 256.699219 289.492188 C 262.007812 289.492188 267.253906 287.46875 271.273438 283.453125 C 271.625 283.101562 271.625 282.542969 271.273438 282.191406 C 270.921875 281.839844 270.363281 281.839844 270.011719 282.191406 C 262.652344 289.550781 250.6875 289.550781 243.355469 282.191406 C 243.003906 281.839844 242.445312 281.867188 242.09375 282.191406 Z M 242.09375 282.191406 " fill-opacity="1" fill-rule="nonzero"/><path fill="#8e00ff" d="M 153.390625 231.578125 C 150.546875 231.578125 148.230469 233.894531 148.230469 236.738281 C 148.230469 239.289062 150.078125 241.3125 152.511719 241.753906 L 152.511719 253.71875 L 97.324219 253.71875 C 96.855469 251.136719 94.683594 249.113281 91.957031 249.113281 C 88.90625 249.113281 86.445312 251.578125 86.445312 254.628906 C 86.445312 257.675781 88.90625 260.167969 91.957031 260.167969 C 94.714844 260.167969 96.882812 258.117188 97.324219 255.507812 L 153.390625 255.507812 C 153.859375 255.507812 154.269531 255.097656 154.269531 254.628906 L 154.269531 241.753906 C 156.703125 241.34375 158.582031 239.289062 158.582031 236.738281 C 158.582031 233.894531 156.265625 231.578125 153.390625 231.578125 Z M 153.390625 231.578125 " fill-opacity="1" fill-rule="nonzero"/><path fill="#8e00ff" d="M 255.820312 269.464844 C 255.820312 269.964844 256.199219 270.34375 256.699219 270.34375 C 257.195312 270.34375 257.578125 269.964844 257.578125 269.464844 L 257.578125 254.628906 C 257.578125 254.15625 257.195312 253.746094 256.699219 253.746094 L 196.144531 253.746094 L 196.144531 241.753906 C 198.578125 241.34375 200.457031 239.289062 200.457031 236.738281 C 200.457031 233.894531 198.140625 231.578125 195.265625 231.578125 C 192.421875 231.578125 190.074219 233.894531 190.074219 236.738281 C 190.074219 239.289062 191.953125 241.3125 194.355469 241.753906 L 194.355469 254.628906 C 194.355469 255.125 194.765625 255.535156 195.265625 255.535156 L 255.820312 255.535156 Z M 255.820312 269.464844 " fill-opacity="1" fill-rule="nonzero"/><path fill="#8e00ff" d="M 356.78125 147.242188 C 355.460938 147.242188 354.199219 147.769531 353.261719 148.710938 C 352.910156 149.0625 352.910156 149.617188 353.261719 149.96875 C 353.4375 150.148438 353.671875 150.234375 353.878906 150.234375 C 354.113281 150.234375 354.316406 150.148438 354.492188 149.96875 C 355.109375 149.355469 355.902344 149.03125 356.75 149.03125 C 357.601562 149.03125 358.394531 149.355469 359.007812 149.96875 C 359.359375 150.324219 359.917969 150.324219 360.269531 149.96875 C 360.621094 149.617188 360.621094 149.0625 360.269531 148.710938 C 359.359375 147.742188 358.128906 147.242188 356.78125 147.242188 Z M 356.78125 147.242188 " fill-opacity="1" fill-rule="nonzero"/><path fill="#8e00ff" d="M 347.691406 143.726562 C 352.703125 138.710938 360.855469 138.710938 365.871094 143.726562 C 366.046875 143.902344 366.28125 143.988281 366.488281 143.988281 C 366.722656 143.988281 366.925781 143.902344 367.101562 143.726562 C 367.453125 143.371094 367.453125 142.816406 367.101562 142.464844 C 364.347656 139.707031 360.679688 138.183594 356.75 138.183594 C 352.851562 138.183594 349.1875 139.707031 346.398438 142.464844 C 346.046875 142.816406 346.046875 143.371094 346.398438 143.726562 C 346.753906 144.078125 347.367188 144.046875 347.691406 143.726562 Z M 347.691406 143.726562 " fill-opacity="1" fill-rule="nonzero"/><path fill="#8e00ff" d="M 363.378906 147.066406 C 363.613281 147.066406 363.816406 146.980469 363.996094 146.804688 C 364.347656 146.453125 364.347656 145.894531 363.996094 145.542969 C 360.007812 141.554688 353.527344 141.554688 349.539062 145.542969 C 349.1875 145.894531 349.1875 146.453125 349.539062 146.804688 C 349.890625 147.15625 350.445312 147.15625 350.796875 146.804688 C 354.082031 143.488281 359.449219 143.488281 362.734375 146.804688 C 362.9375 147.007812 363.171875 147.066406 363.378906 147.066406 Z M 363.378906 147.066406 " fill-opacity="1" fill-rule="nonzero"/><g clip-path="url(#87e1b8bb7d)"><path fill="#8e00ff" d="M 372.761719 174.425781 L 369.183594 162.519531 C 369.066406 162.140625 368.714844 161.875 368.335938 161.875 L 357.660156 161.875 L 357.660156 152.171875 C 357.660156 151.671875 357.25 151.289062 356.78125 151.289062 C 356.3125 151.289062 355.902344 151.671875 355.902344 152.171875 L 355.902344 161.875 L 345.402344 161.875 C 345.023438 161.875 344.671875 162.140625 344.550781 162.492188 L 340.800781 174.398438 C 340.769531 174.457031 340.769531 174.71875 340.769531 174.808594 L 341.589844 179.46875 C 341.679688 179.882812 342.03125 180.203125 342.46875 180.203125 L 371.265625 180.203125 C 371.707031 180.203125 372.085938 179.882812 372.144531 179.441406 L 372.792969 174.777344 C 372.820312 174.71875 372.792969 174.484375 372.761719 174.425781 Z M 346.078125 163.636719 L 355.929688 163.636719 L 355.929688 166.625 C 355.929688 167.125 356.339844 167.507812 356.808594 167.507812 C 357.277344 167.507812 357.691406 167.125 357.691406 166.625 L 357.691406 163.636719 L 367.6875 163.636719 L 370.738281 173.78125 L 342.882812 173.78125 Z M 370.503906 178.445312 L 343.234375 178.445312 L 342.734375 175.570312 L 370.914062 175.570312 Z M 370.503906 178.445312 " fill-opacity="1" fill-rule="nonzero"/></g><path fill="#8e00ff" d="M 182.625 46.28125 L 162.804688 46.28125 C 162.421875 44.140625 160.808594 42.5 158.667969 42.117188 L 158.667969 36.253906 L 178.816406 36.253906 C 179.3125 36.253906 179.695312 35.871094 179.695312 35.375 L 179.695312 8.894531 C 179.695312 8.425781 179.3125 8.015625 178.816406 8.015625 L 161.925781 8.015625 L 161.925781 1.210938 C 161.925781 0.710938 161.542969 0.332031 161.042969 0.332031 L 135.679688 0.332031 C 135.179688 0.332031 134.769531 0.710938 134.769531 1.210938 L 134.769531 35.375 C 134.769531 35.871094 135.179688 36.253906 135.679688 36.253906 L 156.878906 36.253906 L 156.878906 42.117188 C 154.738281 42.527344 153.128906 44.140625 152.746094 46.28125 L 134.15625 46.28125 C 133.65625 46.28125 133.273438 46.664062 133.273438 47.160156 C 133.273438 47.660156 133.65625 48.042969 134.15625 48.042969 L 152.746094 48.042969 C 153.128906 50.183594 154.769531 51.824219 156.910156 52.207031 L 156.910156 62.96875 C 154.5625 63.40625 152.746094 65.371094 152.746094 67.835938 C 152.746094 70.621094 155.003906 72.878906 157.789062 72.878906 C 160.546875 72.878906 162.804688 70.621094 162.804688 67.835938 C 162.804688 65.371094 161.015625 63.40625 158.667969 62.96875 L 158.667969 52.207031 C 160.808594 51.824219 162.421875 50.183594 162.804688 48.042969 L 182.625 48.042969 C 183.125 48.042969 183.507812 47.660156 183.507812 47.160156 C 183.507812 46.664062 183.125 46.28125 182.625 46.28125 Z M 136.558594 34.492188 L 136.558594 2.089844 L 160.164062 2.089844 L 160.164062 8.015625 L 154.503906 8.015625 C 154.035156 8.015625 153.625 8.425781 153.625 8.894531 C 153.625 9.390625 154.035156 9.804688 154.503906 9.804688 L 177.933594 9.804688 L 177.933594 34.492188 Z M 136.558594 34.492188 " fill-opacity="1" fill-rule="nonzero"/><path fill="#8e00ff" d="M 171.015625 16.078125 L 142.660156 16.078125 C 142.160156 16.078125 141.777344 16.460938 141.777344 16.957031 C 141.777344 17.457031 142.1875 17.835938 142.660156 17.835938 L 171.015625 17.835938 C 171.511719 17.835938 171.894531 17.457031 171.894531 16.957031 C 171.894531 16.460938 171.511719 16.078125 171.015625 16.078125 Z M 171.015625 16.078125 " fill-opacity="1" fill-rule="nonzero"/><path fill="#8e00ff" d="M 171.015625 21.914062 L 142.660156 21.914062 C 142.160156 21.914062 141.777344 22.292969 141.777344 22.792969 C 141.777344 23.292969 142.1875 23.671875 142.660156 23.671875 L 171.015625 23.671875 C 171.511719 23.671875 171.894531 23.292969 171.894531 22.792969 C 171.894531 22.292969 171.511719 21.914062 171.015625 21.914062 Z M 171.015625 21.914062 " fill-opacity="1" fill-rule="nonzero"/><path fill="#8e00ff" d="M 171.015625 27.71875 L 142.660156 27.71875 C 142.160156 27.71875 141.777344 28.101562 141.777344 28.597656 C 141.777344 29.097656 142.1875 29.480469 142.660156 29.480469 L 171.015625 29.480469 C 171.511719 29.480469 171.894531 29.097656 171.894531 28.597656 C 171.894531 28.101562 171.511719 27.71875 171.015625 27.71875 Z M 171.015625 27.71875 " fill-opacity="1" fill-rule="nonzero"/><path fill="#8e00ff" d="M 21.875 175.71875 C 21.375 175.71875 20.992188 176.097656 20.992188 176.597656 L 20.992188 181.667969 C 20.992188 182.167969 21.40625 182.550781 21.875 182.550781 C 22.371094 182.550781 22.753906 182.167969 22.753906 181.667969 L 22.753906 176.597656 C 22.753906 176.097656 22.371094 175.71875 21.875 175.71875 Z M 21.875 175.71875 " fill-opacity="1" fill-rule="nonzero"/><path fill="#8e00ff" d="M 21.875 156.128906 C 21.375 156.128906 20.992188 156.511719 20.992188 157.007812 L 20.992188 173.105469 C 20.992188 173.605469 21.40625 173.988281 21.875 173.988281 C 22.371094 173.988281 22.753906 173.605469 22.753906 173.105469 L 22.753906 157.007812 C 22.753906 156.539062 22.371094 156.128906 21.875 156.128906 Z M 21.875 156.128906 " fill-opacity="1" fill-rule="nonzero"/><g clip-path="url(#ce6874e040)"><path fill="#8e00ff" d="M 49.703125 104.019531 C 49.703125 100.472656 47.152344 97.304688 43.542969 96.191406 C 43.574219 95.925781 43.601562 95.664062 43.601562 95.398438 C 43.601562 90.824219 39.554688 87.128906 34.542969 87.128906 C 33.046875 87.128906 31.636719 87.453125 30.378906 88.097656 C 29.085938 84.929688 25.804688 82.789062 22.019531 82.789062 C 18.089844 82.789062 14.71875 85.046875 13.515625 88.363281 C 8.707031 88.539062 4.867188 92.171875 4.867188 96.628906 C 4.867188 97.1875 4.925781 97.746094 5.070312 98.242188 C 3.398438 99.769531 2.460938 101.820312 2.460938 104.019531 C 2.460938 108.59375 6.507812 112.347656 11.523438 112.347656 C 11.609375 112.347656 40.523438 112.347656 40.730469 112.347656 C 45.683594 112.347656 49.703125 108.59375 49.703125 104.019531 Z M 40.730469 110.558594 C 40.496094 110.558594 11.699219 110.558594 11.523438 110.558594 C 7.503906 110.558594 4.25 107.628906 4.25 104.019531 C 4.25 102.171875 5.128906 100.441406 6.65625 99.242188 C 6.976562 99.007812 7.066406 98.566406 6.917969 98.214844 C 6.714844 97.746094 6.625 97.21875 6.625 96.628906 C 6.625 93.230469 9.585938 90.503906 13.222656 90.207031 C 13.253906 92.40625 14.074219 94.605469 15.628906 96.160156 C 17.210938 97.773438 19.46875 98.683594 21.757812 98.683594 C 22.136719 98.683594 22.519531 98.652344 22.898438 98.59375 C 23.398438 98.535156 23.722656 98.066406 23.664062 97.597656 C 23.605469 97.101562 23.132812 96.746094 22.664062 96.835938 C 20.613281 97.128906 18.382812 96.394531 16.917969 94.902344 C 15.511719 93.464844 14.835938 91.382812 15.070312 89.386719 C 15.863281 86.542969 18.675781 84.550781 22.019531 84.550781 C 25.421875 84.550781 28.296875 86.632812 29.027344 89.621094 C 29.085938 89.886719 29.292969 90.121094 29.585938 90.238281 C 29.851562 90.355469 30.171875 90.324219 30.40625 90.148438 C 31.609375 89.328125 33.015625 88.917969 34.570312 88.917969 C 38.589844 88.917969 41.84375 91.820312 41.84375 95.398438 C 41.84375 95.808594 41.753906 96.21875 41.695312 96.628906 C 41.578125 97.453125 42.136719 97.65625 42.371094 97.714844 C 45.597656 98.390625 47.972656 101.027344 47.972656 104.019531 C 47.941406 107.628906 44.6875 110.558594 40.730469 110.558594 Z M 40.730469 110.558594 " fill-opacity="1" fill-rule="nonzero"/></g><path fill="#ffffff" d="M 239.691406 209.085938 L 219.105469 209.085938 C 218.957031 208.355469 218.34375 207.796875 217.582031 207.796875 L 207.992188 207.796875 L 207.992188 201.875 C 207.992188 201.109375 207.433594 200.496094 206.703125 200.347656 L 206.703125 190.144531 C 206.703125 189.265625 205.996094 188.5625 205.117188 188.5625 C 204.238281 188.5625 203.535156 189.265625 203.535156 190.144531 L 203.535156 200.289062 L 195.851562 200.289062 L 195.851562 190.144531 C 195.851562 189.265625 195.148438 188.5625 194.269531 188.5625 C 193.386719 188.5625 192.683594 189.265625 192.683594 190.144531 L 192.683594 200.347656 C 191.953125 200.496094 191.394531 201.113281 191.394531 201.875 L 191.394531 207.796875 L 180.957031 207.796875 C 180.164062 207.796875 179.546875 208.355469 179.429688 209.085938 L 159.695312 209.085938 C 158.816406 209.085938 158.113281 209.792969 158.113281 210.671875 L 158.113281 220.023438 C 158.113281 220.90625 158.816406 221.609375 159.695312 221.609375 L 179.429688 221.609375 C 179.578125 222.339844 180.191406 222.898438 180.957031 222.898438 L 217.609375 222.898438 C 218.402344 222.898438 218.988281 222.339844 219.136719 221.609375 L 239.71875 221.609375 C 240.601562 221.609375 241.304688 220.90625 241.304688 220.023438 L 241.304688 210.671875 C 241.304688 209.792969 240.570312 209.085938 239.691406 209.085938 Z M 161.25 212.285156 L 179.3125 212.285156 L 179.3125 218.441406 L 161.25 218.441406 Z M 238.105469 218.441406 L 219.164062 218.441406 L 219.164062 212.285156 L 238.105469 212.285156 Z M 238.105469 218.441406 " fill-opacity="1" fill-rule="nonzero"/><path fill="#ffffff" d="M 246.140625 102.289062 C 246.464844 102.671875 246.933594 102.875 247.375 102.875 C 247.726562 102.875 248.078125 102.757812 248.371094 102.523438 C 249.046875 101.96875 249.164062 100.96875 248.605469 100.265625 C 247.226562 98.566406 245.703125 96.894531 244.148438 95.3125 C 243.53125 94.695312 242.507812 94.695312 241.890625 95.3125 C 241.273438 95.925781 241.273438 96.953125 241.890625 97.570312 C 243.386719 99.066406 244.824219 100.648438 246.140625 102.289062 Z M 246.140625 102.289062 " fill-opacity="1" fill-rule="nonzero"/><path fill="#ffffff" d="M 153.949219 178.210938 C 153.390625 177.535156 152.363281 177.445312 151.691406 178.003906 C 151.015625 178.5625 150.925781 179.585938 151.484375 180.261719 C 152.628906 181.640625 153.890625 182.988281 155.179688 184.28125 C 155.503906 184.601562 155.914062 184.75 156.324219 184.75 C 156.734375 184.75 157.144531 184.601562 157.46875 184.28125 C 158.082031 183.664062 158.082031 182.636719 157.46875 182.023438 C 156.207031 180.789062 155.03125 179.527344 153.949219 178.210938 Z M 153.949219 178.210938 " fill-opacity="1" fill-rule="nonzero"/><path fill="#ffffff" d="M 154.710938 100.558594 L 154.210938 104.285156 C 154.09375 105.164062 154.710938 105.957031 155.589844 106.074219 C 155.648438 106.074219 155.738281 106.074219 155.796875 106.074219 C 156.585938 106.074219 157.261719 105.488281 157.378906 104.695312 L 158.492188 96.367188 C 158.550781 95.898438 158.40625 95.457031 158.113281 95.105469 C 157.820312 94.753906 157.378906 94.546875 156.910156 94.546875 L 147.996094 94.546875 C 147.117188 94.546875 146.410156 95.253906 146.410156 96.132812 C 146.410156 97.011719 147.117188 97.714844 147.996094 97.714844 L 152.949219 97.714844 C 133.742188 119.0625 131.308594 150.996094 147.527344 174.984375 C 147.847656 175.453125 148.347656 175.6875 148.847656 175.6875 C 149.167969 175.6875 149.460938 175.601562 149.726562 175.421875 C 150.457031 174.925781 150.664062 173.929688 150.164062 173.195312 C 134.945312 150.734375 137.027344 120.792969 154.710938 100.558594 Z M 154.710938 100.558594 " fill-opacity="1" fill-rule="nonzero"/><path fill="#ffffff" d="M 201.277344 90.941406 L 201.277344 115.808594 C 207.699219 115.71875 213.886719 115.074219 219.574219 113.992188 C 215.675781 100.96875 208.988281 92.054688 201.277344 90.941406 Z M 201.277344 90.941406 " fill-opacity="1" fill-rule="nonzero"/><path fill="#ffffff" d="M 219.574219 165.628906 C 213.886719 164.515625 207.699219 163.898438 201.277344 163.8125 L 201.277344 188.679688 C 208.988281 187.5625 215.675781 178.621094 219.574219 165.628906 Z M 219.574219 165.628906 " fill-opacity="1" fill-rule="nonzero"/><path fill="#ffffff" d="M 220.394531 117.070312 C 214.441406 118.242188 207.960938 118.917969 201.246094 119.003906 L 201.246094 138.210938 L 223.0625 138.210938 C 222.945312 130.585938 222.007812 123.433594 220.394531 117.070312 Z M 220.394531 117.070312 " fill-opacity="1" fill-rule="nonzero"/><path fill="#ffffff" d="M 223.0625 141.40625 L 201.246094 141.40625 L 201.246094 160.613281 C 207.960938 160.703125 214.414062 161.378906 220.394531 162.550781 C 222.007812 156.1875 222.945312 149.003906 223.0625 141.40625 Z M 223.0625 141.40625 " fill-opacity="1" fill-rule="nonzero"/><path fill="#ffffff" d="M 222.710938 113.316406 C 228.136719 112.054688 232.976562 110.324219 237.082031 108.214844 C 230.335938 100.238281 221.097656 94.460938 210.601562 92.054688 C 215.703125 96.453125 219.925781 103.902344 222.710938 113.316406 Z M 222.710938 113.316406 " fill-opacity="1" fill-rule="nonzero"/><path fill="#ffffff" d="M 226.261719 138.210938 L 248.605469 138.210938 C 248.28125 127.976562 244.792969 118.507812 239.074219 110.765625 C 234.675781 113.109375 229.398438 115.015625 223.535156 116.394531 C 225.203125 122.964844 226.144531 130.324219 226.261719 138.210938 Z M 226.261719 138.210938 " fill-opacity="1" fill-rule="nonzero"/><path fill="#ffffff" d="M 210.574219 187.5625 C 221.070312 185.160156 230.308594 179.382812 237.050781 171.40625 C 232.945312 169.296875 228.109375 167.566406 222.683594 166.304688 C 219.925781 175.6875 215.703125 183.136719 210.574219 187.5625 Z M 210.574219 187.5625 " fill-opacity="1" fill-rule="nonzero"/><path fill="#ffffff" d="M 248.605469 141.40625 L 226.261719 141.40625 C 226.144531 149.265625 225.175781 156.65625 223.535156 163.226562 C 229.398438 164.601562 234.675781 166.507812 239.074219 168.855469 C 244.792969 161.113281 248.28125 151.640625 248.605469 141.40625 Z M 248.605469 141.40625 " fill-opacity="1" fill-rule="nonzero"/><path fill="#ffffff" d="M 198.082031 119.003906 C 191.363281 118.917969 184.914062 118.242188 178.933594 117.070312 C 177.320312 123.433594 176.378906 130.617188 176.261719 138.210938 L 198.082031 138.210938 Z M 198.082031 119.003906 " fill-opacity="1" fill-rule="nonzero"/><path fill="#ffffff" d="M 175.792969 163.226562 C 174.152344 156.65625 173.183594 149.296875 173.066406 141.40625 L 150.722656 141.40625 C 151.046875 151.640625 154.535156 161.113281 160.253906 168.855469 C 164.652344 166.507812 169.929688 164.601562 175.792969 163.226562 Z M 175.792969 163.226562 " fill-opacity="1" fill-rule="nonzero"/><path fill="#ffffff" d="M 188.753906 92.054688 C 178.257812 94.460938 169.019531 100.238281 162.277344 108.214844 C 166.382812 110.324219 171.21875 112.054688 176.644531 113.316406 C 179.402344 103.902344 183.625 96.453125 188.753906 92.054688 Z M 188.753906 92.054688 " fill-opacity="1" fill-rule="nonzero"/><path fill="#ffffff" d="M 173.066406 138.210938 C 173.183594 130.351562 174.152344 122.964844 175.792969 116.394531 C 169.929688 115.015625 164.652344 113.109375 160.253906 110.765625 C 154.535156 118.507812 151.046875 127.949219 150.722656 138.210938 Z M 173.066406 138.210938 " fill-opacity="1" fill-rule="nonzero"/><path fill="#ffffff" d="M 162.277344 171.40625 C 169.019531 179.382812 178.257812 185.160156 188.753906 187.5625 C 183.625 183.164062 179.402344 175.71875 176.617188 166.304688 C 171.21875 167.566406 166.382812 169.296875 162.277344 171.40625 Z M 162.277344 171.40625 " fill-opacity="1" fill-rule="nonzero"/><path fill="#ffffff" d="M 198.082031 188.679688 L 198.082031 163.8125 C 191.660156 163.898438 185.472656 164.515625 179.78125 165.628906 C 183.652344 178.621094 190.367188 187.5625 198.082031 188.679688 Z M 198.082031 188.679688 " fill-opacity="1" fill-rule="nonzero"/><path fill="#ffffff" d="M 198.082031 115.808594 L 198.082031 90.941406 C 190.367188 92.027344 183.652344 100.96875 179.78125 113.960938 C 185.472656 115.074219 191.660156 115.71875 198.082031 115.808594 Z M 198.082031 115.808594 " fill-opacity="1" fill-rule="nonzero"/><path fill="#ffffff" d="M 198.082031 141.40625 L 176.261719 141.40625 C 176.378906 149.03125 177.320312 156.1875 178.933594 162.550781 C 184.914062 161.378906 191.363281 160.703125 198.082031 160.613281 Z M 198.082031 141.40625 " fill-opacity="1" fill-rule="nonzero"/><path fill="#ffffff" d="M 250.246094 182.695312 L 245.613281 182.695312 C 264.996094 161.90625 268.078125 130.03125 252.738281 105.984375 C 252.269531 105.25 251.273438 105.015625 250.539062 105.488281 C 249.808594 105.957031 249.574219 106.953125 250.042969 107.6875 C 264.558594 130.441406 261.683594 160.554688 243.472656 180.292969 L 244.03125 176.15625 C 244.148438 175.277344 243.53125 174.484375 242.652344 174.367188 C 241.773438 174.222656 240.980469 174.867188 240.863281 175.746094 L 239.75 184.074219 C 239.691406 184.542969 239.835938 184.984375 240.128906 185.335938 C 240.425781 185.6875 240.863281 185.890625 241.332031 185.890625 L 250.246094 185.890625 C 251.128906 185.890625 251.832031 185.1875 251.832031 184.308594 C 251.859375 183.398438 251.128906 182.695312 250.246094 182.695312 Z M 250.246094 182.695312 " fill-opacity="1" fill-rule="nonzero"/></svg>