<svg xmlns="http://www.w3.org/2000/svg" xmlns:xlink="http://www.w3.org/1999/xlink" width="500" zoomAndPan="magnify" viewBox="0 0 375 374.999991" height="500" preserveAspectRatio="xMidYMid meet" version="1.0"><defs><clipPath id="e0b11287e6"><path d="M 22.160156 0 L 352.910156 0 L 352.910156 375 L 22.160156 375 Z M 22.160156 0 " clip-rule="nonzero"/></clipPath><clipPath id="bbd5b00181"><path d="M 22.160156 0 L 352.910156 0 L 352.910156 375 L 22.160156 375 Z M 22.160156 0 " clip-rule="nonzero"/></clipPath></defs><path fill="#ffffff" d="M 114.949219 52.828125 C 114.949219 51.964844 114.910156 51.105469 114.824219 50.25 C 114.738281 49.390625 114.613281 48.542969 114.445312 47.695312 C 114.277344 46.851562 114.066406 46.015625 113.816406 45.191406 C 113.566406 44.367188 113.277344 43.558594 112.949219 42.761719 C 112.617188 41.964844 112.25 41.1875 111.84375 40.429688 C 111.4375 39.667969 110.996094 38.929688 110.519531 38.214844 C 110.039062 37.5 109.527344 36.808594 108.980469 36.140625 C 108.433594 35.476562 107.855469 34.835938 107.246094 34.226562 C 106.636719 33.621094 106 33.042969 105.335938 32.496094 C 104.667969 31.949219 103.976562 31.4375 103.261719 30.957031 C 102.542969 30.480469 101.804688 30.035156 101.046875 29.628906 C 100.285156 29.222656 99.507812 28.855469 98.714844 28.527344 C 97.917969 28.195312 97.105469 27.90625 96.28125 27.65625 C 95.457031 27.40625 94.625 27.199219 93.777344 27.03125 C 92.933594 26.863281 92.082031 26.734375 91.226562 26.652344 C 90.367188 26.566406 89.507812 26.523438 88.648438 26.523438 C 87.785156 26.523438 86.925781 26.566406 86.070312 26.652344 C 85.210938 26.734375 84.359375 26.863281 83.515625 27.03125 C 82.671875 27.199219 81.835938 27.40625 81.011719 27.65625 C 80.1875 27.90625 79.378906 28.195312 78.582031 28.527344 C 77.785156 28.855469 77.007812 29.222656 76.25 29.628906 C 75.488281 30.035156 74.75 30.480469 74.035156 30.957031 C 73.316406 31.4375 72.625 31.949219 71.960938 32.496094 C 71.296875 33.042969 70.65625 33.621094 70.046875 34.226562 C 69.4375 34.835938 68.859375 35.476562 68.316406 36.140625 C 67.769531 36.808594 67.253906 37.5 66.777344 38.214844 C 66.296875 38.929688 65.855469 39.667969 65.449219 40.429688 C 65.042969 41.1875 64.675781 41.964844 64.347656 42.761719 C 64.015625 43.558594 63.726562 44.367188 63.476562 45.191406 C 63.226562 46.015625 63.019531 46.851562 62.851562 47.695312 C 62.679688 48.542969 62.554688 49.390625 62.472656 50.25 C 62.386719 51.105469 62.34375 51.964844 62.34375 52.828125 C 62.34375 53.6875 62.386719 54.546875 62.472656 55.40625 C 62.554688 56.261719 62.679688 57.113281 62.851562 57.960938 C 63.019531 58.804688 63.226562 59.640625 63.476562 60.464844 C 63.726562 61.289062 64.015625 62.097656 64.347656 62.894531 C 64.675781 63.691406 65.042969 64.46875 65.449219 65.226562 C 65.855469 65.988281 66.296875 66.726562 66.777344 67.441406 C 67.253906 68.15625 67.769531 68.847656 68.316406 69.515625 C 68.859375 70.179688 69.4375 70.816406 70.046875 71.425781 C 70.65625 72.035156 71.296875 72.613281 71.960938 73.160156 C 72.625 73.707031 73.316406 74.21875 74.035156 74.699219 C 74.75 75.175781 75.488281 75.617188 76.25 76.023438 C 77.007812 76.429688 77.785156 76.800781 78.582031 77.128906 C 79.378906 77.457031 80.1875 77.75 81.011719 78 C 81.835938 78.25 82.671875 78.457031 83.515625 78.625 C 84.359375 78.792969 85.210938 78.921875 86.070312 79.003906 C 86.925781 79.089844 87.785156 79.132812 88.648438 79.132812 C 89.507812 79.128906 90.367188 79.085938 91.226562 79 C 92.082031 78.914062 92.933594 78.789062 93.777344 78.621094 C 94.621094 78.453125 95.457031 78.242188 96.277344 77.992188 C 97.101562 77.742188 97.914062 77.449219 98.707031 77.121094 C 99.503906 76.789062 100.28125 76.421875 101.039062 76.015625 C 101.800781 75.609375 102.535156 75.167969 103.253906 74.6875 C 103.96875 74.210938 104.660156 73.695312 105.324219 73.148438 C 105.992188 72.605469 106.628906 72.027344 107.238281 71.417969 C 107.847656 70.808594 108.421875 70.171875 108.96875 69.503906 C 109.515625 68.839844 110.027344 68.148438 110.507812 67.433594 C 110.984375 66.71875 111.429688 65.980469 111.835938 65.21875 C 112.242188 64.460938 112.609375 63.683594 112.941406 62.886719 C 113.269531 62.09375 113.558594 61.285156 113.8125 60.460938 C 114.0625 59.636719 114.269531 58.800781 114.441406 57.957031 C 114.609375 57.113281 114.734375 56.261719 114.820312 55.40625 C 114.90625 54.546875 114.949219 53.6875 114.949219 52.828125 Z M 75.875 52.828125 C 75.875 51.980469 75.957031 51.144531 76.121094 50.316406 C 76.285156 49.484375 76.53125 48.679688 76.855469 47.898438 C 77.179688 47.117188 77.574219 46.375 78.042969 45.671875 C 78.515625 44.96875 79.046875 44.320312 79.644531 43.722656 C 80.246094 43.125 80.894531 42.589844 81.597656 42.121094 C 82.300781 41.652344 83.042969 41.253906 83.824219 40.929688 C 84.605469 40.609375 85.410156 40.363281 86.242188 40.199219 C 87.070312 40.035156 87.910156 39.953125 88.753906 39.953125 C 89.597656 39.953125 90.4375 40.035156 91.265625 40.203125 C 92.09375 40.367188 92.902344 40.613281 93.679688 40.9375 C 94.460938 41.261719 95.203125 41.65625 95.90625 42.128906 C 96.609375 42.597656 97.261719 43.132812 97.859375 43.730469 C 98.457031 44.328125 98.988281 44.980469 99.457031 45.683594 C 99.925781 46.386719 100.324219 47.128906 100.648438 47.910156 C 100.96875 48.691406 101.214844 49.496094 101.378906 50.328125 C 101.542969 51.15625 101.625 51.992188 101.621094 52.839844 C 101.621094 53.683594 101.539062 54.523438 101.375 55.351562 C 101.207031 56.179688 100.960938 56.984375 100.636719 57.765625 C 100.3125 58.546875 99.917969 59.289062 99.445312 59.992188 C 98.976562 60.695312 98.441406 61.34375 97.84375 61.941406 C 97.242188 62.539062 96.59375 63.070312 95.890625 63.539062 C 95.183594 64.011719 94.441406 64.40625 93.660156 64.726562 C 92.878906 65.050781 92.074219 65.292969 91.246094 65.457031 C 90.414062 65.621094 89.578125 65.703125 88.730469 65.703125 C 87.886719 65.699219 87.050781 65.617188 86.222656 65.449219 C 85.394531 65.28125 84.59375 65.039062 83.8125 64.714844 C 83.03125 64.390625 82.292969 63.992188 81.589844 63.523438 C 80.890625 63.050781 80.238281 62.519531 79.644531 61.921875 C 79.046875 61.324219 78.515625 60.671875 78.046875 59.972656 C 77.574219 59.269531 77.179688 58.527344 76.855469 57.75 C 76.53125 56.96875 76.289062 56.164062 76.125 55.335938 C 75.957031 54.507812 75.875 53.671875 75.875 52.828125 Z M 75.875 52.828125 " fill-opacity="1" fill-rule="nonzero"/><path fill="#ffffff" d="M 154.765625 64.324219 L 199.515625 64.324219 C 199.957031 64.324219 200.394531 64.28125 200.828125 64.195312 C 201.261719 64.109375 201.679688 63.984375 202.085938 63.816406 C 202.496094 63.644531 202.882812 63.4375 203.246094 63.195312 C 203.613281 62.949219 203.953125 62.671875 204.265625 62.359375 C 204.578125 62.046875 204.855469 61.707031 205.101562 61.34375 C 205.34375 60.976562 205.550781 60.589844 205.722656 60.179688 C 205.890625 59.773438 206.015625 59.355469 206.101562 58.921875 C 206.1875 58.488281 206.230469 58.050781 206.230469 57.613281 C 206.230469 57.171875 206.1875 56.734375 206.101562 56.300781 C 206.015625 55.871094 205.890625 55.449219 205.722656 55.042969 C 205.550781 54.636719 205.34375 54.246094 205.101562 53.882812 C 204.855469 53.515625 204.578125 53.175781 204.265625 52.863281 C 203.953125 52.550781 203.613281 52.273438 203.246094 52.027344 C 202.882812 51.785156 202.496094 51.578125 202.085938 51.410156 C 201.679688 51.238281 201.261719 51.113281 200.828125 51.027344 C 200.394531 50.941406 199.957031 50.898438 199.515625 50.898438 L 154.765625 50.898438 C 154.324219 50.898438 153.890625 50.941406 153.457031 51.027344 C 153.023438 51.113281 152.605469 51.238281 152.195312 51.410156 C 151.789062 51.578125 151.402344 51.785156 151.035156 52.027344 C 150.667969 52.273438 150.332031 52.550781 150.019531 52.863281 C 149.707031 53.175781 149.429688 53.515625 149.183594 53.882812 C 148.9375 54.246094 148.730469 54.636719 148.5625 55.042969 C 148.394531 55.449219 148.265625 55.871094 148.179688 56.300781 C 148.09375 56.734375 148.050781 57.171875 148.050781 57.613281 C 148.050781 58.050781 148.09375 58.488281 148.179688 58.921875 C 148.265625 59.355469 148.394531 59.773438 148.5625 60.179688 C 148.730469 60.589844 148.9375 60.976562 149.183594 61.34375 C 149.429688 61.707031 149.707031 62.046875 150.019531 62.359375 C 150.332031 62.671875 150.667969 62.949219 151.035156 63.195312 C 151.402344 63.4375 151.789062 63.644531 152.195312 63.816406 C 152.605469 63.984375 153.023438 64.109375 153.457031 64.195312 C 153.890625 64.28125 154.324219 64.324219 154.765625 64.324219 Z M 154.765625 64.324219 " fill-opacity="1" fill-rule="nonzero"/><path fill="#ffffff" d="M 236.363281 64.324219 L 281.128906 64.324219 C 281.570312 64.324219 282.007812 64.28125 282.441406 64.195312 C 282.871094 64.109375 283.292969 63.984375 283.699219 63.816406 C 284.105469 63.644531 284.492188 63.4375 284.859375 63.195312 C 285.226562 62.949219 285.566406 62.671875 285.878906 62.359375 C 286.1875 62.046875 286.46875 61.707031 286.710938 61.34375 C 286.957031 60.976562 287.164062 60.589844 287.332031 60.179688 C 287.5 59.773438 287.628906 59.355469 287.714844 58.921875 C 287.800781 58.488281 287.84375 58.050781 287.84375 57.613281 C 287.84375 57.171875 287.800781 56.734375 287.714844 56.300781 C 287.628906 55.871094 287.5 55.449219 287.332031 55.042969 C 287.164062 54.636719 286.957031 54.246094 286.710938 53.882812 C 286.46875 53.515625 286.1875 53.175781 285.878906 52.863281 C 285.566406 52.550781 285.226562 52.273438 284.859375 52.027344 C 284.492188 51.785156 284.105469 51.578125 283.699219 51.410156 C 283.292969 51.238281 282.871094 51.113281 282.441406 51.027344 C 282.007812 50.941406 281.570312 50.898438 281.128906 50.898438 L 236.363281 50.898438 C 235.921875 50.898438 235.484375 50.941406 235.050781 51.027344 C 234.621094 51.113281 234.199219 51.238281 233.792969 51.410156 C 233.386719 51.578125 233 51.785156 232.632812 52.027344 C 232.265625 52.273438 231.925781 52.550781 231.613281 52.863281 C 231.304688 53.175781 231.023438 53.515625 230.78125 53.882812 C 230.535156 54.246094 230.328125 54.636719 230.160156 55.042969 C 229.992188 55.449219 229.863281 55.871094 229.777344 56.300781 C 229.691406 56.734375 229.648438 57.171875 229.648438 57.613281 C 229.648438 58.050781 229.691406 58.488281 229.777344 58.921875 C 229.863281 59.355469 229.992188 59.773438 230.160156 60.179688 C 230.328125 60.589844 230.535156 60.976562 230.78125 61.34375 C 231.023438 61.707031 231.304688 62.046875 231.613281 62.359375 C 231.925781 62.671875 232.265625 62.949219 232.632812 63.195312 C 233 63.4375 233.386719 63.644531 233.792969 63.816406 C 234.199219 63.984375 234.621094 64.109375 235.050781 64.195312 C 235.484375 64.28125 235.921875 64.324219 236.363281 64.324219 Z M 236.363281 64.324219 " fill-opacity="1" fill-rule="nonzero"/><path fill="#ffffff" d="M 114.949219 182.714844 C 114.949219 181.855469 114.910156 180.996094 114.824219 180.136719 C 114.738281 179.28125 114.613281 178.429688 114.445312 177.585938 C 114.277344 176.738281 114.066406 175.90625 113.816406 175.082031 C 113.566406 174.257812 113.277344 173.445312 112.949219 172.648438 C 112.617188 171.855469 112.25 171.078125 111.84375 170.316406 C 111.4375 169.558594 110.996094 168.820312 110.519531 168.101562 C 110.039062 167.386719 109.527344 166.695312 108.980469 166.03125 C 108.433594 165.363281 107.855469 164.726562 107.246094 164.117188 C 106.636719 163.507812 106 162.929688 105.335938 162.382812 C 104.667969 161.835938 103.976562 161.324219 103.261719 160.84375 C 102.542969 160.367188 101.804688 159.925781 101.046875 159.519531 C 100.285156 159.113281 99.507812 158.746094 98.714844 158.414062 C 97.917969 158.085938 97.105469 157.796875 96.28125 157.546875 C 95.457031 157.296875 94.625 157.085938 93.777344 156.917969 C 92.933594 156.75 92.082031 156.625 91.226562 156.539062 C 90.367188 156.453125 89.507812 156.414062 88.648438 156.414062 C 87.785156 156.414062 86.925781 156.453125 86.070312 156.539062 C 85.210938 156.625 84.359375 156.75 83.515625 156.917969 C 82.671875 157.085938 81.835938 157.296875 81.011719 157.546875 C 80.1875 157.796875 79.378906 158.085938 78.582031 158.414062 C 77.785156 158.746094 77.007812 159.113281 76.25 159.519531 C 75.488281 159.925781 74.75 160.367188 74.035156 160.84375 C 73.316406 161.324219 72.625 161.835938 71.960938 162.382812 C 71.296875 162.929688 70.65625 163.507812 70.046875 164.117188 C 69.4375 164.726562 68.859375 165.363281 68.316406 166.03125 C 67.769531 166.695312 67.253906 167.386719 66.777344 168.101562 C 66.296875 168.820312 65.855469 169.558594 65.449219 170.316406 C 65.042969 171.078125 64.675781 171.855469 64.347656 172.648438 C 64.015625 173.445312 63.726562 174.257812 63.476562 175.082031 C 63.226562 175.90625 63.019531 176.738281 62.851562 177.585938 C 62.679688 178.429688 62.554688 179.28125 62.472656 180.136719 C 62.386719 180.996094 62.34375 181.855469 62.34375 182.714844 C 62.34375 183.578125 62.386719 184.4375 62.472656 185.292969 C 62.554688 186.152344 62.679688 187.003906 62.851562 187.847656 C 63.019531 188.691406 63.226562 189.527344 63.476562 190.351562 C 63.726562 191.175781 64.015625 191.984375 64.347656 192.78125 C 64.675781 193.578125 65.042969 194.355469 65.449219 195.117188 C 65.855469 195.875 66.296875 196.613281 66.777344 197.328125 C 67.253906 198.046875 67.769531 198.738281 68.316406 199.402344 C 68.859375 200.070312 69.4375 200.707031 70.046875 201.316406 C 70.65625 201.925781 71.296875 202.503906 71.960938 203.046875 C 72.625 203.59375 73.316406 204.109375 74.035156 204.585938 C 74.75 205.066406 75.488281 205.507812 76.25 205.914062 C 77.007812 206.320312 77.785156 206.6875 78.582031 207.015625 C 79.378906 207.347656 80.1875 207.636719 81.011719 207.886719 C 81.835938 208.136719 82.671875 208.347656 83.515625 208.515625 C 84.359375 208.683594 85.210938 208.808594 86.070312 208.894531 C 86.925781 208.976562 87.785156 209.019531 88.648438 209.019531 C 89.507812 209.019531 90.367188 208.976562 91.226562 208.890625 C 92.082031 208.804688 92.933594 208.675781 93.777344 208.507812 C 94.621094 208.339844 95.457031 208.128906 96.277344 207.878906 C 97.101562 207.628906 97.914062 207.339844 98.707031 207.007812 C 99.503906 206.679688 100.28125 206.308594 101.039062 205.902344 C 101.800781 205.496094 102.535156 205.054688 103.253906 204.574219 C 103.96875 204.097656 104.660156 203.585938 105.324219 203.039062 C 105.992188 202.492188 106.628906 201.914062 107.238281 201.304688 C 107.847656 200.695312 108.421875 200.058594 108.96875 199.394531 C 109.515625 198.726562 110.027344 198.039062 110.507812 197.320312 C 110.984375 196.605469 111.429688 195.867188 111.835938 195.109375 C 112.242188 194.347656 112.609375 193.570312 112.941406 192.777344 C 113.269531 191.980469 113.558594 191.171875 113.8125 190.347656 C 114.0625 189.523438 114.269531 188.691406 114.441406 187.84375 C 114.609375 187 114.734375 186.148438 114.820312 185.292969 C 114.90625 184.4375 114.949219 183.578125 114.949219 182.714844 Z M 75.789062 182.714844 C 75.789062 181.871094 75.871094 181.03125 76.039062 180.203125 C 76.203125 179.375 76.445312 178.570312 76.769531 177.789062 C 77.09375 177.007812 77.492188 176.265625 77.960938 175.5625 C 78.429688 174.859375 78.964844 174.207031 79.5625 173.609375 C 80.160156 173.011719 80.8125 172.480469 81.515625 172.007812 C 82.21875 171.539062 82.960938 171.144531 83.742188 170.820312 C 84.523438 170.496094 85.328125 170.253906 86.15625 170.085938 C 86.988281 169.921875 87.824219 169.839844 88.667969 169.839844 C 89.515625 169.839844 90.351562 169.925781 91.183594 170.089844 C 92.011719 170.253906 92.816406 170.5 93.597656 170.824219 C 94.378906 171.148438 95.121094 171.546875 95.824219 172.015625 C 96.527344 172.484375 97.175781 173.019531 97.773438 173.617188 C 98.371094 174.214844 98.90625 174.867188 99.375 175.570312 C 99.84375 176.273438 100.238281 177.015625 100.5625 177.796875 C 100.886719 178.578125 101.128906 179.386719 101.292969 180.214844 C 101.457031 181.042969 101.539062 181.882812 101.539062 182.726562 C 101.539062 183.574219 101.453125 184.410156 101.289062 185.238281 C 101.125 186.070312 100.878906 186.875 100.554688 187.65625 C 100.230469 188.433594 99.832031 189.175781 99.363281 189.878906 C 98.890625 190.582031 98.355469 191.234375 97.757812 191.828125 C 97.160156 192.425781 96.507812 192.960938 95.804688 193.429688 C 95.101562 193.898438 94.359375 194.292969 93.578125 194.617188 C 92.796875 194.9375 91.988281 195.183594 91.160156 195.347656 C 90.332031 195.511719 89.492188 195.59375 88.648438 195.589844 C 87.808594 195.582031 86.976562 195.492188 86.152344 195.324219 C 85.328125 195.152344 84.527344 194.90625 83.753906 194.578125 C 82.980469 194.25 82.242188 193.851562 81.546875 193.382812 C 80.851562 192.910156 80.207031 192.375 79.613281 191.78125 C 79.019531 191.183594 78.492188 190.535156 78.027344 189.832031 C 77.5625 189.132812 77.167969 188.394531 76.847656 187.617188 C 76.527344 186.839844 76.285156 186.039062 76.121094 185.214844 C 75.957031 184.390625 75.875 183.558594 75.875 182.714844 Z M 75.789062 182.714844 " fill-opacity="1" fill-rule="nonzero"/><path fill="#ffffff" d="M 154.765625 194.214844 L 199.515625 194.214844 C 199.957031 194.214844 200.394531 194.171875 200.828125 194.085938 C 201.261719 194 201.679688 193.871094 202.085938 193.703125 C 202.496094 193.535156 202.882812 193.328125 203.246094 193.082031 C 203.613281 192.835938 203.953125 192.558594 204.265625 192.246094 C 204.578125 191.9375 204.855469 191.597656 205.101562 191.230469 C 205.34375 190.863281 205.550781 190.476562 205.722656 190.070312 C 205.890625 189.660156 206.015625 189.242188 206.101562 188.808594 C 206.1875 188.378906 206.230469 187.941406 206.230469 187.5 C 206.230469 187.058594 206.1875 186.621094 206.101562 186.191406 C 206.015625 185.757812 205.890625 185.335938 205.722656 184.929688 C 205.550781 184.523438 205.34375 184.136719 205.101562 183.769531 C 204.855469 183.402344 204.578125 183.0625 204.265625 182.753906 C 203.953125 182.441406 203.613281 182.164062 203.246094 181.917969 C 202.882812 181.671875 202.496094 181.464844 202.085938 181.296875 C 201.679688 181.128906 201.261719 181 200.828125 180.914062 C 200.394531 180.828125 199.957031 180.785156 199.515625 180.785156 L 154.765625 180.785156 C 154.324219 180.785156 153.890625 180.828125 153.457031 180.914062 C 153.023438 181 152.605469 181.128906 152.195312 181.296875 C 151.789062 181.464844 151.402344 181.671875 151.035156 181.917969 C 150.667969 182.164062 150.332031 182.441406 150.019531 182.753906 C 149.707031 183.0625 149.429688 183.402344 149.183594 183.769531 C 148.9375 184.136719 148.730469 184.523438 148.5625 184.929688 C 148.394531 185.335938 148.265625 185.757812 148.179688 186.191406 C 148.09375 186.621094 148.050781 187.058594 148.050781 187.5 C 148.050781 187.941406 148.09375 188.378906 148.179688 188.808594 C 148.265625 189.242188 148.394531 189.660156 148.5625 190.070312 C 148.730469 190.476562 148.9375 190.863281 149.183594 191.230469 C 149.429688 191.597656 149.707031 191.9375 150.019531 192.246094 C 150.332031 192.558594 150.667969 192.835938 151.035156 193.082031 C 151.402344 193.328125 151.789062 193.535156 152.195312 193.703125 C 152.605469 193.871094 153.023438 194 153.457031 194.085938 C 153.890625 194.171875 154.324219 194.214844 154.765625 194.214844 Z M 154.765625 194.214844 " fill-opacity="1" fill-rule="nonzero"/><path fill="#ffffff" d="M 236.363281 194.214844 L 281.128906 194.214844 C 281.570312 194.214844 282.007812 194.171875 282.441406 194.085938 C 282.871094 194 283.292969 193.871094 283.699219 193.703125 C 284.105469 193.535156 284.492188 193.328125 284.859375 193.082031 C 285.226562 192.835938 285.566406 192.558594 285.878906 192.246094 C 286.1875 191.9375 286.46875 191.597656 286.710938 191.230469 C 286.957031 190.863281 287.164062 190.476562 287.332031 190.070312 C 287.5 189.660156 287.628906 189.242188 287.714844 188.808594 C 287.800781 188.378906 287.84375 187.941406 287.84375 187.5 C 287.84375 187.058594 287.800781 186.621094 287.714844 186.191406 C 287.628906 185.757812 287.5 185.335938 287.332031 184.929688 C 287.164062 184.523438 286.957031 184.136719 286.710938 183.769531 C 286.46875 183.402344 286.1875 183.0625 285.878906 182.753906 C 285.566406 182.441406 285.226562 182.164062 284.859375 181.917969 C 284.492188 181.671875 284.105469 181.464844 283.699219 181.296875 C 283.292969 181.128906 282.871094 181 282.441406 180.914062 C 282.007812 180.828125 281.570312 180.785156 281.128906 180.785156 L 236.363281 180.785156 C 235.921875 180.785156 235.484375 180.828125 235.050781 180.914062 C 234.621094 181 234.199219 181.128906 233.792969 181.296875 C 233.386719 181.464844 233 181.671875 232.632812 181.917969 C 232.265625 182.164062 231.925781 182.441406 231.613281 182.753906 C 231.304688 183.0625 231.023438 183.402344 230.78125 183.769531 C 230.535156 184.136719 230.328125 184.523438 230.160156 184.929688 C 229.992188 185.335938 229.863281 185.757812 229.777344 186.191406 C 229.691406 186.621094 229.648438 187.058594 229.648438 187.5 C 229.648438 187.941406 229.691406 188.378906 229.777344 188.808594 C 229.863281 189.242188 229.992188 189.660156 230.160156 190.070312 C 230.328125 190.476562 230.535156 190.863281 230.78125 191.230469 C 231.023438 191.597656 231.304688 191.9375 231.613281 192.246094 C 231.925781 192.558594 232.265625 192.835938 232.632812 193.082031 C 233 193.328125 233.386719 193.535156 233.792969 193.703125 C 234.199219 193.871094 234.621094 194 235.050781 194.085938 C 235.484375 194.171875 235.921875 194.214844 236.363281 194.214844 Z M 236.363281 194.214844 " fill-opacity="1" fill-rule="nonzero"/><g clip-path="url(#e0b11287e6)"><path fill="#ffffff" d="M 28.875 374.660156 L 346.125 374.660156 C 346.566406 374.660156 347 374.617188 347.433594 374.53125 C 347.867188 374.445312 348.285156 374.320312 348.695312 374.148438 C 349.101562 373.980469 349.488281 373.773438 349.855469 373.53125 C 350.222656 373.285156 350.558594 373.007812 350.871094 372.695312 C 351.183594 372.382812 351.460938 372.042969 351.707031 371.675781 C 351.953125 371.3125 352.160156 370.921875 352.328125 370.515625 C 352.496094 370.109375 352.625 369.6875 352.710938 369.257812 C 352.796875 368.824219 352.839844 368.386719 352.839844 367.945312 L 352.839844 266.828125 C 352.839844 266.386719 352.796875 265.953125 352.710938 265.519531 C 352.625 265.085938 352.496094 264.667969 352.328125 264.261719 C 352.160156 263.851562 351.953125 263.464844 351.707031 263.097656 C 351.460938 262.734375 351.183594 262.394531 350.871094 262.082031 C 350.558594 261.769531 350.222656 261.492188 349.855469 261.246094 C 349.488281 261 349.101562 260.796875 348.695312 260.625 C 348.285156 260.457031 347.867188 260.332031 347.433594 260.246094 C 347 260.160156 346.566406 260.113281 346.125 260.113281 L 287.84375 260.113281 L 287.84375 244.773438 L 346.125 244.773438 C 346.566406 244.773438 347 244.730469 347.433594 244.644531 C 347.867188 244.558594 348.285156 244.429688 348.695312 244.261719 C 349.101562 244.09375 349.488281 243.886719 349.855469 243.640625 C 350.222656 243.394531 350.558594 243.117188 350.871094 242.804688 C 351.183594 242.496094 351.460938 242.15625 351.707031 241.789062 C 351.953125 241.421875 352.160156 241.035156 352.328125 240.628906 C 352.496094 240.222656 352.625 239.800781 352.710938 239.367188 C 352.796875 238.9375 352.839844 238.5 352.839844 238.058594 L 352.839844 136.941406 C 352.839844 136.5 352.796875 136.0625 352.710938 135.632812 C 352.625 135.199219 352.496094 134.777344 352.328125 134.371094 C 352.160156 133.964844 351.953125 133.578125 351.707031 133.210938 C 351.460938 132.84375 351.183594 132.503906 350.871094 132.195312 C 350.558594 131.882812 350.222656 131.601562 349.855469 131.359375 C 349.488281 131.113281 349.101562 130.90625 348.695312 130.738281 C 348.285156 130.570312 347.867188 130.441406 347.433594 130.355469 C 347 130.269531 346.566406 130.226562 346.125 130.226562 L 287.84375 130.226562 L 287.84375 114.882812 L 346.125 114.882812 C 346.566406 114.882812 347 114.839844 347.433594 114.753906 C 347.867188 114.667969 348.285156 114.542969 348.695312 114.375 C 349.101562 114.203125 349.488281 114 349.855469 113.753906 C 350.222656 113.507812 350.558594 113.230469 350.871094 112.917969 C 351.183594 112.605469 351.460938 112.265625 351.707031 111.902344 C 351.953125 111.535156 352.160156 111.148438 352.328125 110.738281 C 352.496094 110.332031 352.625 109.914062 352.710938 109.480469 C 352.796875 109.046875 352.839844 108.609375 352.839844 108.171875 L 352.839844 7.054688 C 352.839844 6.613281 352.796875 6.175781 352.710938 5.742188 C 352.625 5.3125 352.496094 4.890625 352.328125 4.484375 C 352.160156 4.078125 351.953125 3.6875 351.707031 3.324219 C 351.460938 2.957031 351.183594 2.617188 350.871094 2.304688 C 350.558594 1.992188 350.222656 1.714844 349.855469 1.46875 C 349.488281 1.226562 349.101562 1.019531 348.695312 0.851562 C 348.285156 0.679688 347.867188 0.554688 347.433594 0.46875 C 347 0.382812 346.566406 0.339844 346.125 0.339844 L 28.875 0.339844 C 28.433594 0.339844 27.996094 0.382812 27.5625 0.46875 C 27.132812 0.554688 26.710938 0.679688 26.304688 0.851562 C 25.898438 1.019531 25.507812 1.226562 25.144531 1.46875 C 24.777344 1.714844 24.4375 1.992188 24.125 2.304688 C 23.8125 2.617188 23.535156 2.957031 23.289062 3.324219 C 23.046875 3.6875 22.839844 4.078125 22.671875 4.484375 C 22.5 4.890625 22.375 5.3125 22.289062 5.742188 C 22.203125 6.175781 22.160156 6.613281 22.160156 7.054688 L 22.160156 108.171875 C 22.160156 108.609375 22.203125 109.046875 22.289062 109.480469 C 22.375 109.914062 22.5 110.332031 22.671875 110.738281 C 22.839844 111.148438 23.046875 111.535156 23.289062 111.902344 C 23.535156 112.265625 23.8125 112.605469 24.125 112.917969 C 24.4375 113.230469 24.777344 113.507812 25.144531 113.753906 C 25.507812 114 25.898438 114.203125 26.304688 114.375 C 26.710938 114.542969 27.132812 114.667969 27.5625 114.753906 C 27.996094 114.839844 28.433594 114.882812 28.875 114.882812 L 81.933594 114.882812 L 81.933594 130.226562 L 28.875 130.226562 C 28.433594 130.226562 27.996094 130.269531 27.5625 130.355469 C 27.132812 130.441406 26.710938 130.570312 26.304688 130.738281 C 25.898438 130.90625 25.507812 131.113281 25.144531 131.359375 C 24.777344 131.601562 24.4375 131.882812 24.125 132.195312 C 23.8125 132.503906 23.535156 132.84375 23.289062 133.210938 C 23.046875 133.578125 22.839844 133.964844 22.671875 134.371094 C 22.5 134.777344 22.375 135.199219 22.289062 135.632812 C 22.203125 136.0625 22.160156 136.5 22.160156 136.941406 L 22.160156 238.058594 C 22.160156 238.5 22.203125 238.9375 22.289062 239.367188 C 22.375 239.800781 22.5 240.222656 22.671875 240.628906 C 22.839844 241.035156 23.046875 241.421875 23.289062 241.789062 C 23.535156 242.15625 23.8125 242.496094 24.125 242.804688 C 24.4375 243.117188 24.777344 243.394531 25.144531 243.640625 C 25.507812 243.886719 25.898438 244.09375 26.304688 244.261719 C 26.710938 244.429688 27.132812 244.558594 27.5625 244.644531 C 27.996094 244.730469 28.433594 244.773438 28.875 244.773438 L 81.933594 244.773438 L 81.933594 260.113281 L 28.875 260.113281 C 28.433594 260.113281 27.996094 260.160156 27.5625 260.246094 C 27.132812 260.332031 26.710938 260.457031 26.304688 260.625 C 25.898438 260.796875 25.507812 261 25.144531 261.246094 C 24.777344 261.492188 24.4375 261.769531 24.125 262.082031 C 23.8125 262.394531 23.535156 262.734375 23.289062 263.097656 C 23.046875 263.464844 22.839844 263.851562 22.671875 264.261719 C 22.5 264.667969 22.375 265.085938 22.289062 265.519531 C 22.203125 265.953125 22.160156 266.386719 22.160156 266.828125 L 22.160156 367.945312 C 22.160156 368.386719 22.203125 368.824219 22.289062 369.257812 C 22.375 369.6875 22.5 370.109375 22.671875 370.515625 C 22.839844 370.921875 23.046875 371.3125 23.289062 371.675781 C 23.535156 372.042969 23.8125 372.382812 24.125 372.695312 C 24.4375 373.007812 24.777344 373.285156 25.144531 373.53125 C 25.507812 373.773438 25.898438 373.980469 26.304688 374.148438 C 26.710938 374.320312 27.132812 374.445312 27.5625 374.53125 C 27.996094 374.617188 28.433594 374.660156 28.875 374.660156 Z M 35.585938 13.765625 L 339.410156 13.765625 L 339.410156 101.457031 L 35.585938 101.457031 Z M 95.363281 114.882812 L 274.414062 114.882812 L 274.414062 130.226562 L 95.363281 130.226562 Z M 35.585938 143.65625 L 339.410156 143.65625 L 339.410156 231.34375 L 35.585938 231.34375 Z M 95.363281 244.773438 L 274.414062 244.773438 L 274.414062 260.113281 L 95.363281 260.113281 Z M 35.585938 273.542969 L 339.410156 273.542969 L 339.410156 361.234375 L 35.585938 361.234375 Z M 35.585938 273.542969 " fill-opacity="1" fill-rule="nonzero"/></g><path fill="#ffffff" d="M 88.648438 286.316406 C 87.785156 286.316406 86.925781 286.359375 86.066406 286.445312 C 85.210938 286.527344 84.359375 286.65625 83.511719 286.824219 C 82.667969 286.992188 81.832031 287.203125 81.007812 287.453125 C 80.183594 287.703125 79.371094 287.992188 78.578125 288.320312 C 77.78125 288.652344 77.003906 289.019531 76.242188 289.425781 C 75.480469 289.832031 74.742188 290.277344 74.027344 290.753906 C 73.3125 291.234375 72.621094 291.746094 71.953125 292.292969 C 71.289062 292.839844 70.648438 293.421875 70.039062 294.03125 C 69.429688 294.640625 68.851562 295.277344 68.308594 295.945312 C 67.761719 296.609375 67.246094 297.300781 66.769531 298.019531 C 66.289062 298.738281 65.847656 299.476562 65.441406 300.234375 C 65.035156 300.996094 64.667969 301.773438 64.339844 302.570312 C 64.011719 303.367188 63.722656 304.179688 63.472656 305.003906 C 63.222656 305.828125 63.011719 306.664062 62.847656 307.507812 C 62.679688 308.355469 62.550781 309.207031 62.46875 310.0625 C 62.386719 310.921875 62.34375 311.78125 62.34375 312.644531 C 62.34375 313.503906 62.386719 314.367188 62.472656 315.222656 C 62.558594 316.082031 62.6875 316.933594 62.855469 317.777344 C 63.023438 318.621094 63.234375 319.457031 63.484375 320.28125 C 63.734375 321.105469 64.027344 321.917969 64.355469 322.710938 C 64.6875 323.507812 65.058594 324.285156 65.464844 325.046875 C 65.871094 325.804688 66.316406 326.542969 66.792969 327.261719 C 67.273438 327.976562 67.789062 328.667969 68.335938 329.332031 C 68.882812 330 69.460938 330.636719 70.070312 331.242188 C 70.683594 331.851562 71.320312 332.429688 71.988281 332.976562 C 72.65625 333.523438 73.347656 334.035156 74.066406 334.511719 C 74.78125 334.988281 75.519531 335.429688 76.28125 335.835938 C 77.042969 336.242188 77.820312 336.609375 78.617188 336.9375 C 79.414062 337.265625 80.226562 337.554688 81.050781 337.804688 C 81.875 338.050781 82.710938 338.261719 83.558594 338.425781 C 84.402344 338.59375 85.253906 338.71875 86.113281 338.800781 C 86.96875 338.886719 87.832031 338.925781 88.691406 338.925781 C 89.554688 338.921875 90.414062 338.878906 91.273438 338.792969 C 92.128906 338.707031 92.980469 338.578125 93.824219 338.410156 C 94.671875 338.238281 95.503906 338.027344 96.328125 337.777344 C 97.152344 337.527344 97.964844 337.234375 98.761719 336.902344 C 99.554688 336.570312 100.332031 336.203125 101.09375 335.792969 C 101.851562 335.386719 102.589844 334.941406 103.304688 334.460938 C 104.019531 333.980469 104.710938 333.46875 105.375 332.917969 C 106.042969 332.371094 106.679688 331.792969 107.285156 331.179688 C 107.894531 330.570312 108.472656 329.929688 109.015625 329.261719 C 109.5625 328.597656 110.074219 327.902344 110.550781 327.183594 C 111.027344 326.46875 111.46875 325.726562 111.875 324.96875 C 112.277344 324.207031 112.644531 323.425781 112.972656 322.628906 C 113.300781 321.832031 113.589844 321.023438 113.835938 320.195312 C 114.085938 319.371094 114.292969 318.535156 114.457031 317.6875 C 114.625 316.84375 114.75 315.992188 114.832031 315.132812 C 114.914062 314.277344 114.953125 313.414062 114.949219 312.554688 C 114.949219 311.695312 114.90625 310.835938 114.816406 309.980469 C 114.730469 309.125 114.605469 308.273438 114.433594 307.433594 C 114.265625 306.589844 114.054688 305.757812 113.800781 304.933594 C 113.550781 304.109375 113.261719 303.304688 112.929688 302.507812 C 112.597656 301.714844 112.230469 300.9375 111.824219 300.179688 C 111.417969 299.421875 110.972656 298.6875 110.496094 297.972656 C 110.015625 297.257812 109.503906 296.570312 108.957031 295.90625 C 108.410156 295.242188 107.832031 294.605469 107.222656 294 C 106.613281 293.390625 105.976562 292.816406 105.3125 292.269531 C 104.644531 291.726562 103.957031 291.214844 103.238281 290.738281 C 102.523438 290.257812 101.789062 289.820312 101.027344 289.414062 C 100.269531 289.007812 99.492188 288.640625 98.699219 288.3125 C 97.902344 287.984375 97.09375 287.695312 96.269531 287.445312 C 95.449219 287.199219 94.613281 286.988281 93.769531 286.820312 C 92.925781 286.652344 92.078125 286.527344 91.222656 286.445312 C 90.367188 286.359375 89.507812 286.316406 88.648438 286.316406 Z M 88.648438 325.480469 C 87.804688 325.480469 86.964844 325.398438 86.136719 325.230469 C 85.308594 325.066406 84.503906 324.824219 83.722656 324.5 C 82.945312 324.175781 82.203125 323.78125 81.5 323.3125 C 80.796875 322.84375 80.148438 322.3125 79.550781 321.714844 C 78.953125 321.117188 78.417969 320.46875 77.949219 319.765625 C 77.480469 319.0625 77.082031 318.324219 76.757812 317.542969 C 76.433594 316.761719 76.1875 315.957031 76.023438 315.128906 C 75.859375 314.300781 75.773438 313.464844 75.773438 312.621094 C 75.773438 311.777344 75.851562 310.941406 76.015625 310.109375 C 76.179688 309.28125 76.421875 308.476562 76.746094 307.695312 C 77.066406 306.914062 77.460938 306.171875 77.929688 305.46875 C 78.398438 304.765625 78.929688 304.117188 79.527344 303.519531 C 80.121094 302.917969 80.769531 302.386719 81.472656 301.914062 C 82.171875 301.445312 82.914062 301.046875 83.695312 300.722656 C 84.472656 300.394531 85.277344 300.148438 86.105469 299.984375 C 86.933594 299.816406 87.769531 299.730469 88.613281 299.730469 C 89.457031 299.726562 90.296875 299.808594 91.125 299.96875 C 91.953125 300.132812 92.757812 300.375 93.539062 300.695312 C 94.320312 301.015625 95.0625 301.410156 95.765625 301.878906 C 96.472656 302.34375 97.121094 302.875 97.722656 303.472656 C 98.320312 304.066406 98.855469 304.714844 99.328125 305.414062 C 99.800781 306.117188 100.199219 306.855469 100.523438 307.636719 C 100.851562 308.414062 101.097656 309.21875 101.265625 310.046875 C 101.433594 310.875 101.519531 311.710938 101.523438 312.554688 C 101.523438 313.402344 101.445312 314.242188 101.28125 315.070312 C 101.117188 315.902344 100.875 316.710938 100.550781 317.492188 C 100.230469 318.277344 99.832031 319.023438 99.363281 319.726562 C 98.894531 320.433594 98.363281 321.085938 97.765625 321.683594 C 97.167969 322.285156 96.515625 322.820312 95.8125 323.292969 C 95.109375 323.765625 94.367188 324.164062 93.582031 324.488281 C 92.800781 324.816406 91.996094 325.0625 91.164062 325.226562 C 90.332031 325.394531 89.496094 325.476562 88.648438 325.480469 Z M 88.648438 325.480469 " fill-opacity="1" fill-rule="nonzero"/><path fill="#ffffff" d="M 199.433594 310.675781 L 154.765625 310.675781 C 154.324219 310.675781 153.890625 310.71875 153.457031 310.804688 C 153.023438 310.890625 152.605469 311.015625 152.195312 311.183594 C 151.789062 311.355469 151.402344 311.5625 151.035156 311.804688 C 150.667969 312.050781 150.332031 312.328125 150.019531 312.640625 C 149.707031 312.953125 149.429688 313.292969 149.183594 313.65625 C 148.9375 314.023438 148.730469 314.410156 148.5625 314.820312 C 148.394531 315.226562 148.265625 315.644531 148.179688 316.078125 C 148.09375 316.511719 148.050781 316.949219 148.050781 317.386719 C 148.050781 317.828125 148.09375 318.265625 148.179688 318.699219 C 148.265625 319.128906 148.394531 319.550781 148.5625 319.957031 C 148.730469 320.363281 148.9375 320.753906 149.183594 321.117188 C 149.429688 321.484375 149.707031 321.824219 150.019531 322.136719 C 150.332031 322.449219 150.667969 322.726562 151.035156 322.972656 C 151.402344 323.214844 151.789062 323.421875 152.195312 323.589844 C 152.605469 323.761719 153.023438 323.886719 153.457031 323.972656 C 153.890625 324.058594 154.324219 324.101562 154.765625 324.101562 L 199.515625 324.101562 C 199.957031 324.101562 200.394531 324.058594 200.828125 323.972656 C 201.261719 323.886719 201.679688 323.761719 202.085938 323.589844 C 202.496094 323.421875 202.882812 323.214844 203.246094 322.972656 C 203.613281 322.726562 203.953125 322.449219 204.265625 322.136719 C 204.578125 321.824219 204.855469 321.484375 205.101562 321.117188 C 205.34375 320.753906 205.550781 320.363281 205.722656 319.957031 C 205.890625 319.550781 206.015625 319.128906 206.101562 318.699219 C 206.1875 318.265625 206.230469 317.828125 206.230469 317.386719 C 206.230469 316.949219 206.1875 316.511719 206.101562 316.078125 C 206.015625 315.644531 205.890625 315.226562 205.722656 314.820312 C 205.550781 314.410156 205.34375 314.023438 205.101562 313.65625 C 204.855469 313.292969 204.578125 312.953125 204.265625 312.640625 C 203.953125 312.328125 203.613281 312.050781 203.246094 311.804688 C 202.882812 311.5625 202.496094 311.355469 202.085938 311.183594 C 201.679688 311.015625 201.261719 310.890625 200.828125 310.804688 C 200.394531 310.71875 199.957031 310.675781 199.515625 310.675781 Z M 199.433594 310.675781 " fill-opacity="1" fill-rule="nonzero"/><path fill="#ffffff" d="M 281.128906 310.675781 L 236.363281 310.675781 C 235.921875 310.675781 235.484375 310.71875 235.050781 310.804688 C 234.621094 310.890625 234.199219 311.015625 233.792969 311.183594 C 233.386719 311.355469 233 311.5625 232.632812 311.804688 C 232.265625 312.050781 231.925781 312.328125 231.613281 312.640625 C 231.304688 312.953125 231.023438 313.292969 230.78125 313.65625 C 230.535156 314.023438 230.328125 314.410156 230.160156 314.820312 C 229.992188 315.226562 229.863281 315.644531 229.777344 316.078125 C 229.691406 316.511719 229.648438 316.949219 229.648438 317.386719 C 229.648438 317.828125 229.691406 318.265625 229.777344 318.699219 C 229.863281 319.128906 229.992188 319.550781 230.160156 319.957031 C 230.328125 320.363281 230.535156 320.753906 230.78125 321.117188 C 231.023438 321.484375 231.304688 321.824219 231.613281 322.136719 C 231.925781 322.449219 232.265625 322.726562 232.632812 322.972656 C 233 323.214844 233.386719 323.421875 233.792969 323.589844 C 234.199219 323.761719 234.621094 323.886719 235.050781 323.972656 C 235.484375 324.058594 235.921875 324.101562 236.363281 324.101562 L 281.128906 324.101562 C 281.570312 324.101562 282.007812 324.058594 282.441406 323.972656 C 282.871094 323.886719 283.292969 323.761719 283.699219 323.589844 C 284.105469 323.421875 284.492188 323.214844 284.859375 322.972656 C 285.226562 322.726562 285.566406 322.449219 285.878906 322.136719 C 286.1875 321.824219 286.46875 321.484375 286.710938 321.117188 C 286.957031 320.753906 287.164062 320.363281 287.332031 319.957031 C 287.5 319.550781 287.628906 319.128906 287.714844 318.699219 C 287.800781 318.265625 287.84375 317.828125 287.84375 317.386719 C 287.84375 316.949219 287.800781 316.511719 287.714844 316.078125 C 287.628906 315.644531 287.5 315.226562 287.332031 314.820312 C 287.164062 314.410156 286.957031 314.023438 286.710938 313.65625 C 286.46875 313.292969 286.1875 312.953125 285.878906 312.640625 C 285.566406 312.328125 285.226562 312.050781 284.859375 311.804688 C 284.492188 311.5625 284.105469 311.355469 283.699219 311.183594 C 283.292969 311.015625 282.871094 310.890625 282.441406 310.804688 C 282.007812 310.71875 281.570312 310.675781 281.128906 310.675781 Z M 281.128906 310.675781 " fill-opacity="1" fill-rule="nonzero"/><path fill="#ffffff" d="M 114.949219 52.828125 C 114.949219 51.964844 114.910156 51.105469 114.824219 50.25 C 114.738281 49.390625 114.613281 48.542969 114.445312 47.695312 C 114.277344 46.851562 114.066406 46.015625 113.816406 45.191406 C 113.566406 44.367188 113.277344 43.558594 112.949219 42.761719 C 112.617188 41.964844 112.25 41.1875 111.84375 40.429688 C 111.4375 39.667969 110.996094 38.929688 110.519531 38.214844 C 110.039062 37.5 109.527344 36.808594 108.980469 36.140625 C 108.433594 35.476562 107.855469 34.835938 107.246094 34.226562 C 106.636719 33.621094 106 33.042969 105.335938 32.496094 C 104.667969 31.949219 103.976562 31.4375 103.261719 30.957031 C 102.542969 30.480469 101.804688 30.035156 101.046875 29.628906 C 100.285156 29.222656 99.507812 28.855469 98.714844 28.527344 C 97.917969 28.195312 97.105469 27.90625 96.28125 27.65625 C 95.457031 27.40625 94.625 27.199219 93.777344 27.03125 C 92.933594 26.863281 92.082031 26.734375 91.226562 26.652344 C 90.367188 26.566406 89.507812 26.523438 88.648438 26.523438 C 87.785156 26.523438 86.925781 26.566406 86.070312 26.652344 C 85.210938 26.734375 84.359375 26.863281 83.515625 27.03125 C 82.671875 27.199219 81.835938 27.40625 81.011719 27.65625 C 80.1875 27.90625 79.378906 28.195312 78.582031 28.527344 C 77.785156 28.855469 77.007812 29.222656 76.25 29.628906 C 75.488281 30.035156 74.75 30.480469 74.035156 30.957031 C 73.316406 31.4375 72.625 31.949219 71.960938 32.496094 C 71.296875 33.042969 70.65625 33.621094 70.046875 34.226562 C 69.4375 34.835938 68.859375 35.476562 68.316406 36.140625 C 67.769531 36.808594 67.253906 37.5 66.777344 38.214844 C 66.296875 38.929688 65.855469 39.667969 65.449219 40.429688 C 65.042969 41.1875 64.675781 41.964844 64.347656 42.761719 C 64.015625 43.558594 63.726562 44.367188 63.476562 45.191406 C 63.226562 46.015625 63.019531 46.851562 62.851562 47.695312 C 62.679688 48.542969 62.554688 49.390625 62.472656 50.25 C 62.386719 51.105469 62.34375 51.964844 62.34375 52.828125 C 62.34375 53.6875 62.386719 54.546875 62.472656 55.40625 C 62.554688 56.261719 62.679688 57.113281 62.851562 57.960938 C 63.019531 58.804688 63.226562 59.640625 63.476562 60.464844 C 63.726562 61.289062 64.015625 62.097656 64.347656 62.894531 C 64.675781 63.691406 65.042969 64.46875 65.449219 65.226562 C 65.855469 65.988281 66.296875 66.726562 66.777344 67.441406 C 67.253906 68.15625 67.769531 68.847656 68.316406 69.515625 C 68.859375 70.179688 69.4375 70.816406 70.046875 71.425781 C 70.65625 72.035156 71.296875 72.613281 71.960938 73.160156 C 72.625 73.707031 73.316406 74.21875 74.035156 74.699219 C 74.75 75.175781 75.488281 75.617188 76.25 76.023438 C 77.007812 76.429688 77.785156 76.800781 78.582031 77.128906 C 79.378906 77.457031 80.1875 77.75 81.011719 78 C 81.835938 78.25 82.671875 78.457031 83.515625 78.625 C 84.359375 78.792969 85.210938 78.921875 86.070312 79.003906 C 86.925781 79.089844 87.785156 79.132812 88.648438 79.132812 C 89.507812 79.128906 90.367188 79.085938 91.226562 79 C 92.082031 78.914062 92.933594 78.789062 93.777344 78.621094 C 94.621094 78.453125 95.457031 78.242188 96.277344 77.992188 C 97.101562 77.742188 97.914062 77.449219 98.707031 77.121094 C 99.503906 76.789062 100.28125 76.421875 101.039062 76.015625 C 101.800781 75.609375 102.535156 75.167969 103.253906 74.6875 C 103.96875 74.210938 104.660156 73.695312 105.324219 73.148438 C 105.992188 72.605469 106.628906 72.027344 107.238281 71.417969 C 107.847656 70.808594 108.421875 70.171875 108.96875 69.503906 C 109.515625 68.839844 110.027344 68.148438 110.507812 67.433594 C 110.984375 66.71875 111.429688 65.980469 111.835938 65.21875 C 112.242188 64.460938 112.609375 63.683594 112.941406 62.886719 C 113.269531 62.09375 113.558594 61.285156 113.8125 60.460938 C 114.0625 59.636719 114.269531 58.800781 114.441406 57.957031 C 114.609375 57.113281 114.734375 56.261719 114.820312 55.40625 C 114.90625 54.546875 114.949219 53.6875 114.949219 52.828125 Z M 75.875 52.828125 C 75.875 51.980469 75.957031 51.144531 76.121094 50.316406 C 76.285156 49.484375 76.53125 48.679688 76.855469 47.898438 C 77.179688 47.117188 77.574219 46.375 78.042969 45.671875 C 78.515625 44.96875 79.046875 44.320312 79.644531 43.722656 C 80.246094 43.125 80.894531 42.589844 81.597656 42.121094 C 82.300781 41.652344 83.042969 41.253906 83.824219 40.929688 C 84.605469 40.609375 85.410156 40.363281 86.242188 40.199219 C 87.070312 40.035156 87.910156 39.953125 88.753906 39.953125 C 89.597656 39.953125 90.4375 40.035156 91.265625 40.203125 C 92.09375 40.367188 92.902344 40.613281 93.679688 40.9375 C 94.460938 41.261719 95.203125 41.65625 95.90625 42.128906 C 96.609375 42.597656 97.261719 43.132812 97.859375 43.730469 C 98.457031 44.328125 98.988281 44.980469 99.457031 45.683594 C 99.925781 46.386719 100.324219 47.128906 100.648438 47.910156 C 100.96875 48.691406 101.214844 49.496094 101.378906 50.328125 C 101.542969 51.15625 101.625 51.992188 101.621094 52.839844 C 101.621094 53.683594 101.539062 54.523438 101.375 55.351562 C 101.207031 56.179688 100.960938 56.984375 100.636719 57.765625 C 100.3125 58.546875 99.917969 59.289062 99.445312 59.992188 C 98.976562 60.695312 98.441406 61.34375 97.84375 61.941406 C 97.242188 62.539062 96.59375 63.070312 95.890625 63.539062 C 95.183594 64.011719 94.441406 64.40625 93.660156 64.726562 C 92.878906 65.050781 92.074219 65.292969 91.246094 65.457031 C 90.414062 65.621094 89.578125 65.703125 88.730469 65.703125 C 87.886719 65.699219 87.050781 65.617188 86.222656 65.449219 C 85.394531 65.28125 84.59375 65.039062 83.8125 64.714844 C 83.03125 64.390625 82.292969 63.992188 81.589844 63.523438 C 80.890625 63.050781 80.238281 62.519531 79.644531 61.921875 C 79.046875 61.324219 78.515625 60.671875 78.046875 59.972656 C 77.574219 59.269531 77.179688 58.527344 76.855469 57.75 C 76.53125 56.96875 76.289062 56.164062 76.125 55.335938 C 75.957031 54.507812 75.875 53.671875 75.875 52.828125 Z M 75.875 52.828125 " fill-opacity="1" fill-rule="nonzero"/><path fill="#ffffff" d="M 154.765625 64.324219 L 199.515625 64.324219 C 199.957031 64.324219 200.394531 64.28125 200.828125 64.195312 C 201.261719 64.109375 201.679688 63.984375 202.085938 63.816406 C 202.496094 63.644531 202.882812 63.4375 203.246094 63.195312 C 203.613281 62.949219 203.953125 62.671875 204.265625 62.359375 C 204.578125 62.046875 204.855469 61.707031 205.101562 61.34375 C 205.34375 60.976562 205.550781 60.589844 205.722656 60.179688 C 205.890625 59.773438 206.015625 59.355469 206.101562 58.921875 C 206.1875 58.488281 206.230469 58.050781 206.230469 57.613281 C 206.230469 57.171875 206.1875 56.734375 206.101562 56.300781 C 206.015625 55.871094 205.890625 55.449219 205.722656 55.042969 C 205.550781 54.636719 205.34375 54.246094 205.101562 53.882812 C 204.855469 53.515625 204.578125 53.175781 204.265625 52.863281 C 203.953125 52.550781 203.613281 52.273438 203.246094 52.027344 C 202.882812 51.785156 202.496094 51.578125 202.085938 51.410156 C 201.679688 51.238281 201.261719 51.113281 200.828125 51.027344 C 200.394531 50.941406 199.957031 50.898438 199.515625 50.898438 L 154.765625 50.898438 C 154.324219 50.898438 153.890625 50.941406 153.457031 51.027344 C 153.023438 51.113281 152.605469 51.238281 152.195312 51.410156 C 151.789062 51.578125 151.402344 51.785156 151.035156 52.027344 C 150.667969 52.273438 150.332031 52.550781 150.019531 52.863281 C 149.707031 53.175781 149.429688 53.515625 149.183594 53.882812 C 148.9375 54.246094 148.730469 54.636719 148.5625 55.042969 C 148.394531 55.449219 148.265625 55.871094 148.179688 56.300781 C 148.09375 56.734375 148.050781 57.171875 148.050781 57.613281 C 148.050781 58.050781 148.09375 58.488281 148.179688 58.921875 C 148.265625 59.355469 148.394531 59.773438 148.5625 60.179688 C 148.730469 60.589844 148.9375 60.976562 149.183594 61.34375 C 149.429688 61.707031 149.707031 62.046875 150.019531 62.359375 C 150.332031 62.671875 150.667969 62.949219 151.035156 63.195312 C 151.402344 63.4375 151.789062 63.644531 152.195312 63.816406 C 152.605469 63.984375 153.023438 64.109375 153.457031 64.195312 C 153.890625 64.28125 154.324219 64.324219 154.765625 64.324219 Z M 154.765625 64.324219 " fill-opacity="1" fill-rule="nonzero"/><path fill="#ffffff" d="M 236.363281 64.324219 L 281.128906 64.324219 C 281.570312 64.324219 282.007812 64.28125 282.441406 64.195312 C 282.871094 64.109375 283.292969 63.984375 283.699219 63.816406 C 284.105469 63.644531 284.492188 63.4375 284.859375 63.195312 C 285.226562 62.949219 285.566406 62.671875 285.878906 62.359375 C 286.1875 62.046875 286.46875 61.707031 286.710938 61.34375 C 286.957031 60.976562 287.164062 60.589844 287.332031 60.179688 C 287.5 59.773438 287.628906 59.355469 287.714844 58.921875 C 287.800781 58.488281 287.84375 58.050781 287.84375 57.613281 C 287.84375 57.171875 287.800781 56.734375 287.714844 56.300781 C 287.628906 55.871094 287.5 55.449219 287.332031 55.042969 C 287.164062 54.636719 286.957031 54.246094 286.710938 53.882812 C 286.46875 53.515625 286.1875 53.175781 285.878906 52.863281 C 285.566406 52.550781 285.226562 52.273438 284.859375 52.027344 C 284.492188 51.785156 284.105469 51.578125 283.699219 51.410156 C 283.292969 51.238281 282.871094 51.113281 282.441406 51.027344 C 282.007812 50.941406 281.570312 50.898438 281.128906 50.898438 L 236.363281 50.898438 C 235.921875 50.898438 235.484375 50.941406 235.050781 51.027344 C 234.621094 51.113281 234.199219 51.238281 233.792969 51.410156 C 233.386719 51.578125 233 51.785156 232.632812 52.027344 C 232.265625 52.273438 231.925781 52.550781 231.613281 52.863281 C 231.304688 53.175781 231.023438 53.515625 230.78125 53.882812 C 230.535156 54.246094 230.328125 54.636719 230.160156 55.042969 C 229.992188 55.449219 229.863281 55.871094 229.777344 56.300781 C 229.691406 56.734375 229.648438 57.171875 229.648438 57.613281 C 229.648438 58.050781 229.691406 58.488281 229.777344 58.921875 C 229.863281 59.355469 229.992188 59.773438 230.160156 60.179688 C 230.328125 60.589844 230.535156 60.976562 230.78125 61.34375 C 231.023438 61.707031 231.304688 62.046875 231.613281 62.359375 C 231.925781 62.671875 232.265625 62.949219 232.632812 63.195312 C 233 63.4375 233.386719 63.644531 233.792969 63.816406 C 234.199219 63.984375 234.621094 64.109375 235.050781 64.195312 C 235.484375 64.28125 235.921875 64.324219 236.363281 64.324219 Z M 236.363281 64.324219 " fill-opacity="1" fill-rule="nonzero"/><path fill="#ffffff" d="M 114.949219 182.714844 C 114.949219 181.855469 114.910156 180.996094 114.824219 180.136719 C 114.738281 179.28125 114.613281 178.429688 114.445312 177.585938 C 114.277344 176.738281 114.066406 175.90625 113.816406 175.082031 C 113.566406 174.257812 113.277344 173.445312 112.949219 172.648438 C 112.617188 171.855469 112.25 171.078125 111.84375 170.316406 C 111.4375 169.558594 110.996094 168.820312 110.519531 168.101562 C 110.039062 167.386719 109.527344 166.695312 108.980469 166.03125 C 108.433594 165.363281 107.855469 164.726562 107.246094 164.117188 C 106.636719 163.507812 106 162.929688 105.335938 162.382812 C 104.667969 161.835938 103.976562 161.324219 103.261719 160.84375 C 102.542969 160.367188 101.804688 159.925781 101.046875 159.519531 C 100.285156 159.113281 99.507812 158.746094 98.714844 158.414062 C 97.917969 158.085938 97.105469 157.796875 96.28125 157.546875 C 95.457031 157.296875 94.625 157.085938 93.777344 156.917969 C 92.933594 156.75 92.082031 156.625 91.226562 156.539062 C 90.367188 156.453125 89.507812 156.414062 88.648438 156.414062 C 87.785156 156.414062 86.925781 156.453125 86.070312 156.539062 C 85.210938 156.625 84.359375 156.75 83.515625 156.917969 C 82.671875 157.085938 81.835938 157.296875 81.011719 157.546875 C 80.1875 157.796875 79.378906 158.085938 78.582031 158.414062 C 77.785156 158.746094 77.007812 159.113281 76.25 159.519531 C 75.488281 159.925781 74.75 160.367188 74.035156 160.84375 C 73.316406 161.324219 72.625 161.835938 71.960938 162.382812 C 71.296875 162.929688 70.65625 163.507812 70.046875 164.117188 C 69.4375 164.726562 68.859375 165.363281 68.316406 166.03125 C 67.769531 166.695312 67.253906 167.386719 66.777344 168.101562 C 66.296875 168.820312 65.855469 169.558594 65.449219 170.316406 C 65.042969 171.078125 64.675781 171.855469 64.347656 172.648438 C 64.015625 173.445312 63.726562 174.257812 63.476562 175.082031 C 63.226562 175.90625 63.019531 176.738281 62.851562 177.585938 C 62.679688 178.429688 62.554688 179.28125 62.472656 180.136719 C 62.386719 180.996094 62.34375 181.855469 62.34375 182.714844 C 62.34375 183.578125 62.386719 184.4375 62.472656 185.292969 C 62.554688 186.152344 62.679688 187.003906 62.851562 187.847656 C 63.019531 188.691406 63.226562 189.527344 63.476562 190.351562 C 63.726562 191.175781 64.015625 191.984375 64.347656 192.78125 C 64.675781 193.578125 65.042969 194.355469 65.449219 195.117188 C 65.855469 195.875 66.296875 196.613281 66.777344 197.328125 C 67.253906 198.046875 67.769531 198.738281 68.316406 199.402344 C 68.859375 200.070312 69.4375 200.707031 70.046875 201.316406 C 70.65625 201.925781 71.296875 202.503906 71.960938 203.046875 C 72.625 203.59375 73.316406 204.109375 74.035156 204.585938 C 74.75 205.066406 75.488281 205.507812 76.25 205.914062 C 77.007812 206.320312 77.785156 206.6875 78.582031 207.015625 C 79.378906 207.347656 80.1875 207.636719 81.011719 207.886719 C 81.835938 208.136719 82.671875 208.347656 83.515625 208.515625 C 84.359375 208.683594 85.210938 208.808594 86.070312 208.894531 C 86.925781 208.976562 87.785156 209.019531 88.648438 209.019531 C 89.507812 209.019531 90.367188 208.976562 91.226562 208.890625 C 92.082031 208.804688 92.933594 208.675781 93.777344 208.507812 C 94.621094 208.339844 95.457031 208.128906 96.277344 207.878906 C 97.101562 207.628906 97.914062 207.339844 98.707031 207.007812 C 99.503906 206.679688 100.28125 206.308594 101.039062 205.902344 C 101.800781 205.496094 102.535156 205.054688 103.253906 204.574219 C 103.96875 204.097656 104.660156 203.585938 105.324219 203.039062 C 105.992188 202.492188 106.628906 201.914062 107.238281 201.304688 C 107.847656 200.695312 108.421875 200.058594 108.96875 199.394531 C 109.515625 198.726562 110.027344 198.039062 110.507812 197.320312 C 110.984375 196.605469 111.429688 195.867188 111.835938 195.109375 C 112.242188 194.347656 112.609375 193.570312 112.941406 192.777344 C 113.269531 191.980469 113.558594 191.171875 113.8125 190.347656 C 114.0625 189.523438 114.269531 188.691406 114.441406 187.84375 C 114.609375 187 114.734375 186.148438 114.820312 185.292969 C 114.90625 184.4375 114.949219 183.578125 114.949219 182.714844 Z M 75.789062 182.714844 C 75.789062 181.871094 75.871094 181.03125 76.039062 180.203125 C 76.203125 179.375 76.445312 178.570312 76.769531 177.789062 C 77.09375 177.007812 77.492188 176.265625 77.960938 175.5625 C 78.429688 174.859375 78.964844 174.207031 79.5625 173.609375 C 80.160156 173.011719 80.8125 172.480469 81.515625 172.007812 C 82.21875 171.539062 82.960938 171.144531 83.742188 170.820312 C 84.523438 170.496094 85.328125 170.253906 86.15625 170.085938 C 86.988281 169.921875 87.824219 169.839844 88.667969 169.839844 C 89.515625 169.839844 90.351562 169.925781 91.183594 170.089844 C 92.011719 170.253906 92.816406 170.5 93.597656 170.824219 C 94.378906 171.148438 95.121094 171.546875 95.824219 172.015625 C 96.527344 172.484375 97.175781 173.019531 97.773438 173.617188 C 98.371094 174.214844 98.90625 174.867188 99.375 175.570312 C 99.84375 176.273438 100.238281 177.015625 100.5625 177.796875 C 100.886719 178.578125 101.128906 179.386719 101.292969 180.214844 C 101.457031 181.042969 101.539062 181.882812 101.539062 182.726562 C 101.539062 183.574219 101.453125 184.410156 101.289062 185.238281 C 101.125 186.070312 100.878906 186.875 100.554688 187.65625 C 100.230469 188.433594 99.832031 189.175781 99.363281 189.878906 C 98.890625 190.582031 98.355469 191.234375 97.757812 191.828125 C 97.160156 192.425781 96.507812 192.960938 95.804688 193.429688 C 95.101562 193.898438 94.359375 194.292969 93.578125 194.617188 C 92.796875 194.9375 91.988281 195.183594 91.160156 195.347656 C 90.332031 195.511719 89.492188 195.59375 88.648438 195.589844 C 87.808594 195.582031 86.976562 195.492188 86.152344 195.324219 C 85.328125 195.152344 84.527344 194.90625 83.753906 194.578125 C 82.980469 194.25 82.242188 193.851562 81.546875 193.382812 C 80.851562 192.910156 80.207031 192.375 79.613281 191.78125 C 79.019531 191.183594 78.492188 190.535156 78.027344 189.832031 C 77.5625 189.132812 77.167969 188.394531 76.847656 187.617188 C 76.527344 186.839844 76.285156 186.039062 76.121094 185.214844 C 75.957031 184.390625 75.875 183.558594 75.875 182.714844 Z M 75.789062 182.714844 " fill-opacity="1" fill-rule="nonzero"/><path fill="#ffffff" d="M 154.765625 194.214844 L 199.515625 194.214844 C 199.957031 194.214844 200.394531 194.171875 200.828125 194.085938 C 201.261719 194 201.679688 193.871094 202.085938 193.703125 C 202.496094 193.535156 202.882812 193.328125 203.246094 193.082031 C 203.613281 192.835938 203.953125 192.558594 204.265625 192.246094 C 204.578125 191.9375 204.855469 191.597656 205.101562 191.230469 C 205.34375 190.863281 205.550781 190.476562 205.722656 190.070312 C 205.890625 189.660156 206.015625 189.242188 206.101562 188.808594 C 206.1875 188.378906 206.230469 187.941406 206.230469 187.5 C 206.230469 187.058594 206.1875 186.621094 206.101562 186.191406 C 206.015625 185.757812 205.890625 185.335938 205.722656 184.929688 C 205.550781 184.523438 205.34375 184.136719 205.101562 183.769531 C 204.855469 183.402344 204.578125 183.0625 204.265625 182.753906 C 203.953125 182.441406 203.613281 182.164062 203.246094 181.917969 C 202.882812 181.671875 202.496094 181.464844 202.085938 181.296875 C 201.679688 181.128906 201.261719 181 200.828125 180.914062 C 200.394531 180.828125 199.957031 180.785156 199.515625 180.785156 L 154.765625 180.785156 C 154.324219 180.785156 153.890625 180.828125 153.457031 180.914062 C 153.023438 181 152.605469 181.128906 152.195312 181.296875 C 151.789062 181.464844 151.402344 181.671875 151.035156 181.917969 C 150.667969 182.164062 150.332031 182.441406 150.019531 182.753906 C 149.707031 183.0625 149.429688 183.402344 149.183594 183.769531 C 148.9375 184.136719 148.730469 184.523438 148.5625 184.929688 C 148.394531 185.335938 148.265625 185.757812 148.179688 186.191406 C 148.09375 186.621094 148.050781 187.058594 148.050781 187.5 C 148.050781 187.941406 148.09375 188.378906 148.179688 188.808594 C 148.265625 189.242188 148.394531 189.660156 148.5625 190.070312 C 148.730469 190.476562 148.9375 190.863281 149.183594 191.230469 C 149.429688 191.597656 149.707031 191.9375 150.019531 192.246094 C 150.332031 192.558594 150.667969 192.835938 151.035156 193.082031 C 151.402344 193.328125 151.789062 193.535156 152.195312 193.703125 C 152.605469 193.871094 153.023438 194 153.457031 194.085938 C 153.890625 194.171875 154.324219 194.214844 154.765625 194.214844 Z M 154.765625 194.214844 " fill-opacity="1" fill-rule="nonzero"/><path fill="#ffffff" d="M 236.363281 194.214844 L 281.128906 194.214844 C 281.570312 194.214844 282.007812 194.171875 282.441406 194.085938 C 282.871094 194 283.292969 193.871094 283.699219 193.703125 C 284.105469 193.535156 284.492188 193.328125 284.859375 193.082031 C 285.226562 192.835938 285.566406 192.558594 285.878906 192.246094 C 286.1875 191.9375 286.46875 191.597656 286.710938 191.230469 C 286.957031 190.863281 287.164062 190.476562 287.332031 190.070312 C 287.5 189.660156 287.628906 189.242188 287.714844 188.808594 C 287.800781 188.378906 287.84375 187.941406 287.84375 187.5 C 287.84375 187.058594 287.800781 186.621094 287.714844 186.191406 C 287.628906 185.757812 287.5 185.335938 287.332031 184.929688 C 287.164062 184.523438 286.957031 184.136719 286.710938 183.769531 C 286.46875 183.402344 286.1875 183.0625 285.878906 182.753906 C 285.566406 182.441406 285.226562 182.164062 284.859375 181.917969 C 284.492188 181.671875 284.105469 181.464844 283.699219 181.296875 C 283.292969 181.128906 282.871094 181 282.441406 180.914062 C 282.007812 180.828125 281.570312 180.785156 281.128906 180.785156 L 236.363281 180.785156 C 235.921875 180.785156 235.484375 180.828125 235.050781 180.914062 C 234.621094 181 234.199219 181.128906 233.792969 181.296875 C 233.386719 181.464844 233 181.671875 232.632812 181.917969 C 232.265625 182.164062 231.925781 182.441406 231.613281 182.753906 C 231.304688 183.0625 231.023438 183.402344 230.78125 183.769531 C 230.535156 184.136719 230.328125 184.523438 230.160156 184.929688 C 229.992188 185.335938 229.863281 185.757812 229.777344 186.191406 C 229.691406 186.621094 229.648438 187.058594 229.648438 187.5 C 229.648438 187.941406 229.691406 188.378906 229.777344 188.808594 C 229.863281 189.242188 229.992188 189.660156 230.160156 190.070312 C 230.328125 190.476562 230.535156 190.863281 230.78125 191.230469 C 231.023438 191.597656 231.304688 191.9375 231.613281 192.246094 C 231.925781 192.558594 232.265625 192.835938 232.632812 193.082031 C 233 193.328125 233.386719 193.535156 233.792969 193.703125 C 234.199219 193.871094 234.621094 194 235.050781 194.085938 C 235.484375 194.171875 235.921875 194.214844 236.363281 194.214844 Z M 236.363281 194.214844 " fill-opacity="1" fill-rule="nonzero"/><g clip-path="url(#bbd5b00181)"><path fill="#ffffff" d="M 28.875 374.660156 L 346.125 374.660156 C 346.566406 374.660156 347 374.617188 347.433594 374.53125 C 347.867188 374.445312 348.285156 374.320312 348.695312 374.148438 C 349.101562 373.980469 349.488281 373.773438 349.855469 373.53125 C 350.222656 373.285156 350.558594 373.007812 350.871094 372.695312 C 351.183594 372.382812 351.460938 372.042969 351.707031 371.675781 C 351.953125 371.3125 352.160156 370.921875 352.328125 370.515625 C 352.496094 370.109375 352.625 369.6875 352.710938 369.257812 C 352.796875 368.824219 352.839844 368.386719 352.839844 367.945312 L 352.839844 266.828125 C 352.839844 266.386719 352.796875 265.953125 352.710938 265.519531 C 352.625 265.085938 352.496094 264.667969 352.328125 264.261719 C 352.160156 263.851562 351.953125 263.464844 351.707031 263.097656 C 351.460938 262.734375 351.183594 262.394531 350.871094 262.082031 C 350.558594 261.769531 350.222656 261.492188 349.855469 261.246094 C 349.488281 261 349.101562 260.796875 348.695312 260.625 C 348.285156 260.457031 347.867188 260.332031 347.433594 260.246094 C 347 260.160156 346.566406 260.113281 346.125 260.113281 L 287.84375 260.113281 L 287.84375 244.773438 L 346.125 244.773438 C 346.566406 244.773438 347 244.730469 347.433594 244.644531 C 347.867188 244.558594 348.285156 244.429688 348.695312 244.261719 C 349.101562 244.09375 349.488281 243.886719 349.855469 243.640625 C 350.222656 243.394531 350.558594 243.117188 350.871094 242.804688 C 351.183594 242.496094 351.460938 242.15625 351.707031 241.789062 C 351.953125 241.421875 352.160156 241.035156 352.328125 240.628906 C 352.496094 240.222656 352.625 239.800781 352.710938 239.367188 C 352.796875 238.9375 352.839844 238.5 352.839844 238.058594 L 352.839844 136.941406 C 352.839844 136.5 352.796875 136.0625 352.710938 135.632812 C 352.625 135.199219 352.496094 134.777344 352.328125 134.371094 C 352.160156 133.964844 351.953125 133.578125 351.707031 133.210938 C 351.460938 132.84375 351.183594 132.503906 350.871094 132.195312 C 350.558594 131.882812 350.222656 131.601562 349.855469 131.359375 C 349.488281 131.113281 349.101562 130.90625 348.695312 130.738281 C 348.285156 130.570312 347.867188 130.441406 347.433594 130.355469 C 347 130.269531 346.566406 130.226562 346.125 130.226562 L 287.84375 130.226562 L 287.84375 114.882812 L 346.125 114.882812 C 346.566406 114.882812 347 114.839844 347.433594 114.753906 C 347.867188 114.667969 348.285156 114.542969 348.695312 114.375 C 349.101562 114.203125 349.488281 114 349.855469 113.753906 C 350.222656 113.507812 350.558594 113.230469 350.871094 112.917969 C 351.183594 112.605469 351.460938 112.265625 351.707031 111.902344 C 351.953125 111.535156 352.160156 111.148438 352.328125 110.738281 C 352.496094 110.332031 352.625 109.914062 352.710938 109.480469 C 352.796875 109.046875 352.839844 108.609375 352.839844 108.171875 L 352.839844 7.054688 C 352.839844 6.613281 352.796875 6.175781 352.710938 5.742188 C 352.625 5.3125 352.496094 4.890625 352.328125 4.484375 C 352.160156 4.078125 351.953125 3.6875 351.707031 3.324219 C 351.460938 2.957031 351.183594 2.617188 350.871094 2.304688 C 350.558594 1.992188 350.222656 1.714844 349.855469 1.46875 C 349.488281 1.226562 349.101562 1.019531 348.695312 0.851562 C 348.285156 0.679688 347.867188 0.554688 347.433594 0.46875 C 347 0.382812 346.566406 0.339844 346.125 0.339844 L 28.875 0.339844 C 28.433594 0.339844 27.996094 0.382812 27.5625 0.46875 C 27.132812 0.554688 26.710938 0.679688 26.304688 0.851562 C 25.898438 1.019531 25.507812 1.226562 25.144531 1.46875 C 24.777344 1.714844 24.4375 1.992188 24.125 2.304688 C 23.8125 2.617188 23.535156 2.957031 23.289062 3.324219 C 23.046875 3.6875 22.839844 4.078125 22.671875 4.484375 C 22.5 4.890625 22.375 5.3125 22.289062 5.742188 C 22.203125 6.175781 22.160156 6.613281 22.160156 7.054688 L 22.160156 108.171875 C 22.160156 108.609375 22.203125 109.046875 22.289062 109.480469 C 22.375 109.914062 22.5 110.332031 22.671875 110.738281 C 22.839844 111.148438 23.046875 111.535156 23.289062 111.902344 C 23.535156 112.265625 23.8125 112.605469 24.125 112.917969 C 24.4375 113.230469 24.777344 113.507812 25.144531 113.753906 C 25.507812 114 25.898438 114.203125 26.304688 114.375 C 26.710938 114.542969 27.132812 114.667969 27.5625 114.753906 C 27.996094 114.839844 28.433594 114.882812 28.875 114.882812 L 81.933594 114.882812 L 81.933594 130.226562 L 28.875 130.226562 C 28.433594 130.226562 27.996094 130.269531 27.5625 130.355469 C 27.132812 130.441406 26.710938 130.570312 26.304688 130.738281 C 25.898438 130.90625 25.507812 131.113281 25.144531 131.359375 C 24.777344 131.601562 24.4375 131.882812 24.125 132.195312 C 23.8125 132.503906 23.535156 132.84375 23.289062 133.210938 C 23.046875 133.578125 22.839844 133.964844 22.671875 134.371094 C 22.5 134.777344 22.375 135.199219 22.289062 135.632812 C 22.203125 136.0625 22.160156 136.5 22.160156 136.941406 L 22.160156 238.058594 C 22.160156 238.5 22.203125 238.9375 22.289062 239.367188 C 22.375 239.800781 22.5 240.222656 22.671875 240.628906 C 22.839844 241.035156 23.046875 241.421875 23.289062 241.789062 C 23.535156 242.15625 23.8125 242.496094 24.125 242.804688 C 24.4375 243.117188 24.777344 243.394531 25.144531 243.640625 C 25.507812 243.886719 25.898438 244.09375 26.304688 244.261719 C 26.710938 244.429688 27.132812 244.558594 27.5625 244.644531 C 27.996094 244.730469 28.433594 244.773438 28.875 244.773438 L 81.933594 244.773438 L 81.933594 260.113281 L 28.875 260.113281 C 28.433594 260.113281 27.996094 260.160156 27.5625 260.246094 C 27.132812 260.332031 26.710938 260.457031 26.304688 260.625 C 25.898438 260.796875 25.507812 261 25.144531 261.246094 C 24.777344 261.492188 24.4375 261.769531 24.125 262.082031 C 23.8125 262.394531 23.535156 262.734375 23.289062 263.097656 C 23.046875 263.464844 22.839844 263.851562 22.671875 264.261719 C 22.5 264.667969 22.375 265.085938 22.289062 265.519531 C 22.203125 265.953125 22.160156 266.386719 22.160156 266.828125 L 22.160156 367.945312 C 22.160156 368.386719 22.203125 368.824219 22.289062 369.257812 C 22.375 369.6875 22.5 370.109375 22.671875 370.515625 C 22.839844 370.921875 23.046875 371.3125 23.289062 371.675781 C 23.535156 372.042969 23.8125 372.382812 24.125 372.695312 C 24.4375 373.007812 24.777344 373.285156 25.144531 373.53125 C 25.507812 373.773438 25.898438 373.980469 26.304688 374.148438 C 26.710938 374.320312 27.132812 374.445312 27.5625 374.53125 C 27.996094 374.617188 28.433594 374.660156 28.875 374.660156 Z M 35.585938 13.765625 L 339.410156 13.765625 L 339.410156 101.457031 L 35.585938 101.457031 Z M 95.363281 114.882812 L 274.414062 114.882812 L 274.414062 130.226562 L 95.363281 130.226562 Z M 35.585938 143.65625 L 339.410156 143.65625 L 339.410156 231.34375 L 35.585938 231.34375 Z M 95.363281 244.773438 L 274.414062 244.773438 L 274.414062 260.113281 L 95.363281 260.113281 Z M 35.585938 273.542969 L 339.410156 273.542969 L 339.410156 361.234375 L 35.585938 361.234375 Z M 35.585938 273.542969 " fill-opacity="1" fill-rule="nonzero"/></g><path fill="#ffffff" d="M 88.648438 286.316406 C 87.785156 286.316406 86.925781 286.359375 86.066406 286.445312 C 85.210938 286.527344 84.359375 286.65625 83.511719 286.824219 C 82.667969 286.992188 81.832031 287.203125 81.007812 287.453125 C 80.183594 287.703125 79.371094 287.992188 78.578125 288.320312 C 77.78125 288.652344 77.003906 289.019531 76.242188 289.425781 C 75.480469 289.832031 74.742188 290.277344 74.027344 290.753906 C 73.3125 291.234375 72.621094 291.746094 71.953125 292.292969 C 71.289062 292.839844 70.648438 293.421875 70.039062 294.03125 C 69.429688 294.640625 68.851562 295.277344 68.308594 295.945312 C 67.761719 296.609375 67.246094 297.300781 66.769531 298.019531 C 66.289062 298.738281 65.847656 299.476562 65.441406 300.234375 C 65.035156 300.996094 64.667969 301.773438 64.339844 302.570312 C 64.011719 303.367188 63.722656 304.179688 63.472656 305.003906 C 63.222656 305.828125 63.011719 306.664062 62.847656 307.507812 C 62.679688 308.355469 62.550781 309.207031 62.46875 310.0625 C 62.386719 310.921875 62.34375 311.78125 62.34375 312.644531 C 62.34375 313.503906 62.386719 314.367188 62.472656 315.222656 C 62.558594 316.082031 62.6875 316.933594 62.855469 317.777344 C 63.023438 318.621094 63.234375 319.457031 63.484375 320.28125 C 63.734375 321.105469 64.027344 321.917969 64.355469 322.710938 C 64.6875 323.507812 65.058594 324.285156 65.464844 325.046875 C 65.871094 325.804688 66.316406 326.542969 66.792969 327.261719 C 67.273438 327.976562 67.789062 328.667969 68.335938 329.332031 C 68.882812 330 69.460938 330.636719 70.070312 331.242188 C 70.683594 331.851562 71.320312 332.429688 71.988281 332.976562 C 72.65625 333.523438 73.347656 334.035156 74.066406 334.511719 C 74.78125 334.988281 75.519531 335.429688 76.28125 335.835938 C 77.042969 336.242188 77.820312 336.609375 78.617188 336.9375 C 79.414062 337.265625 80.226562 337.554688 81.050781 337.804688 C 81.875 338.050781 82.710938 338.261719 83.558594 338.425781 C 84.402344 338.59375 85.253906 338.71875 86.113281 338.800781 C 86.96875 338.886719 87.832031 338.925781 88.691406 338.925781 C 89.554688 338.921875 90.414062 338.878906 91.273438 338.792969 C 92.128906 338.707031 92.980469 338.578125 93.824219 338.410156 C 94.671875 338.238281 95.503906 338.027344 96.328125 337.777344 C 97.152344 337.527344 97.964844 337.234375 98.761719 336.902344 C 99.554688 336.570312 100.332031 336.203125 101.09375 335.792969 C 101.851562 335.386719 102.589844 334.941406 103.304688 334.460938 C 104.019531 333.980469 104.710938 333.46875 105.375 332.917969 C 106.042969 332.371094 106.679688 331.792969 107.285156 331.179688 C 107.894531 330.570312 108.472656 329.929688 109.015625 329.261719 C 109.5625 328.597656 110.074219 327.902344 110.550781 327.183594 C 111.027344 326.46875 111.46875 325.726562 111.875 324.96875 C 112.277344 324.207031 112.644531 323.425781 112.972656 322.628906 C 113.300781 321.832031 113.589844 321.023438 113.835938 320.195312 C 114.085938 319.371094 114.292969 318.535156 114.457031 317.6875 C 114.625 316.84375 114.75 315.992188 114.832031 315.132812 C 114.914062 314.277344 114.953125 313.414062 114.949219 312.554688 C 114.949219 311.695312 114.90625 310.835938 114.816406 309.980469 C 114.730469 309.125 114.605469 308.273438 114.433594 307.433594 C 114.265625 306.589844 114.054688 305.757812 113.800781 304.933594 C 113.550781 304.109375 113.261719 303.304688 112.929688 302.507812 C 112.597656 301.714844 112.230469 300.9375 111.824219 300.179688 C 111.417969 299.421875 110.972656 298.6875 110.496094 297.972656 C 110.015625 297.257812 109.503906 296.570312 108.957031 295.90625 C 108.410156 295.242188 107.832031 294.605469 107.222656 294 C 106.613281 293.390625 105.976562 292.816406 105.3125 292.269531 C 104.644531 291.726562 103.957031 291.214844 103.238281 290.738281 C 102.523438 290.257812 101.789062 289.820312 101.027344 289.414062 C 100.269531 289.007812 99.492188 288.640625 98.699219 288.3125 C 97.902344 287.984375 97.09375 287.695312 96.269531 287.445312 C 95.449219 287.199219 94.613281 286.988281 93.769531 286.820312 C 92.925781 286.652344 92.078125 286.527344 91.222656 286.445312 C 90.367188 286.359375 89.507812 286.316406 88.648438 286.316406 Z M 88.648438 325.480469 C 87.804688 325.480469 86.964844 325.398438 86.136719 325.230469 C 85.308594 325.066406 84.503906 324.824219 83.722656 324.5 C 82.945312 324.175781 82.203125 323.78125 81.5 323.3125 C 80.796875 322.84375 80.148438 322.3125 79.550781 321.714844 C 78.953125 321.117188 78.417969 320.46875 77.949219 319.765625 C 77.480469 319.0625 77.082031 318.324219 76.757812 317.542969 C 76.433594 316.761719 76.1875 315.957031 76.023438 315.128906 C 75.859375 314.300781 75.773438 313.464844 75.773438 312.621094 C 75.773438 311.777344 75.851562 310.941406 76.015625 310.109375 C 76.179688 309.28125 76.421875 308.476562 76.746094 307.695312 C 77.066406 306.914062 77.460938 306.171875 77.929688 305.46875 C 78.398438 304.765625 78.929688 304.117188 79.527344 303.519531 C 80.121094 302.917969 80.769531 302.386719 81.472656 301.914062 C 82.171875 301.445312 82.914062 301.046875 83.695312 300.722656 C 84.472656 300.394531 85.277344 300.148438 86.105469 299.984375 C 86.933594 299.816406 87.769531 299.730469 88.613281 299.730469 C 89.457031 299.726562 90.296875 299.808594 91.125 299.96875 C 91.953125 300.132812 92.757812 300.375 93.539062 300.695312 C 94.320312 301.015625 95.0625 301.410156 95.765625 301.878906 C 96.472656 302.34375 97.121094 302.875 97.722656 303.472656 C 98.320312 304.066406 98.855469 304.714844 99.328125 305.414062 C 99.800781 306.117188 100.199219 306.855469 100.523438 307.636719 C 100.851562 308.414062 101.097656 309.21875 101.265625 310.046875 C 101.433594 310.875 101.519531 311.710938 101.523438 312.554688 C 101.523438 313.402344 101.445312 314.242188 101.28125 315.070312 C 101.117188 315.902344 100.875 316.710938 100.550781 317.492188 C 100.230469 318.277344 99.832031 319.023438 99.363281 319.726562 C 98.894531 320.433594 98.363281 321.085938 97.765625 321.683594 C 97.167969 322.285156 96.515625 322.820312 95.8125 323.292969 C 95.109375 323.765625 94.367188 324.164062 93.582031 324.488281 C 92.800781 324.816406 91.996094 325.0625 91.164062 325.226562 C 90.332031 325.394531 89.496094 325.476562 88.648438 325.480469 Z M 88.648438 325.480469 " fill-opacity="1" fill-rule="nonzero"/><path fill="#ffffff" d="M 199.433594 310.675781 L 154.765625 310.675781 C 154.324219 310.675781 153.890625 310.71875 153.457031 310.804688 C 153.023438 310.890625 152.605469 311.015625 152.195312 311.183594 C 151.789062 311.355469 151.402344 311.5625 151.035156 311.804688 C 150.667969 312.050781 150.332031 312.328125 150.019531 312.640625 C 149.707031 312.953125 149.429688 313.292969 149.183594 313.65625 C 148.9375 314.023438 148.730469 314.410156 148.5625 314.820312 C 148.394531 315.226562 148.265625 315.644531 148.179688 316.078125 C 148.09375 316.511719 148.050781 316.949219 148.050781 317.386719 C 148.050781 317.828125 148.09375 318.265625 148.179688 318.699219 C 148.265625 319.128906 148.394531 319.550781 148.5625 319.957031 C 148.730469 320.363281 148.9375 320.753906 149.183594 321.117188 C 149.429688 321.484375 149.707031 321.824219 150.019531 322.136719 C 150.332031 322.449219 150.667969 322.726562 151.035156 322.972656 C 151.402344 323.214844 151.789062 323.421875 152.195312 323.589844 C 152.605469 323.761719 153.023438 323.886719 153.457031 323.972656 C 153.890625 324.058594 154.324219 324.101562 154.765625 324.101562 L 199.515625 324.101562 C 199.957031 324.101562 200.394531 324.058594 200.828125 323.972656 C 201.261719 323.886719 201.679688 323.761719 202.085938 323.589844 C 202.496094 323.421875 202.882812 323.214844 203.246094 322.972656 C 203.613281 322.726562 203.953125 322.449219 204.265625 322.136719 C 204.578125 321.824219 204.855469 321.484375 205.101562 321.117188 C 205.34375 320.753906 205.550781 320.363281 205.722656 319.957031 C 205.890625 319.550781 206.015625 319.128906 206.101562 318.699219 C 206.1875 318.265625 206.230469 317.828125 206.230469 317.386719 C 206.230469 316.949219 206.1875 316.511719 206.101562 316.078125 C 206.015625 315.644531 205.890625 315.226562 205.722656 314.820312 C 205.550781 314.410156 205.34375 314.023438 205.101562 313.65625 C 204.855469 313.292969 204.578125 312.953125 204.265625 312.640625 C 203.953125 312.328125 203.613281 312.050781 203.246094 311.804688 C 202.882812 311.5625 202.496094 311.355469 202.085938 311.183594 C 201.679688 311.015625 201.261719 310.890625 200.828125 310.804688 C 200.394531 310.71875 199.957031 310.675781 199.515625 310.675781 Z M 199.433594 310.675781 " fill-opacity="1" fill-rule="nonzero"/><path fill="#ffffff" d="M 281.128906 310.675781 L 236.363281 310.675781 C 235.921875 310.675781 235.484375 310.71875 235.050781 310.804688 C 234.621094 310.890625 234.199219 311.015625 233.792969 311.183594 C 233.386719 311.355469 233 311.5625 232.632812 311.804688 C 232.265625 312.050781 231.925781 312.328125 231.613281 312.640625 C 231.304688 312.953125 231.023438 313.292969 230.78125 313.65625 C 230.535156 314.023438 230.328125 314.410156 230.160156 314.820312 C 229.992188 315.226562 229.863281 315.644531 229.777344 316.078125 C 229.691406 316.511719 229.648438 316.949219 229.648438 317.386719 C 229.648438 317.828125 229.691406 318.265625 229.777344 318.699219 C 229.863281 319.128906 229.992188 319.550781 230.160156 319.957031 C 230.328125 320.363281 230.535156 320.753906 230.78125 321.117188 C 231.023438 321.484375 231.304688 321.824219 231.613281 322.136719 C 231.925781 322.449219 232.265625 322.726562 232.632812 322.972656 C 233 323.214844 233.386719 323.421875 233.792969 323.589844 C 234.199219 323.761719 234.621094 323.886719 235.050781 323.972656 C 235.484375 324.058594 235.921875 324.101562 236.363281 324.101562 L 281.128906 324.101562 C 281.570312 324.101562 282.007812 324.058594 282.441406 323.972656 C 282.871094 323.886719 283.292969 323.761719 283.699219 323.589844 C 284.105469 323.421875 284.492188 323.214844 284.859375 322.972656 C 285.226562 322.726562 285.566406 322.449219 285.878906 322.136719 C 286.1875 321.824219 286.46875 321.484375 286.710938 321.117188 C 286.957031 320.753906 287.164062 320.363281 287.332031 319.957031 C 287.5 319.550781 287.628906 319.128906 287.714844 318.699219 C 287.800781 318.265625 287.84375 317.828125 287.84375 317.386719 C 287.84375 316.949219 287.800781 316.511719 287.714844 316.078125 C 287.628906 315.644531 287.5 315.226562 287.332031 314.820312 C 287.164062 314.410156 286.957031 314.023438 286.710938 313.65625 C 286.46875 313.292969 286.1875 312.953125 285.878906 312.640625 C 285.566406 312.328125 285.226562 312.050781 284.859375 311.804688 C 284.492188 311.5625 284.105469 311.355469 283.699219 311.183594 C 283.292969 311.015625 282.871094 310.890625 282.441406 310.804688 C 282.007812 310.71875 281.570312 310.675781 281.128906 310.675781 Z M 281.128906 310.675781 " fill-opacity="1" fill-rule="nonzero"/></svg>