<svg xmlns="http://www.w3.org/2000/svg" xmlns:xlink="http://www.w3.org/1999/xlink" width="500" zoomAndPan="magnify" viewBox="0 0 375 374.999991" height="500" preserveAspectRatio="xMidYMid meet" version="1.0"><path fill="#ffffff" d="M 87.5 31.25 C 87.5 20.898438 95.898438 12.5 106.25 12.5 L 137.5 12.5 L 137.5 18.75 C 137.5 29.101562 145.898438 37.5 156.25 37.5 L 218.75 37.5 C 229.101562 37.5 237.5 29.101562 237.5 18.75 L 237.5 12.5 L 268.75 12.5 C 279.101562 12.5 287.5 20.898438 287.5 31.25 L 287.5 343.75 C 287.5 354.101562 279.101562 362.5 268.75 362.5 L 106.25 362.5 C 95.898438 362.5 87.5 354.101562 87.5 343.75 Z M 150 12.5 L 225 12.5 L 225 18.75 C 225 22.191406 222.191406 25 218.75 25 L 156.25 25 C 152.808594 25 150 22.191406 150 18.75 Z M 106.25 375 L 268.75 375 C 285.984375 375 300 360.984375 300 343.75 L 300 31.25 C 300 14.015625 285.984375 0 268.75 0 L 106.25 0 C 89.015625 0 75 14.015625 75 31.25 L 75 343.75 C 75 360.984375 89.015625 375 106.25 375 " fill-opacity="1" fill-rule="nonzero"/><path fill="#ffffff" d="M 231.25 337.5 L 143.75 337.5 C 140.308594 337.5 137.5 340.308594 137.5 343.75 C 137.5 347.191406 140.308594 350 143.75 350 L 231.25 350 C 234.691406 350 237.5 347.191406 237.5 343.75 C 237.5 340.308594 234.691406 337.5 231.25 337.5 " fill-opacity="1" fill-rule="nonzero"/><path fill="#ffffff" d="M 146.09375 136.132812 C 147.242188 137.058594 148.632812 137.5 150 137.5 C 151.832031 137.5 153.636719 136.695312 154.882812 135.15625 C 157.03125 132.46875 156.589844 128.515625 153.90625 126.367188 L 128.757812 106.25 L 153.90625 86.132812 C 156.589844 83.984375 157.03125 80.027344 154.882812 77.34375 C 152.710938 74.65625 148.804688 74.21875 146.09375 76.367188 L 114.84375 101.367188 C 113.355469 102.5625 112.5 104.34375 112.5 106.25 C 112.5 108.152344 113.355469 109.9375 114.84375 111.132812 L 146.09375 136.132812 " fill-opacity="1" fill-rule="nonzero"/><path fill="#ffffff" d="M 220.117188 135.15625 C 221.363281 136.695312 223.167969 137.5 225 137.5 C 226.367188 137.5 227.757812 137.058594 228.90625 136.132812 L 260.15625 111.132812 C 261.644531 109.9375 262.5 108.152344 262.5 106.25 C 262.5 104.34375 261.644531 102.5625 260.15625 101.367188 L 228.90625 76.367188 C 226.21875 74.21875 222.289062 74.65625 220.117188 77.34375 C 217.96875 80.027344 218.40625 83.984375 221.09375 86.132812 L 246.238281 106.25 L 221.09375 126.367188 C 218.40625 128.515625 217.96875 132.46875 220.117188 135.15625 " fill-opacity="1" fill-rule="nonzero"/><path fill="#ffffff" d="M 180.027344 143.628906 C 180.445312 143.699219 180.835938 143.75 181.25 143.75 C 184.179688 143.75 186.792969 141.699219 187.378906 138.71875 L 199.878906 76.21875 C 200.5625 72.851562 198.363281 69.554688 194.96875 68.871094 C 191.601562 68.1875 188.304688 70.386719 187.621094 73.777344 L 175.121094 136.277344 C 174.4375 139.648438 176.636719 142.945312 180.027344 143.628906 " fill-opacity="1" fill-rule="nonzero"/><path fill="#ffffff" d="M 112.5 187.5 L 118.75 187.5 C 122.191406 187.5 125 184.691406 125 181.25 C 125 177.808594 122.191406 175 118.75 175 L 112.5 175 C 109.058594 175 106.25 177.808594 106.25 181.25 C 106.25 184.691406 109.058594 187.5 112.5 187.5 " fill-opacity="1" fill-rule="nonzero"/><path fill="#ffffff" d="M 137.5 181.25 C 137.5 184.691406 140.308594 187.5 143.75 187.5 L 262.5 187.5 C 265.941406 187.5 268.75 184.691406 268.75 181.25 C 268.75 177.808594 265.941406 175 262.5 175 L 143.75 175 C 140.308594 175 137.5 177.808594 137.5 181.25 " fill-opacity="1" fill-rule="nonzero"/><path fill="#ffffff" d="M 112.5 262.5 L 118.75 262.5 C 122.191406 262.5 125 259.691406 125 256.25 C 125 252.808594 122.191406 250 118.75 250 L 112.5 250 C 109.058594 250 106.25 252.808594 106.25 256.25 C 106.25 259.691406 109.058594 262.5 112.5 262.5 " fill-opacity="1" fill-rule="nonzero"/><path fill="#ffffff" d="M 262.5 250 L 143.75 250 C 140.308594 250 137.5 252.808594 137.5 256.25 C 137.5 259.691406 140.308594 262.5 143.75 262.5 L 262.5 262.5 C 265.941406 262.5 268.75 259.691406 268.75 256.25 C 268.75 252.808594 265.941406 250 262.5 250 " fill-opacity="1" fill-rule="nonzero"/><path fill="#ffffff" d="M 125 212.5 L 131.25 212.5 C 134.691406 212.5 137.5 209.691406 137.5 206.25 C 137.5 202.808594 134.691406 200 131.25 200 L 125 200 C 121.558594 200 118.75 202.808594 118.75 206.25 C 118.75 209.691406 121.558594 212.5 125 212.5 " fill-opacity="1" fill-rule="nonzero"/><path fill="#ffffff" d="M 262.5 200 L 212.5 200 C 209.058594 200 206.25 202.808594 206.25 206.25 C 206.25 209.691406 209.058594 212.5 212.5 212.5 L 262.5 212.5 C 265.941406 212.5 268.75 209.691406 268.75 206.25 C 268.75 202.808594 265.941406 200 262.5 200 " fill-opacity="1" fill-rule="nonzero"/><path fill="#ffffff" d="M 156.25 212.5 L 187.5 212.5 C 190.941406 212.5 193.75 209.691406 193.75 206.25 C 193.75 202.808594 190.941406 200 187.5 200 L 156.25 200 C 152.808594 200 150 202.808594 150 206.25 C 150 209.691406 152.808594 212.5 156.25 212.5 " fill-opacity="1" fill-rule="nonzero"/><path fill="#ffffff" d="M 125 237.5 L 131.25 237.5 C 134.691406 237.5 137.5 234.691406 137.5 231.25 C 137.5 227.808594 134.691406 225 131.25 225 L 125 225 C 121.558594 225 118.75 227.808594 118.75 231.25 C 118.75 234.691406 121.558594 237.5 125 237.5 " fill-opacity="1" fill-rule="nonzero"/><path fill="#ffffff" d="M 262.5 225 L 212.5 225 C 209.058594 225 206.25 227.808594 206.25 231.25 C 206.25 234.691406 209.058594 237.5 212.5 237.5 L 262.5 237.5 C 265.941406 237.5 268.75 234.691406 268.75 231.25 C 268.75 227.808594 265.941406 225 262.5 225 " fill-opacity="1" fill-rule="nonzero"/><path fill="#ffffff" d="M 156.25 237.5 L 187.5 237.5 C 190.941406 237.5 193.75 234.691406 193.75 231.25 C 193.75 227.808594 190.941406 225 187.5 225 L 156.25 225 C 152.808594 225 150 227.808594 150 231.25 C 150 234.691406 152.808594 237.5 156.25 237.5 " fill-opacity="1" fill-rule="nonzero"/><path fill="#ffffff" d="M 118.75 281.25 C 118.75 284.691406 121.558594 287.5 125 287.5 L 131.25 287.5 C 134.691406 287.5 137.5 284.691406 137.5 281.25 C 137.5 277.808594 134.691406 275 131.25 275 L 125 275 C 121.558594 275 118.75 277.808594 118.75 281.25 " fill-opacity="1" fill-rule="nonzero"/><path fill="#ffffff" d="M 262.5 275 L 212.5 275 C 209.058594 275 206.25 277.808594 206.25 281.25 C 206.25 284.691406 209.058594 287.5 212.5 287.5 L 262.5 287.5 C 265.941406 287.5 268.75 284.691406 268.75 281.25 C 268.75 277.808594 265.941406 275 262.5 275 " fill-opacity="1" fill-rule="nonzero"/><path fill="#ffffff" d="M 156.25 287.5 L 187.5 287.5 C 190.941406 287.5 193.75 284.691406 193.75 281.25 C 193.75 277.808594 190.941406 275 187.5 275 L 156.25 275 C 152.808594 275 150 277.808594 150 281.25 C 150 284.691406 152.808594 287.5 156.25 287.5 " fill-opacity="1" fill-rule="nonzero"/><path fill="#ffffff" d="M 131.25 300 L 125 300 C 121.558594 300 118.75 302.808594 118.75 306.25 C 118.75 309.691406 121.558594 312.5 125 312.5 L 131.25 312.5 C 134.691406 312.5 137.5 309.691406 137.5 306.25 C 137.5 302.808594 134.691406 300 131.25 300 " fill-opacity="1" fill-rule="nonzero"/><path fill="#ffffff" d="M 262.5 300 L 212.5 300 C 209.058594 300 206.25 302.808594 206.25 306.25 C 206.25 309.691406 209.058594 312.5 212.5 312.5 L 262.5 312.5 C 265.941406 312.5 268.75 309.691406 268.75 306.25 C 268.75 302.808594 265.941406 300 262.5 300 " fill-opacity="1" fill-rule="nonzero"/><path fill="#ffffff" d="M 156.25 312.5 L 187.5 312.5 C 190.941406 312.5 193.75 309.691406 193.75 306.25 C 193.75 302.808594 190.941406 300 187.5 300 L 156.25 300 C 152.808594 300 150 302.808594 150 306.25 C 150 309.691406 152.808594 312.5 156.25 312.5 " fill-opacity="1" fill-rule="nonzero"/><path fill="#ffffff" d="M 87.5 31.25 C 87.5 20.898438 95.898438 12.5 106.25 12.5 L 137.5 12.5 L 137.5 18.75 C 137.5 29.101562 145.898438 37.5 156.25 37.5 L 218.75 37.5 C 229.101562 37.5 237.5 29.101562 237.5 18.75 L 237.5 12.5 L 268.75 12.5 C 279.101562 12.5 287.5 20.898438 287.5 31.25 L 287.5 343.75 C 287.5 354.101562 279.101562 362.5 268.75 362.5 L 106.25 362.5 C 95.898438 362.5 87.5 354.101562 87.5 343.75 Z M 150 12.5 L 225 12.5 L 225 18.75 C 225 22.191406 222.191406 25 218.75 25 L 156.25 25 C 152.808594 25 150 22.191406 150 18.75 Z M 106.25 375 L 268.75 375 C 285.984375 375 300 360.984375 300 343.75 L 300 31.25 C 300 14.015625 285.984375 0 268.75 0 L 106.25 0 C 89.015625 0 75 14.015625 75 31.25 L 75 343.75 C 75 360.984375 89.015625 375 106.25 375 " fill-opacity="1" fill-rule="nonzero"/><path fill="#ffffff" d="M 231.25 337.5 L 143.75 337.5 C 140.308594 337.5 137.5 340.308594 137.5 343.75 C 137.5 347.191406 140.308594 350 143.75 350 L 231.25 350 C 234.691406 350 237.5 347.191406 237.5 343.75 C 237.5 340.308594 234.691406 337.5 231.25 337.5 " fill-opacity="1" fill-rule="nonzero"/><path fill="#ffffff" d="M 146.09375 136.132812 C 147.242188 137.058594 148.632812 137.5 150 137.5 C 151.832031 137.5 153.636719 136.695312 154.882812 135.15625 C 157.03125 132.46875 156.589844 128.515625 153.90625 126.367188 L 128.757812 106.25 L 153.90625 86.132812 C 156.589844 83.984375 157.03125 80.027344 154.882812 77.34375 C 152.710938 74.65625 148.804688 74.21875 146.09375 76.367188 L 114.84375 101.367188 C 113.355469 102.5625 112.5 104.34375 112.5 106.25 C 112.5 108.152344 113.355469 109.9375 114.84375 111.132812 L 146.09375 136.132812 " fill-opacity="1" fill-rule="nonzero"/><path fill="#ffffff" d="M 220.117188 135.15625 C 221.363281 136.695312 223.167969 137.5 225 137.5 C 226.367188 137.5 227.757812 137.058594 228.90625 136.132812 L 260.15625 111.132812 C 261.644531 109.9375 262.5 108.152344 262.5 106.25 C 262.5 104.34375 261.644531 102.5625 260.15625 101.367188 L 228.90625 76.367188 C 226.21875 74.21875 222.289062 74.65625 220.117188 77.34375 C 217.96875 80.027344 218.40625 83.984375 221.09375 86.132812 L 246.238281 106.25 L 221.09375 126.367188 C 218.40625 128.515625 217.96875 132.46875 220.117188 135.15625 " fill-opacity="1" fill-rule="nonzero"/><path fill="#ffffff" d="M 180.027344 143.628906 C 180.445312 143.699219 180.835938 143.75 181.25 143.75 C 184.179688 143.75 186.792969 141.699219 187.378906 138.71875 L 199.878906 76.21875 C 200.5625 72.851562 198.363281 69.554688 194.96875 68.871094 C 191.601562 68.1875 188.304688 70.386719 187.621094 73.777344 L 175.121094 136.277344 C 174.4375 139.648438 176.636719 142.945312 180.027344 143.628906 " fill-opacity="1" fill-rule="nonzero"/><path fill="#ffffff" d="M 112.5 187.5 L 118.75 187.5 C 122.191406 187.5 125 184.691406 125 181.25 C 125 177.808594 122.191406 175 118.75 175 L 112.5 175 C 109.058594 175 106.25 177.808594 106.25 181.25 C 106.25 184.691406 109.058594 187.5 112.5 187.5 " fill-opacity="1" fill-rule="nonzero"/><path fill="#ffffff" d="M 137.5 181.25 C 137.5 184.691406 140.308594 187.5 143.75 187.5 L 262.5 187.5 C 265.941406 187.5 268.75 184.691406 268.75 181.25 C 268.75 177.808594 265.941406 175 262.5 175 L 143.75 175 C 140.308594 175 137.5 177.808594 137.5 181.25 " fill-opacity="1" fill-rule="nonzero"/><path fill="#ffffff" d="M 112.5 262.5 L 118.75 262.5 C 122.191406 262.5 125 259.691406 125 256.25 C 125 252.808594 122.191406 250 118.75 250 L 112.5 250 C 109.058594 250 106.25 252.808594 106.25 256.25 C 106.25 259.691406 109.058594 262.5 112.5 262.5 " fill-opacity="1" fill-rule="nonzero"/><path fill="#ffffff" d="M 262.5 250 L 143.75 250 C 140.308594 250 137.5 252.808594 137.5 256.25 C 137.5 259.691406 140.308594 262.5 143.75 262.5 L 262.5 262.5 C 265.941406 262.5 268.75 259.691406 268.75 256.25 C 268.75 252.808594 265.941406 250 262.5 250 " fill-opacity="1" fill-rule="nonzero"/><path fill="#ffffff" d="M 125 212.5 L 131.25 212.5 C 134.691406 212.5 137.5 209.691406 137.5 206.25 C 137.5 202.808594 134.691406 200 131.25 200 L 125 200 C 121.558594 200 118.75 202.808594 118.75 206.25 C 118.75 209.691406 121.558594 212.5 125 212.5 " fill-opacity="1" fill-rule="nonzero"/><path fill="#ffffff" d="M 262.5 200 L 212.5 200 C 209.058594 200 206.25 202.808594 206.25 206.25 C 206.25 209.691406 209.058594 212.5 212.5 212.5 L 262.5 212.5 C 265.941406 212.5 268.75 209.691406 268.75 206.25 C 268.75 202.808594 265.941406 200 262.5 200 " fill-opacity="1" fill-rule="nonzero"/><path fill="#ffffff" d="M 156.25 212.5 L 187.5 212.5 C 190.941406 212.5 193.75 209.691406 193.75 206.25 C 193.75 202.808594 190.941406 200 187.5 200 L 156.25 200 C 152.808594 200 150 202.808594 150 206.25 C 150 209.691406 152.808594 212.5 156.25 212.5 " fill-opacity="1" fill-rule="nonzero"/><path fill="#ffffff" d="M 125 237.5 L 131.25 237.5 C 134.691406 237.5 137.5 234.691406 137.5 231.25 C 137.5 227.808594 134.691406 225 131.25 225 L 125 225 C 121.558594 225 118.75 227.808594 118.75 231.25 C 118.75 234.691406 121.558594 237.5 125 237.5 " fill-opacity="1" fill-rule="nonzero"/><path fill="#ffffff" d="M 262.5 225 L 212.5 225 C 209.058594 225 206.25 227.808594 206.25 231.25 C 206.25 234.691406 209.058594 237.5 212.5 237.5 L 262.5 237.5 C 265.941406 237.5 268.75 234.691406 268.75 231.25 C 268.75 227.808594 265.941406 225 262.5 225 " fill-opacity="1" fill-rule="nonzero"/><path fill="#ffffff" d="M 156.25 237.5 L 187.5 237.5 C 190.941406 237.5 193.75 234.691406 193.75 231.25 C 193.75 227.808594 190.941406 225 187.5 225 L 156.25 225 C 152.808594 225 150 227.808594 150 231.25 C 150 234.691406 152.808594 237.5 156.25 237.5 " fill-opacity="1" fill-rule="nonzero"/><path fill="#ffffff" d="M 118.75 281.25 C 118.75 284.691406 121.558594 287.5 125 287.5 L 131.25 287.5 C 134.691406 287.5 137.5 284.691406 137.5 281.25 C 137.5 277.808594 134.691406 275 131.25 275 L 125 275 C 121.558594 275 118.75 277.808594 118.75 281.25 " fill-opacity="1" fill-rule="nonzero"/><path fill="#ffffff" d="M 262.5 275 L 212.5 275 C 209.058594 275 206.25 277.808594 206.25 281.25 C 206.25 284.691406 209.058594 287.5 212.5 287.5 L 262.5 287.5 C 265.941406 287.5 268.75 284.691406 268.75 281.25 C 268.75 277.808594 265.941406 275 262.5 275 " fill-opacity="1" fill-rule="nonzero"/><path fill="#ffffff" d="M 156.25 287.5 L 187.5 287.5 C 190.941406 287.5 193.75 284.691406 193.75 281.25 C 193.75 277.808594 190.941406 275 187.5 275 L 156.25 275 C 152.808594 275 150 277.808594 150 281.25 C 150 284.691406 152.808594 287.5 156.25 287.5 " fill-opacity="1" fill-rule="nonzero"/><path fill="#ffffff" d="M 131.25 300 L 125 300 C 121.558594 300 118.75 302.808594 118.75 306.25 C 118.75 309.691406 121.558594 312.5 125 312.5 L 131.25 312.5 C 134.691406 312.5 137.5 309.691406 137.5 306.25 C 137.5 302.808594 134.691406 300 131.25 300 " fill-opacity="1" fill-rule="nonzero"/><path fill="#ffffff" d="M 262.5 300 L 212.5 300 C 209.058594 300 206.25 302.808594 206.25 306.25 C 206.25 309.691406 209.058594 312.5 212.5 312.5 L 262.5 312.5 C 265.941406 312.5 268.75 309.691406 268.75 306.25 C 268.75 302.808594 265.941406 300 262.5 300 " fill-opacity="1" fill-rule="nonzero"/><path fill="#ffffff" d="M 156.25 312.5 L 187.5 312.5 C 190.941406 312.5 193.75 309.691406 193.75 306.25 C 193.75 302.808594 190.941406 300 187.5 300 L 156.25 300 C 152.808594 300 150 302.808594 150 306.25 C 150 309.691406 152.808594 312.5 156.25 312.5 " fill-opacity="1" fill-rule="nonzero"/></svg>