<svg xmlns="http://www.w3.org/2000/svg" xmlns:xlink="http://www.w3.org/1999/xlink" width="500" zoomAndPan="magnify" viewBox="0 0 375 374.999991" height="500" preserveAspectRatio="xMidYMid meet" version="1.0"><defs><clipPath id="7b4c738681"><path d="M 0 61.875 L 375 61.875 L 375 95 L 0 95 Z M 0 61.875 " clip-rule="nonzero"/></clipPath><clipPath id="d1991711e8"><path d="M 0.046875 280 L 374.953125 280 L 374.953125 313.125 L 0.046875 313.125 Z M 0.046875 280 " clip-rule="nonzero"/></clipPath><clipPath id="855d321cfa"><path d="M 0 61.875 L 375 61.875 L 375 95 L 0 95 Z M 0 61.875 " clip-rule="nonzero"/></clipPath><clipPath id="ad57f1bac6"><path d="M 0.046875 280 L 374.953125 280 L 374.953125 313.125 L 0.046875 313.125 Z M 0.046875 280 " clip-rule="nonzero"/></clipPath></defs><path fill="#8e00ff" d="M 358.566406 203.894531 L 16.433594 203.894531 C 7.382812 203.894531 0.046875 196.558594 0.046875 187.503906 C 0.046875 178.453125 7.382812 171.121094 16.433594 171.121094 L 358.566406 171.121094 C 367.621094 171.121094 374.953125 178.453125 374.953125 187.503906 C 374.953125 196.558594 367.621094 203.894531 358.566406 203.894531 " fill-opacity="1" fill-rule="nonzero"/><g clip-path="url(#7b4c738681)"><path fill="#8e00ff" d="M 358.566406 94.648438 L 16.433594 94.648438 C 7.382812 94.648438 0.046875 87.3125 0.046875 78.261719 C 0.046875 69.210938 7.382812 61.878906 16.433594 61.878906 L 358.566406 61.878906 C 367.621094 61.878906 374.953125 69.210938 374.953125 78.261719 C 374.953125 87.3125 367.621094 94.648438 358.566406 94.648438 " fill-opacity="1" fill-rule="nonzero"/></g><g clip-path="url(#d1991711e8)"><path fill="#8e00ff" d="M 358.566406 313.136719 L 16.433594 313.136719 C 7.382812 313.136719 0.046875 305.804688 0.046875 296.75 C 0.046875 287.699219 7.382812 280.367188 16.433594 280.367188 L 358.566406 280.367188 C 367.621094 280.367188 374.953125 287.699219 374.953125 296.75 C 374.953125 305.804688 367.621094 313.136719 358.566406 313.136719 " fill-opacity="1" fill-rule="nonzero"/></g><path fill="#8e00ff" d="M 358.566406 203.894531 L 16.433594 203.894531 C 7.382812 203.894531 0.046875 196.558594 0.046875 187.503906 C 0.046875 178.453125 7.382812 171.121094 16.433594 171.121094 L 358.566406 171.121094 C 367.621094 171.121094 374.953125 178.453125 374.953125 187.503906 C 374.953125 196.558594 367.621094 203.894531 358.566406 203.894531 " fill-opacity="1" fill-rule="nonzero"/><g clip-path="url(#855d321cfa)"><path fill="#8e00ff" d="M 358.566406 94.648438 L 16.433594 94.648438 C 7.382812 94.648438 0.046875 87.3125 0.046875 78.261719 C 0.046875 69.210938 7.382812 61.878906 16.433594 61.878906 L 358.566406 61.878906 C 367.621094 61.878906 374.953125 69.210938 374.953125 78.261719 C 374.953125 87.3125 367.621094 94.648438 358.566406 94.648438 " fill-opacity="1" fill-rule="nonzero"/></g><g clip-path="url(#ad57f1bac6)"><path fill="#8e00ff" d="M 358.566406 313.136719 L 16.433594 313.136719 C 7.382812 313.136719 0.046875 305.804688 0.046875 296.75 C 0.046875 287.699219 7.382812 280.367188 16.433594 280.367188 L 358.566406 280.367188 C 367.621094 280.367188 374.953125 287.699219 374.953125 296.75 C 374.953125 305.804688 367.621094 313.136719 358.566406 313.136719 " fill-opacity="1" fill-rule="nonzero"/></g></svg>