<svg xmlns="http://www.w3.org/2000/svg" xmlns:xlink="http://www.w3.org/1999/xlink" width="500" zoomAndPan="magnify" viewBox="0 0 375 374.999991" height="500" preserveAspectRatio="xMidYMid meet" version="1.0"><defs><clipPath id="62f9f85c60"><path d="M 0 9.375 L 375 9.375 L 375 365.625 L 0 365.625 Z M 0 9.375 " clip-rule="nonzero"/></clipPath></defs><g clip-path="url(#62f9f85c60)"><path fill="#ffffff" d="M 331.324219 78.308594 C 334.757812 78.308594 337.5625 81.109375 337.5625 84.546875 L 337.5625 271.734375 C 337.5625 275.171875 334.757812 277.972656 331.324219 277.972656 L 325.082031 277.972656 L 325.082031 134.464844 C 325.082031 131.929688 323.570312 129.660156 321.230469 128.710938 C 318.890625 127.734375 316.210938 128.273438 314.433594 130.050781 L 250.207031 194.277344 L 217.183594 161.25 C 214.746094 158.8125 210.796875 158.8125 208.359375 161.25 L 119.175781 250.433594 L 92.390625 223.644531 C 89.953125 221.207031 86.003906 221.207031 83.566406 223.644531 L 52.367188 254.84375 C 51.199219 256.015625 50.539062 257.597656 50.539062 259.253906 L 50.539062 277.972656 L 44.300781 277.972656 C 40.863281 277.972656 38.0625 275.171875 38.0625 271.734375 L 38.0625 218.160156 L 87.976562 168.246094 L 114.765625 195.03125 C 117.203125 197.46875 121.152344 197.46875 123.589844 195.03125 L 212.769531 105.847656 L 245.796875 138.875 C 248.234375 141.3125 252.183594 141.3125 254.621094 138.875 L 315.1875 78.308594 Z M 63.019531 277.972656 L 63.019531 261.839844 L 87.976562 236.878906 L 114.765625 263.667969 C 117.203125 266.105469 121.152344 266.105469 123.589844 263.667969 L 212.769531 174.484375 L 245.796875 207.511719 C 248.234375 209.949219 252.183594 209.949219 254.621094 207.511719 L 312.605469 149.527344 L 312.605469 277.972656 Z M 212.769531 334.128906 L 162.855469 334.128906 L 162.855469 290.453125 L 212.769531 290.453125 Z M 256.449219 327.890625 C 263.320312 327.890625 268.925781 333.496094 268.925781 340.371094 C 268.925781 347.242188 263.320312 352.847656 256.449219 352.847656 L 119.175781 352.847656 C 112.304688 352.847656 106.695312 347.242188 106.695312 340.371094 C 106.695312 333.496094 112.304688 327.890625 119.175781 327.890625 L 150.375 327.890625 L 150.375 340.371094 C 150.375 343.808594 153.175781 346.609375 156.613281 346.609375 L 219.011719 346.609375 C 222.445312 346.609375 225.25 343.808594 225.25 340.371094 L 225.25 327.890625 Z M 38.0625 84.546875 C 38.0625 81.109375 40.863281 78.308594 44.300781 78.308594 L 297.542969 78.308594 L 250.207031 125.640625 L 217.183594 92.613281 C 214.746094 90.175781 210.796875 90.175781 208.359375 92.613281 L 119.175781 181.796875 L 92.390625 155.011719 C 89.953125 152.574219 86.003906 152.574219 83.566406 155.011719 L 38.0625 200.515625 Z M 371.148438 10.160156 C 370.394531 9.84375 369.566406 9.671875 368.761719 9.671875 L 331.324219 9.671875 C 327.886719 9.671875 325.082031 12.472656 325.082031 15.910156 C 325.082031 19.347656 327.886719 22.152344 331.324219 22.152344 L 353.699219 22.152344 L 310.019531 65.828125 L 44.300781 65.828125 C 33.96875 65.828125 25.582031 74.210938 25.582031 84.546875 L 25.582031 212.996094 L 2.453125 236.125 C 0.015625 238.5625 0.015625 242.511719 2.453125 244.949219 C 3.671875 246.167969 5.253906 246.777344 6.863281 246.777344 C 8.472656 246.777344 10.054688 246.167969 11.273438 244.949219 L 25.582031 230.640625 L 25.582031 271.734375 C 25.582031 282.070312 33.96875 290.453125 44.300781 290.453125 L 150.375 290.453125 L 150.375 315.410156 L 119.175781 315.410156 C 105.40625 315.410156 94.21875 326.597656 94.21875 340.371094 C 94.21875 354.140625 105.40625 365.328125 119.175781 365.328125 L 256.449219 365.328125 C 270.21875 365.328125 281.40625 354.140625 281.40625 340.371094 C 281.40625 326.597656 270.21875 315.410156 256.449219 315.410156 L 225.25 315.410156 L 225.25 290.453125 L 331.324219 290.453125 C 341.65625 290.453125 350.042969 282.070312 350.042969 271.734375 L 350.042969 84.546875 C 350.042969 74.210938 341.65625 65.828125 331.324219 65.828125 L 327.667969 65.828125 L 362.519531 30.972656 L 362.519531 53.347656 C 362.519531 56.785156 365.324219 59.589844 368.761719 59.589844 C 372.195312 59.589844 375 56.785156 375 53.347656 L 375 15.910156 C 375 15.105469 374.828125 14.277344 374.511719 13.523438 C 373.878906 12.011719 372.660156 10.792969 371.148438 10.160156 " fill-opacity="1" fill-rule="nonzero"/><path fill="#ffffff" d="M 331.324219 78.308594 C 334.757812 78.308594 337.5625 81.109375 337.5625 84.546875 L 337.5625 271.734375 C 337.5625 275.171875 334.757812 277.972656 331.324219 277.972656 L 325.082031 277.972656 L 325.082031 134.464844 C 325.082031 131.929688 323.570312 129.660156 321.230469 128.710938 C 318.890625 127.734375 316.210938 128.273438 314.433594 130.050781 L 250.207031 194.277344 L 217.183594 161.25 C 214.746094 158.8125 210.796875 158.8125 208.359375 161.25 L 119.175781 250.433594 L 92.390625 223.644531 C 89.953125 221.207031 86.003906 221.207031 83.566406 223.644531 L 52.367188 254.84375 C 51.199219 256.015625 50.539062 257.597656 50.539062 259.253906 L 50.539062 277.972656 L 44.300781 277.972656 C 40.863281 277.972656 38.0625 275.171875 38.0625 271.734375 L 38.0625 218.160156 L 87.976562 168.246094 L 114.765625 195.03125 C 117.203125 197.46875 121.152344 197.46875 123.589844 195.03125 L 212.769531 105.847656 L 245.796875 138.875 C 248.234375 141.3125 252.183594 141.3125 254.621094 138.875 L 315.1875 78.308594 Z M 63.019531 277.972656 L 63.019531 261.839844 L 87.976562 236.878906 L 114.765625 263.667969 C 117.203125 266.105469 121.152344 266.105469 123.589844 263.667969 L 212.769531 174.484375 L 245.796875 207.511719 C 248.234375 209.949219 252.183594 209.949219 254.621094 207.511719 L 312.605469 149.527344 L 312.605469 277.972656 Z M 212.769531 334.128906 L 162.855469 334.128906 L 162.855469 290.453125 L 212.769531 290.453125 Z M 256.449219 327.890625 C 263.320312 327.890625 268.925781 333.496094 268.925781 340.371094 C 268.925781 347.242188 263.320312 352.847656 256.449219 352.847656 L 119.175781 352.847656 C 112.304688 352.847656 106.695312 347.242188 106.695312 340.371094 C 106.695312 333.496094 112.304688 327.890625 119.175781 327.890625 L 150.375 327.890625 L 150.375 340.371094 C 150.375 343.808594 153.175781 346.609375 156.613281 346.609375 L 219.011719 346.609375 C 222.445312 346.609375 225.25 343.808594 225.25 340.371094 L 225.25 327.890625 Z M 38.0625 84.546875 C 38.0625 81.109375 40.863281 78.308594 44.300781 78.308594 L 297.542969 78.308594 L 250.207031 125.640625 L 217.183594 92.613281 C 214.746094 90.175781 210.796875 90.175781 208.359375 92.613281 L 119.175781 181.796875 L 92.390625 155.011719 C 89.953125 152.574219 86.003906 152.574219 83.566406 155.011719 L 38.0625 200.515625 Z M 371.148438 10.160156 C 370.394531 9.84375 369.566406 9.671875 368.761719 9.671875 L 331.324219 9.671875 C 327.886719 9.671875 325.082031 12.472656 325.082031 15.910156 C 325.082031 19.347656 327.886719 22.152344 331.324219 22.152344 L 353.699219 22.152344 L 310.019531 65.828125 L 44.300781 65.828125 C 33.96875 65.828125 25.582031 74.210938 25.582031 84.546875 L 25.582031 212.996094 L 2.453125 236.125 C 0.015625 238.5625 0.015625 242.511719 2.453125 244.949219 C 3.671875 246.167969 5.253906 246.777344 6.863281 246.777344 C 8.472656 246.777344 10.054688 246.167969 11.273438 244.949219 L 25.582031 230.640625 L 25.582031 271.734375 C 25.582031 282.070312 33.96875 290.453125 44.300781 290.453125 L 150.375 290.453125 L 150.375 315.410156 L 119.175781 315.410156 C 105.40625 315.410156 94.21875 326.597656 94.21875 340.371094 C 94.21875 354.140625 105.40625 365.328125 119.175781 365.328125 L 256.449219 365.328125 C 270.21875 365.328125 281.40625 354.140625 281.40625 340.371094 C 281.40625 326.597656 270.21875 315.410156 256.449219 315.410156 L 225.25 315.410156 L 225.25 290.453125 L 331.324219 290.453125 C 341.65625 290.453125 350.042969 282.070312 350.042969 271.734375 L 350.042969 84.546875 C 350.042969 74.210938 341.65625 65.828125 331.324219 65.828125 L 327.667969 65.828125 L 362.519531 30.972656 L 362.519531 53.347656 C 362.519531 56.785156 365.324219 59.589844 368.761719 59.589844 C 372.195312 59.589844 375 56.785156 375 53.347656 L 375 15.910156 C 375 15.105469 374.828125 14.277344 374.511719 13.523438 C 373.878906 12.011719 372.660156 10.792969 371.148438 10.160156 " fill-opacity="1" fill-rule="nonzero"/></g></svg>