<svg xmlns="http://www.w3.org/2000/svg" xmlns:xlink="http://www.w3.org/1999/xlink" width="500" zoomAndPan="magnify" viewBox="0 0 375 374.999991" height="500" preserveAspectRatio="xMidYMid meet" version="1.0"><defs><clipPath id="5abe3678cd"><path d="M 0 1.171875 L 375 1.171875 L 375 373.921875 L 0 373.921875 Z M 0 1.171875 " clip-rule="nonzero"/></clipPath></defs><g clip-path="url(#5abe3678cd)"><path fill="#ffffff" d="M 263.914062 181.292969 L 284.867188 217.5625 L 242.964844 217.5625 Z M 233.039062 229.027344 L 294.792969 229.027344 C 299.078125 229.027344 301.957031 224.25 299.703125 220.453125 L 268.878906 166.984375 C 266.734375 163.242188 261.148438 163.15625 258.953125 166.984375 L 228.078125 220.453125 C 225.851562 224.292969 228.753906 229.027344 233.039062 229.027344 Z M 249.320312 93.144531 C 257.417969 85.050781 270.414062 85.050781 278.511719 93.144531 C 286.554688 101.1875 286.554688 114.242188 278.511719 122.285156 C 270.464844 130.332031 257.363281 130.332031 249.320312 122.285156 C 241.277344 114.242188 241.277344 101.1875 249.320312 93.144531 Z M 263.914062 139.769531 C 272.105469 139.769531 280.339844 136.640625 286.601562 130.378906 C 299.078125 117.902344 299.078125 97.527344 286.601562 85.050781 C 274.078125 72.527344 253.753906 72.527344 241.230469 85.050781 C 228.753906 97.527344 228.753906 117.902344 241.230469 130.378906 C 247.488281 136.640625 255.679688 139.769531 263.914062 139.769531 Z M 194.792969 127.96875 L 154.332031 127.96875 L 154.332031 87.460938 L 194.792969 87.460938 Z M 200.527344 76.046875 L 148.601562 76.046875 C 145.421875 76.046875 142.871094 78.597656 142.871094 81.777344 L 142.871094 133.652344 C 142.871094 136.832031 145.421875 139.382812 148.601562 139.382812 L 200.527344 139.382812 C 203.65625 139.382812 206.257812 136.832031 206.257812 133.652344 L 206.257812 81.777344 C 206.257812 78.597656 203.65625 76.046875 200.527344 76.046875 Z M 3.132812 90.351562 C 3.132812 93.480469 5.6875 96.035156 8.867188 96.035156 C 11.996094 96.035156 14.550781 93.480469 14.550781 90.351562 L 14.550781 12.609375 L 275.667969 12.609375 C 278.847656 12.609375 281.402344 10.054688 281.402344 6.875 C 281.402344 3.695312 278.847656 1.144531 275.667969 1.144531 L 8.867188 1.144531 C 5.6875 1.144531 3.132812 3.695312 3.132812 6.875 Z M 376.144531 52.347656 C 376.144531 49.167969 373.546875 46.613281 370.414062 46.613281 C 367.234375 46.613281 364.683594 49.167969 364.683594 52.347656 L 364.683594 313.417969 L 244.457031 313.417969 C 241.324219 313.417969 238.773438 316.019531 238.773438 319.148438 C 238.773438 322.328125 241.324219 324.882812 244.457031 324.882812 L 370.414062 324.882812 C 373.546875 324.882812 376.144531 322.328125 376.144531 319.148438 Z M 194.601562 240.632812 C 204.957031 240.632812 213.339844 249.59375 213.339844 260.578125 L 213.339844 275.894531 L 308.617188 275.894531 C 320.417969 275.894531 330.050781 266.261719 330.050781 254.460938 L 330.050781 68.964844 C 330.050781 57.164062 320.417969 47.53125 308.617188 47.53125 L 66.570312 47.53125 C 54.769531 47.53125 45.136719 57.164062 45.136719 68.964844 L 45.136719 115.832031 L 99.613281 115.832031 C 109.730469 115.832031 117.96875 124.070312 117.96875 134.183594 L 117.96875 143.527344 C 127.601562 144.347656 135.164062 152.96875 135.164062 163.421875 L 135.164062 217.128906 C 145.78125 212.386719 157.5 218.695312 160.5 230.039062 C 170.925781 224.722656 183.425781 230.785156 186.558594 242.5625 C 189.015625 241.308594 191.761719 240.632812 194.601562 240.632812 Z M 201.488281 291.644531 C 199.128906 344.917969 184.246094 362.789062 142.433594 362.308594 C 99.371094 361.875 96.628906 338.367188 92.484375 302.820312 C 92.050781 299.113281 91.617188 295.257812 91.136719 291.402344 C 91.136719 291.308594 91.089844 291.257812 91.089844 291.164062 C 88.199219 274.160156 79.867188 262.308594 65.65625 254.941406 C 47.613281 245.566406 49.339844 233.746094 61.222656 233.746094 C 64.257812 233.746094 67.824219 234.566406 71.675781 236.445312 L 100.480469 252.433594 C 104.351562 254.554688 109.007812 251.683594 109.007812 247.425781 L 109.101562 163.421875 C 109.101562 158.796875 112.476562 154.894531 116.425781 154.894531 C 120.421875 154.894531 123.746094 158.796875 123.746094 163.421875 L 123.746094 235.527344 C 123.746094 238.660156 126.296875 241.210938 129.476562 241.210938 C 132.609375 241.210938 135.160156 238.660156 135.160156 235.527344 C 135.160156 230.90625 138.53125 227.003906 142.480469 227.003906 C 146.480469 227.003906 149.804688 230.90625 149.804688 235.527344 L 149.804688 248.050781 C 149.804688 251.230469 152.355469 253.785156 155.535156 253.785156 C 158.667969 253.785156 161.21875 251.230469 161.21875 248.050781 C 161.21875 243.429688 164.589844 239.527344 168.539062 239.527344 C 172.539062 239.527344 175.863281 243.429688 175.863281 248.050781 L 175.863281 260.574219 C 175.863281 263.753906 178.414062 266.308594 181.59375 266.308594 C 184.726562 266.308594 187.277344 263.753906 187.277344 260.574219 C 187.277344 255.953125 190.648438 252.050781 194.597656 252.050781 C 198.546875 252.050781 201.921875 255.953125 201.921875 260.574219 C 201.921875 269.988281 202.070312 278.539062 201.488281 291.644531 Z M 17.199219 322.425781 C 13.394531 322.425781 10.261719 319.292969 10.261719 315.441406 L 10.261719 134.183594 C 10.261719 130.378906 13.394531 127.25 17.199219 127.25 L 99.613281 127.25 C 103.421875 127.25 106.550781 130.378906 106.550781 134.183594 L 106.550781 146.46875 C 101.25 150.03125 97.6875 156.292969 97.6875 163.421875 L 97.542969 237.746094 L 77.121094 226.378906 C 77.023438 226.328125 76.976562 226.328125 76.878906 226.28125 C 60.695312 218.285156 47.160156 223.535156 42.582031 232.542969 C 37.910156 241.742188 41.621094 255.328125 60.355469 265.058594 C 71.339844 270.789062 77.503906 279.652344 79.816406 292.996094 C 80.296875 296.75 80.730469 300.507812 81.164062 304.121094 C 81.839844 310.335938 82.5625 316.5 83.527344 322.425781 Z M 308.613281 287.359375 C 326.726562 287.359375 341.464844 272.570312 341.464844 254.460938 L 341.464844 68.964844 C 341.464844 50.851562 326.726562 36.113281 308.613281 36.113281 L 66.570312 36.113281 C 48.460938 36.113281 33.71875 50.851562 33.71875 68.964844 L 33.71875 115.832031 L 17.199219 115.832031 C 7.082031 115.832031 -1.152344 124.070312 -1.152344 134.183594 L -1.152344 315.441406 C -1.152344 325.601562 7.082031 333.839844 17.199219 333.839844 L 85.886719 333.839844 C 91.941406 357.261719 105.46875 373.773438 143.734375 373.773438 C 200.554688 373.773438 211.578125 337.777344 213.097656 287.359375 Z M 308.613281 287.359375 " fill-opacity="1" fill-rule="evenodd"/><path fill="#ffffff" d="M 263.914062 181.292969 L 284.867188 217.5625 L 242.964844 217.5625 Z M 233.039062 229.027344 L 294.792969 229.027344 C 299.078125 229.027344 301.957031 224.25 299.703125 220.453125 L 268.878906 166.984375 C 266.734375 163.242188 261.148438 163.15625 258.953125 166.984375 L 228.078125 220.453125 C 225.851562 224.292969 228.753906 229.027344 233.039062 229.027344 Z M 249.320312 93.144531 C 257.417969 85.050781 270.414062 85.050781 278.511719 93.144531 C 286.554688 101.1875 286.554688 114.242188 278.511719 122.285156 C 270.464844 130.332031 257.363281 130.332031 249.320312 122.285156 C 241.277344 114.242188 241.277344 101.1875 249.320312 93.144531 Z M 263.914062 139.769531 C 272.105469 139.769531 280.339844 136.640625 286.601562 130.378906 C 299.078125 117.902344 299.078125 97.527344 286.601562 85.050781 C 274.078125 72.527344 253.753906 72.527344 241.230469 85.050781 C 228.753906 97.527344 228.753906 117.902344 241.230469 130.378906 C 247.488281 136.640625 255.679688 139.769531 263.914062 139.769531 Z M 194.792969 127.96875 L 154.332031 127.96875 L 154.332031 87.460938 L 194.792969 87.460938 Z M 200.527344 76.046875 L 148.601562 76.046875 C 145.421875 76.046875 142.871094 78.597656 142.871094 81.777344 L 142.871094 133.652344 C 142.871094 136.832031 145.421875 139.382812 148.601562 139.382812 L 200.527344 139.382812 C 203.65625 139.382812 206.257812 136.832031 206.257812 133.652344 L 206.257812 81.777344 C 206.257812 78.597656 203.65625 76.046875 200.527344 76.046875 Z M 3.132812 90.351562 C 3.132812 93.480469 5.6875 96.035156 8.867188 96.035156 C 11.996094 96.035156 14.550781 93.480469 14.550781 90.351562 L 14.550781 12.609375 L 275.667969 12.609375 C 278.847656 12.609375 281.402344 10.054688 281.402344 6.875 C 281.402344 3.695312 278.847656 1.144531 275.667969 1.144531 L 8.867188 1.144531 C 5.6875 1.144531 3.132812 3.695312 3.132812 6.875 Z M 376.144531 52.347656 C 376.144531 49.167969 373.546875 46.613281 370.414062 46.613281 C 367.234375 46.613281 364.683594 49.167969 364.683594 52.347656 L 364.683594 313.417969 L 244.457031 313.417969 C 241.324219 313.417969 238.773438 316.019531 238.773438 319.148438 C 238.773438 322.328125 241.324219 324.882812 244.457031 324.882812 L 370.414062 324.882812 C 373.546875 324.882812 376.144531 322.328125 376.144531 319.148438 Z M 194.601562 240.632812 C 204.957031 240.632812 213.339844 249.59375 213.339844 260.578125 L 213.339844 275.894531 L 308.617188 275.894531 C 320.417969 275.894531 330.050781 266.261719 330.050781 254.460938 L 330.050781 68.964844 C 330.050781 57.164062 320.417969 47.53125 308.617188 47.53125 L 66.570312 47.53125 C 54.769531 47.53125 45.136719 57.164062 45.136719 68.964844 L 45.136719 115.832031 L 99.613281 115.832031 C 109.730469 115.832031 117.96875 124.070312 117.96875 134.183594 L 117.96875 143.527344 C 127.601562 144.347656 135.164062 152.96875 135.164062 163.421875 L 135.164062 217.128906 C 145.78125 212.386719 157.5 218.695312 160.5 230.039062 C 170.925781 224.722656 183.425781 230.785156 186.558594 242.5625 C 189.015625 241.308594 191.761719 240.632812 194.601562 240.632812 Z M 201.488281 291.644531 C 199.128906 344.917969 184.246094 362.789062 142.433594 362.308594 C 99.371094 361.875 96.628906 338.367188 92.484375 302.820312 C 92.050781 299.113281 91.617188 295.257812 91.136719 291.402344 C 91.136719 291.308594 91.089844 291.257812 91.089844 291.164062 C 88.199219 274.160156 79.867188 262.308594 65.65625 254.941406 C 47.613281 245.566406 49.339844 233.746094 61.222656 233.746094 C 64.257812 233.746094 67.824219 234.566406 71.675781 236.445312 L 100.480469 252.433594 C 104.351562 254.554688 109.007812 251.683594 109.007812 247.425781 L 109.101562 163.421875 C 109.101562 158.796875 112.476562 154.894531 116.425781 154.894531 C 120.421875 154.894531 123.746094 158.796875 123.746094 163.421875 L 123.746094 235.527344 C 123.746094 238.660156 126.296875 241.210938 129.476562 241.210938 C 132.609375 241.210938 135.160156 238.660156 135.160156 235.527344 C 135.160156 230.90625 138.53125 227.003906 142.480469 227.003906 C 146.480469 227.003906 149.804688 230.90625 149.804688 235.527344 L 149.804688 248.050781 C 149.804688 251.230469 152.355469 253.785156 155.535156 253.785156 C 158.667969 253.785156 161.21875 251.230469 161.21875 248.050781 C 161.21875 243.429688 164.589844 239.527344 168.539062 239.527344 C 172.539062 239.527344 175.863281 243.429688 175.863281 248.050781 L 175.863281 260.574219 C 175.863281 263.753906 178.414062 266.308594 181.59375 266.308594 C 184.726562 266.308594 187.277344 263.753906 187.277344 260.574219 C 187.277344 255.953125 190.648438 252.050781 194.597656 252.050781 C 198.546875 252.050781 201.921875 255.953125 201.921875 260.574219 C 201.921875 269.988281 202.070312 278.539062 201.488281 291.644531 Z M 17.199219 322.425781 C 13.394531 322.425781 10.261719 319.292969 10.261719 315.441406 L 10.261719 134.183594 C 10.261719 130.378906 13.394531 127.25 17.199219 127.25 L 99.613281 127.25 C 103.421875 127.25 106.550781 130.378906 106.550781 134.183594 L 106.550781 146.46875 C 101.25 150.03125 97.6875 156.292969 97.6875 163.421875 L 97.542969 237.746094 L 77.121094 226.378906 C 77.023438 226.328125 76.976562 226.328125 76.878906 226.28125 C 60.695312 218.285156 47.160156 223.535156 42.582031 232.542969 C 37.910156 241.742188 41.621094 255.328125 60.355469 265.058594 C 71.339844 270.789062 77.503906 279.652344 79.816406 292.996094 C 80.296875 296.75 80.730469 300.507812 81.164062 304.121094 C 81.839844 310.335938 82.5625 316.5 83.527344 322.425781 Z M 308.613281 287.359375 C 326.726562 287.359375 341.464844 272.570312 341.464844 254.460938 L 341.464844 68.964844 C 341.464844 50.851562 326.726562 36.113281 308.613281 36.113281 L 66.570312 36.113281 C 48.460938 36.113281 33.71875 50.851562 33.71875 68.964844 L 33.71875 115.832031 L 17.199219 115.832031 C 7.082031 115.832031 -1.152344 124.070312 -1.152344 134.183594 L -1.152344 315.441406 C -1.152344 325.601562 7.082031 333.839844 17.199219 333.839844 L 85.886719 333.839844 C 91.941406 357.261719 105.46875 373.773438 143.734375 373.773438 C 200.554688 373.773438 211.578125 337.777344 213.097656 287.359375 Z M 308.613281 287.359375 " fill-opacity="1" fill-rule="evenodd"/></g></svg>