<svg xmlns="http://www.w3.org/2000/svg" xmlns:xlink="http://www.w3.org/1999/xlink" width="500" zoomAndPan="magnify" viewBox="0 0 375 374.999991" height="500" preserveAspectRatio="xMidYMid meet" version="1.0"><defs><clipPath id="33231676cc"><path d="M 0 17.578125 L 375 17.578125 L 375 357.328125 L 0 357.328125 Z M 0 17.578125 " clip-rule="nonzero"/></clipPath><clipPath id="e8dc333be2"><path d="M 0 17.578125 L 375 17.578125 L 375 357.328125 L 0 357.328125 Z M 0 17.578125 " clip-rule="nonzero"/></clipPath></defs><g clip-path="url(#33231676cc)"><path fill="#ffffff" d="M 353.328125 245.839844 L 21.671875 245.839844 L 21.671875 38.839844 L 353.328125 38.839844 Z M 223.957031 279.945312 L 151.042969 279.945312 C 147.148438 279.945312 143.984375 276.792969 143.984375 272.894531 C 143.984375 269 147.148438 265.835938 151.042969 265.835938 L 223.957031 265.835938 C 227.859375 265.835938 231.015625 269 231.015625 272.894531 C 231.015625 276.792969 227.859375 279.945312 223.957031 279.945312 Z M 362.394531 17.675781 L 12.605469 17.675781 C 5.933594 17.675781 0.5 23.113281 0.5 29.785156 L 0.5 287.835938 C 0.5 294.507812 5.933594 299.941406 12.605469 299.941406 L 175.734375 299.941406 L 175.734375 332.445312 L 156.03125 332.445312 C 155.484375 332.445312 154.949219 332.609375 154.503906 332.929688 L 126.226562 352.710938 C 124.09375 354.210938 125.148438 357.570312 127.765625 357.570312 L 247.234375 357.570312 C 249.851562 357.570312 250.90625 354.210938 248.773438 352.710938 L 220.496094 332.929688 C 220.050781 332.609375 219.515625 332.445312 218.96875 332.445312 L 199.265625 332.445312 L 199.265625 299.941406 L 362.394531 299.941406 C 369.066406 299.941406 374.5 294.507812 374.5 287.835938 L 374.5 29.785156 C 374.5 23.113281 369.066406 17.675781 362.394531 17.675781 " fill-opacity="1" fill-rule="nonzero"/></g><path fill="#ffffff" d="M 101.253906 92.683594 C 116.207031 92.683594 128.359375 104.847656 128.359375 119.789062 C 128.359375 134.738281 116.207031 146.894531 101.253906 146.894531 C 86.316406 146.894531 74.160156 134.738281 74.160156 119.789062 C 74.160156 104.847656 86.316406 92.683594 101.253906 92.683594 Z M 61.859375 142.878906 L 53.347656 154.011719 L 67.039062 167.707031 L 78.171875 159.195312 C 81.746094 161.308594 85.625 162.933594 89.734375 164.007812 L 91.582031 177.875 L 110.9375 177.875 L 112.789062 164.007812 C 116.898438 162.933594 120.773438 161.308594 124.347656 159.195312 L 135.480469 167.707031 L 149.175781 154.011719 L 140.660156 142.878906 C 142.777344 139.304688 144.402344 135.429688 145.484375 131.320312 L 159.34375 129.46875 L 159.34375 110.105469 L 145.484375 108.265625 C 144.402344 104.15625 142.777344 100.28125 140.660156 96.695312 L 149.175781 85.574219 L 135.480469 71.878906 L 124.347656 80.390625 C 120.773438 78.277344 116.898438 76.652344 112.789062 75.570312 L 110.9375 61.710938 L 91.582031 61.710938 L 89.734375 75.570312 C 85.625 76.652344 81.746094 78.277344 78.171875 80.390625 L 67.039062 71.878906 L 53.347656 85.574219 L 61.859375 96.695312 C 59.746094 100.28125 58.117188 104.15625 57.039062 108.265625 L 43.179688 110.105469 L 43.179688 129.46875 L 57.039062 131.320312 C 58.117188 135.429688 59.746094 139.304688 61.859375 142.878906 " fill-opacity="1" fill-rule="nonzero"/><path fill="#ffffff" d="M 292.824219 157.988281 L 317.058594 182.21875 L 298.40625 200.871094 L 301.96875 212.070312 L 331.820312 182.21875 L 300.207031 150.613281 L 292.824219 157.988281 " fill-opacity="1" fill-rule="nonzero"/><path fill="#ffffff" d="M 260.460938 163.566406 L 256.894531 152.367188 L 227.042969 182.21875 L 258.648438 213.835938 L 266.03125 206.441406 L 241.808594 182.21875 L 260.460938 163.566406 " fill-opacity="1" fill-rule="nonzero"/><path fill="#ffffff" d="M 261.921875 141.671875 L 288.539062 225.445312 L 296.945312 222.765625 L 270.324219 139.003906 L 261.921875 141.671875 " fill-opacity="1" fill-rule="nonzero"/><path fill="#ffffff" d="M 331.820312 56.722656 L 174.742188 56.722656 L 174.742188 69.191406 L 331.820312 69.191406 L 331.820312 56.722656 " fill-opacity="1" fill-rule="nonzero"/><path fill="#ffffff" d="M 200.257812 191.363281 L 43.179688 191.363281 L 43.179688 203.832031 L 200.257812 203.832031 L 200.257812 191.363281 " fill-opacity="1" fill-rule="nonzero"/><path fill="#ffffff" d="M 108.003906 226.273438 L 200.257812 226.273438 L 200.257812 213.804688 L 108.003906 213.804688 L 108.003906 226.273438 " fill-opacity="1" fill-rule="nonzero"/><path fill="#ffffff" d="M 212.140625 94.125 L 331.820312 94.125 L 331.820312 81.65625 L 212.140625 81.65625 L 212.140625 94.125 " fill-opacity="1" fill-rule="nonzero"/><path fill="#ffffff" d="M 229.59375 119.058594 L 331.820312 119.058594 L 331.820312 106.589844 L 229.59375 106.589844 L 229.59375 119.058594 " fill-opacity="1" fill-rule="nonzero"/><g clip-path="url(#e8dc333be2)"><path fill="#ffffff" d="M 353.328125 245.839844 L 21.671875 245.839844 L 21.671875 38.839844 L 353.328125 38.839844 Z M 223.957031 279.945312 L 151.042969 279.945312 C 147.148438 279.945312 143.984375 276.792969 143.984375 272.894531 C 143.984375 269 147.148438 265.835938 151.042969 265.835938 L 223.957031 265.835938 C 227.859375 265.835938 231.015625 269 231.015625 272.894531 C 231.015625 276.792969 227.859375 279.945312 223.957031 279.945312 Z M 362.394531 17.675781 L 12.605469 17.675781 C 5.933594 17.675781 0.5 23.113281 0.5 29.785156 L 0.5 287.835938 C 0.5 294.507812 5.933594 299.941406 12.605469 299.941406 L 175.734375 299.941406 L 175.734375 332.445312 L 156.03125 332.445312 C 155.484375 332.445312 154.949219 332.609375 154.503906 332.929688 L 126.226562 352.710938 C 124.09375 354.210938 125.148438 357.570312 127.765625 357.570312 L 247.234375 357.570312 C 249.851562 357.570312 250.90625 354.210938 248.773438 352.710938 L 220.496094 332.929688 C 220.050781 332.609375 219.515625 332.445312 218.96875 332.445312 L 199.265625 332.445312 L 199.265625 299.941406 L 362.394531 299.941406 C 369.066406 299.941406 374.5 294.507812 374.5 287.835938 L 374.5 29.785156 C 374.5 23.113281 369.066406 17.675781 362.394531 17.675781 " fill-opacity="1" fill-rule="nonzero"/></g><path fill="#ffffff" d="M 101.253906 92.683594 C 116.207031 92.683594 128.359375 104.847656 128.359375 119.789062 C 128.359375 134.738281 116.207031 146.894531 101.253906 146.894531 C 86.316406 146.894531 74.160156 134.738281 74.160156 119.789062 C 74.160156 104.847656 86.316406 92.683594 101.253906 92.683594 Z M 61.859375 142.878906 L 53.347656 154.011719 L 67.039062 167.707031 L 78.171875 159.195312 C 81.746094 161.308594 85.625 162.933594 89.734375 164.007812 L 91.582031 177.875 L 110.9375 177.875 L 112.789062 164.007812 C 116.898438 162.933594 120.773438 161.308594 124.347656 159.195312 L 135.480469 167.707031 L 149.175781 154.011719 L 140.660156 142.878906 C 142.777344 139.304688 144.402344 135.429688 145.484375 131.320312 L 159.34375 129.46875 L 159.34375 110.105469 L 145.484375 108.265625 C 144.402344 104.15625 142.777344 100.28125 140.660156 96.695312 L 149.175781 85.574219 L 135.480469 71.878906 L 124.347656 80.390625 C 120.773438 78.277344 116.898438 76.652344 112.789062 75.570312 L 110.9375 61.710938 L 91.582031 61.710938 L 89.734375 75.570312 C 85.625 76.652344 81.746094 78.277344 78.171875 80.390625 L 67.039062 71.878906 L 53.347656 85.574219 L 61.859375 96.695312 C 59.746094 100.28125 58.117188 104.15625 57.039062 108.265625 L 43.179688 110.105469 L 43.179688 129.46875 L 57.039062 131.320312 C 58.117188 135.429688 59.746094 139.304688 61.859375 142.878906 " fill-opacity="1" fill-rule="nonzero"/><path fill="#ffffff" d="M 292.824219 157.988281 L 317.058594 182.21875 L 298.40625 200.871094 L 301.96875 212.070312 L 331.820312 182.21875 L 300.207031 150.613281 L 292.824219 157.988281 " fill-opacity="1" fill-rule="nonzero"/><path fill="#ffffff" d="M 260.460938 163.566406 L 256.894531 152.367188 L 227.042969 182.21875 L 258.648438 213.835938 L 266.03125 206.441406 L 241.808594 182.21875 L 260.460938 163.566406 " fill-opacity="1" fill-rule="nonzero"/><path fill="#ffffff" d="M 261.921875 141.671875 L 288.539062 225.445312 L 296.945312 222.765625 L 270.324219 139.003906 L 261.921875 141.671875 " fill-opacity="1" fill-rule="nonzero"/><path fill="#ffffff" d="M 331.820312 56.722656 L 174.742188 56.722656 L 174.742188 69.191406 L 331.820312 69.191406 L 331.820312 56.722656 " fill-opacity="1" fill-rule="nonzero"/><path fill="#ffffff" d="M 200.257812 191.363281 L 43.179688 191.363281 L 43.179688 203.832031 L 200.257812 203.832031 L 200.257812 191.363281 " fill-opacity="1" fill-rule="nonzero"/><path fill="#ffffff" d="M 108.003906 226.273438 L 200.257812 226.273438 L 200.257812 213.804688 L 108.003906 213.804688 L 108.003906 226.273438 " fill-opacity="1" fill-rule="nonzero"/><path fill="#ffffff" d="M 212.140625 94.125 L 331.820312 94.125 L 331.820312 81.65625 L 212.140625 81.65625 L 212.140625 94.125 " fill-opacity="1" fill-rule="nonzero"/><path fill="#ffffff" d="M 229.59375 119.058594 L 331.820312 119.058594 L 331.820312 106.589844 L 229.59375 106.589844 L 229.59375 119.058594 " fill-opacity="1" fill-rule="nonzero"/></svg>