<svg xmlns="http://www.w3.org/2000/svg" xmlns:xlink="http://www.w3.org/1999/xlink" width="500" zoomAndPan="magnify" viewBox="0 0 375 374.999991" height="500" preserveAspectRatio="xMidYMid meet" version="1.0"><defs><clipPath id="15d54127ec"><path d="M 1.703125 1.703125 L 373.296875 1.703125 L 373.296875 373.296875 L 1.703125 373.296875 Z M 1.703125 1.703125 " clip-rule="nonzero"/></clipPath><clipPath id="e9ad957fa2"><path d="M 187.5 1.703125 C 84.886719 1.703125 1.703125 84.886719 1.703125 187.5 C 1.703125 290.113281 84.886719 373.296875 187.5 373.296875 C 290.113281 373.296875 373.296875 290.113281 373.296875 187.5 C 373.296875 84.886719 290.113281 1.703125 187.5 1.703125 Z M 187.5 1.703125 " clip-rule="nonzero"/></clipPath><clipPath id="6a7e9bac19"><path d="M 45.679688 137 L 178 137 L 178 301.84375 L 45.679688 301.84375 Z M 45.679688 137 " clip-rule="nonzero"/></clipPath><clipPath id="13a0ca1739"><path d="M 139 73.511719 L 272 73.511719 L 272 301.84375 L 139 301.84375 Z M 139 73.511719 " clip-rule="nonzero"/></clipPath><clipPath id="abc0bdaac3"><path d="M 244 137 L 329.320312 137 L 329.320312 221 L 244 221 Z M 244 137 " clip-rule="nonzero"/></clipPath></defs><g clip-path="url(#15d54127ec)"><g clip-path="url(#e9ad957fa2)"><path fill="#8e00ff" d="M 1.703125 1.703125 L 373.296875 1.703125 L 373.296875 373.296875 L 1.703125 373.296875 Z M 1.703125 1.703125 " fill-opacity="1" fill-rule="nonzero"/></g></g><g clip-path="url(#6a7e9bac19)"><path fill="#ffffff" d="M 140.601562 301.488281 L 45.679688 137.078125 L 119.082031 137.078125 L 177.300781 237.917969 Z M 140.601562 301.488281 " fill-opacity="1" fill-rule="evenodd"/></g><g clip-path="url(#13a0ca1739)"><path fill="#ffffff" d="M 234.398438 301.488281 L 139.476562 137.078125 L 176.175781 73.511719 L 271.097656 237.917969 Z M 234.398438 301.488281 " fill-opacity="1" fill-rule="evenodd"/></g><g clip-path="url(#abc0bdaac3)"><path fill="#ffffff" d="M 281.296875 220.257812 L 329.320312 137.078125 L 255.917969 137.078125 L 244.59375 156.691406 Z M 281.296875 220.257812 " fill-opacity="1" fill-rule="evenodd"/></g></svg>