<svg xmlns="http://www.w3.org/2000/svg" xmlns:xlink="http://www.w3.org/1999/xlink" width="500" zoomAndPan="magnify" viewBox="0 0 375 374.999991" height="500" preserveAspectRatio="xMidYMid meet" version="1.0"><path fill="#ffffff" d="M 270.25 259.265625 L 253.671875 242.695312 L 21.613281 242.695312 C 18.832031 242.695312 16.578125 240.429688 16.578125 237.648438 L 16.578125 73.300781 C 16.578125 70.53125 18.832031 68.261719 21.613281 68.261719 L 290.703125 68.261719 C 293.472656 68.261719 295.738281 70.53125 295.738281 73.300781 L 295.738281 203.335938 L 312.316406 219.910156 L 312.316406 73.300781 C 312.316406 61.382812 302.617188 51.6875 290.703125 51.6875 L 21.613281 51.6875 C 9.699219 51.6875 0 61.382812 0 73.300781 L 0 237.648438 C 0 249.574219 9.699219 259.265625 21.613281 259.265625 L 120.742188 259.265625 L 120.742188 275.09375 L 112.082031 275.09375 C 96.472656 275.09375 83.820312 287.738281 83.820312 303.34375 L 228.496094 303.34375 C 228.496094 287.738281 215.839844 275.09375 200.234375 275.09375 L 191.574219 275.09375 L 191.574219 259.265625 L 270.25 259.265625 " fill-opacity="1" fill-rule="nonzero"/><path fill="#ffffff" d="M 48.730469 91.15625 C 48.730469 86.59375 45.03125 82.890625 40.46875 82.890625 C 35.902344 82.890625 32.203125 86.59375 32.203125 91.15625 C 32.203125 95.71875 35.902344 99.417969 40.46875 99.417969 C 45.03125 99.417969 48.730469 95.71875 48.730469 91.15625 " fill-opacity="1" fill-rule="nonzero"/><path fill="#ffffff" d="M 78.746094 91.15625 C 78.746094 86.59375 75.042969 82.890625 70.480469 82.890625 C 65.917969 82.890625 62.21875 86.59375 62.21875 91.15625 C 62.21875 95.71875 65.917969 99.417969 70.480469 99.417969 C 75.042969 99.417969 78.746094 95.71875 78.746094 91.15625 " fill-opacity="1" fill-rule="nonzero"/><path fill="#ffffff" d="M 100.496094 99.417969 C 105.058594 99.417969 108.757812 95.71875 108.757812 91.15625 C 108.757812 86.59375 105.058594 82.890625 100.496094 82.890625 C 95.933594 82.890625 92.230469 86.59375 92.230469 91.15625 C 92.230469 95.71875 95.933594 99.417969 100.496094 99.417969 " fill-opacity="1" fill-rule="nonzero"/><path fill="#ffffff" d="M 255.183594 97.714844 L 264.292969 86.882812 C 259.757812 84.34375 254.535156 82.890625 248.964844 82.890625 C 236.769531 82.890625 226.167969 89.875 220.957031 100.058594 L 234.722656 103.75 C 237.960938 99.398438 243.144531 96.582031 248.964844 96.582031 C 251.15625 96.582031 253.246094 96.988281 255.183594 97.714844 " fill-opacity="1" fill-rule="nonzero"/><path fill="#ffffff" d="M 280.414062 114.339844 C 280.414062 106.859375 277.789062 99.972656 273.398438 94.574219 L 264.300781 105.398438 C 265.84375 108.023438 266.722656 111.074219 266.722656 114.339844 C 266.722656 115.066406 266.683594 115.78125 266.597656 116.488281 L 278.902344 123.980469 C 279.890625 120.9375 280.414062 117.710938 280.414062 114.339844 " fill-opacity="1" fill-rule="nonzero"/><path fill="#ffffff" d="M 239.78125 144.410156 L 241.980469 130.664062 C 235.886719 128.046875 231.535156 122.117188 231.226562 115.152344 L 217.644531 111.519531 C 217.566406 112.449219 217.519531 113.390625 217.519531 114.339844 C 217.519531 128.484375 226.90625 140.476562 239.78125 144.410156 " fill-opacity="1" fill-rule="nonzero"/><path fill="#ffffff" d="M 273.136719 134.433594 L 261.222656 127.1875 C 258.148438 130.113281 254.03125 131.953125 249.480469 132.085938 L 247.300781 145.75 C 247.851562 145.765625 248.402344 145.785156 248.964844 145.785156 C 258.671875 145.785156 267.363281 141.367188 273.136719 134.433594 " fill-opacity="1" fill-rule="nonzero"/><path fill="#ffffff" d="M 57.101562 227.953125 L 69.597656 227.953125 L 69.597656 147.257812 L 57.101562 147.257812 L 57.101562 227.953125 " fill-opacity="1" fill-rule="nonzero"/><path fill="#ffffff" d="M 82.011719 227.953125 L 94.496094 227.953125 L 94.496094 127.089844 L 82.011719 127.089844 L 82.011719 227.953125 " fill-opacity="1" fill-rule="nonzero"/><path fill="#ffffff" d="M 119.40625 177.390625 L 106.910156 177.390625 L 106.910156 227.953125 L 119.40625 227.953125 L 119.40625 177.390625 " fill-opacity="1" fill-rule="nonzero"/><path fill="#ffffff" d="M 32.203125 227.953125 L 44.699219 227.953125 L 44.699219 173.707031 L 32.203125 173.707031 L 32.203125 227.953125 " fill-opacity="1" fill-rule="nonzero"/><path fill="#ffffff" d="M 222.175781 162.277344 L 142.96875 162.277344 L 142.96875 177.496094 L 202.609375 177.496094 C 205.398438 173.195312 210.25 170.394531 215.597656 170.394531 C 219.71875 170.394531 221.691406 166.859375 222.175781 162.277344 " fill-opacity="1" fill-rule="nonzero"/><path fill="#ffffff" d="M 142.96875 190.109375 L 142.96875 195.769531 L 199.671875 195.769531 C 199.496094 193.898438 199.449219 192.007812 199.535156 190.109375 L 142.96875 190.109375 " fill-opacity="1" fill-rule="nonzero"/><path fill="#ffffff" d="M 142.96875 211.859375 L 204.3125 211.859375 C 203.371094 210.027344 202.570312 208.140625 201.902344 206.203125 L 142.96875 206.203125 L 142.96875 211.859375 " fill-opacity="1" fill-rule="nonzero"/><path fill="#ffffff" d="M 142.96875 227.953125 L 218.351562 227.953125 C 216.25 226.480469 214.253906 224.8125 212.394531 222.953125 C 212.179688 222.730469 211.964844 222.515625 211.753906 222.304688 L 142.96875 222.304688 L 142.96875 227.953125 " fill-opacity="1" fill-rule="nonzero"/><path fill="#ffffff" d="M 353.945312 302.257812 C 349.886719 306.320312 344.460938 308.179688 339.132812 307.851562 C 334.617188 307.570312 330.179688 305.707031 326.730469 302.257812 C 319.234375 294.761719 319.234375 282.542969 326.730469 275.046875 C 334.230469 267.539062 346.445312 267.539062 353.945312 275.046875 C 357.394531 278.484375 359.253906 282.914062 359.535156 287.425781 C 359.875 292.753906 358.015625 298.199219 353.945312 302.257812 Z M 362.753906 266.238281 C 354.070312 257.558594 341.5625 254.972656 330.597656 258.488281 L 272.050781 199.945312 C 274.890625 189.9375 272.371094 178.734375 264.496094 170.859375 C 257.113281 163.476562 246.816406 160.792969 237.320312 162.820312 C 236.46875 163.003906 236.148438 164.050781 236.769531 164.660156 L 256.636719 184.53125 C 257.8125 185.703125 257.8125 187.601562 256.636719 188.773438 L 240.46875 204.941406 C 239.296875 206.113281 237.398438 206.113281 236.226562 204.941406 L 216.355469 185.070312 C 215.746094 184.453125 214.699219 184.78125 214.515625 185.625 C 212.488281 195.117188 215.164062 205.425781 222.546875 212.800781 C 230.414062 220.675781 241.621094 223.195312 251.628906 220.355469 L 310.183594 278.902344 C 306.65625 289.859375 309.234375 302.375 317.925781 311.066406 C 330.289062 323.429688 350.390625 323.429688 362.753906 311.066406 C 375.113281 298.714844 375.113281 278.601562 362.753906 266.238281 " fill-opacity="1" fill-rule="nonzero"/><path fill="#ffffff" d="M 270.25 259.265625 L 253.671875 242.695312 L 21.613281 242.695312 C 18.832031 242.695312 16.578125 240.429688 16.578125 237.648438 L 16.578125 73.300781 C 16.578125 70.53125 18.832031 68.261719 21.613281 68.261719 L 290.703125 68.261719 C 293.472656 68.261719 295.738281 70.53125 295.738281 73.300781 L 295.738281 203.335938 L 312.316406 219.910156 L 312.316406 73.300781 C 312.316406 61.382812 302.617188 51.6875 290.703125 51.6875 L 21.613281 51.6875 C 9.699219 51.6875 0 61.382812 0 73.300781 L 0 237.648438 C 0 249.574219 9.699219 259.265625 21.613281 259.265625 L 120.742188 259.265625 L 120.742188 275.09375 L 112.082031 275.09375 C 96.472656 275.09375 83.820312 287.738281 83.820312 303.34375 L 228.496094 303.34375 C 228.496094 287.738281 215.839844 275.09375 200.234375 275.09375 L 191.574219 275.09375 L 191.574219 259.265625 L 270.25 259.265625 " fill-opacity="1" fill-rule="nonzero"/><path fill="#ffffff" d="M 48.730469 91.15625 C 48.730469 86.59375 45.03125 82.890625 40.46875 82.890625 C 35.902344 82.890625 32.203125 86.59375 32.203125 91.15625 C 32.203125 95.71875 35.902344 99.417969 40.46875 99.417969 C 45.03125 99.417969 48.730469 95.71875 48.730469 91.15625 " fill-opacity="1" fill-rule="nonzero"/><path fill="#ffffff" d="M 78.746094 91.15625 C 78.746094 86.59375 75.042969 82.890625 70.480469 82.890625 C 65.917969 82.890625 62.21875 86.59375 62.21875 91.15625 C 62.21875 95.71875 65.917969 99.417969 70.480469 99.417969 C 75.042969 99.417969 78.746094 95.71875 78.746094 91.15625 " fill-opacity="1" fill-rule="nonzero"/><path fill="#ffffff" d="M 100.496094 99.417969 C 105.058594 99.417969 108.757812 95.71875 108.757812 91.15625 C 108.757812 86.59375 105.058594 82.890625 100.496094 82.890625 C 95.933594 82.890625 92.230469 86.59375 92.230469 91.15625 C 92.230469 95.71875 95.933594 99.417969 100.496094 99.417969 " fill-opacity="1" fill-rule="nonzero"/><path fill="#ffffff" d="M 255.183594 97.714844 L 264.292969 86.882812 C 259.757812 84.34375 254.535156 82.890625 248.964844 82.890625 C 236.769531 82.890625 226.167969 89.875 220.957031 100.058594 L 234.722656 103.75 C 237.960938 99.398438 243.144531 96.582031 248.964844 96.582031 C 251.15625 96.582031 253.246094 96.988281 255.183594 97.714844 " fill-opacity="1" fill-rule="nonzero"/><path fill="#ffffff" d="M 280.414062 114.339844 C 280.414062 106.859375 277.789062 99.972656 273.398438 94.574219 L 264.300781 105.398438 C 265.84375 108.023438 266.722656 111.074219 266.722656 114.339844 C 266.722656 115.066406 266.683594 115.78125 266.597656 116.488281 L 278.902344 123.980469 C 279.890625 120.9375 280.414062 117.710938 280.414062 114.339844 " fill-opacity="1" fill-rule="nonzero"/><path fill="#ffffff" d="M 239.78125 144.410156 L 241.980469 130.664062 C 235.886719 128.046875 231.535156 122.117188 231.226562 115.152344 L 217.644531 111.519531 C 217.566406 112.449219 217.519531 113.390625 217.519531 114.339844 C 217.519531 128.484375 226.90625 140.476562 239.78125 144.410156 " fill-opacity="1" fill-rule="nonzero"/><path fill="#ffffff" d="M 273.136719 134.433594 L 261.222656 127.1875 C 258.148438 130.113281 254.03125 131.953125 249.480469 132.085938 L 247.300781 145.75 C 247.851562 145.765625 248.402344 145.785156 248.964844 145.785156 C 258.671875 145.785156 267.363281 141.367188 273.136719 134.433594 " fill-opacity="1" fill-rule="nonzero"/><path fill="#ffffff" d="M 57.101562 227.953125 L 69.597656 227.953125 L 69.597656 147.257812 L 57.101562 147.257812 L 57.101562 227.953125 " fill-opacity="1" fill-rule="nonzero"/><path fill="#ffffff" d="M 82.011719 227.953125 L 94.496094 227.953125 L 94.496094 127.089844 L 82.011719 127.089844 L 82.011719 227.953125 " fill-opacity="1" fill-rule="nonzero"/><path fill="#ffffff" d="M 119.40625 177.390625 L 106.910156 177.390625 L 106.910156 227.953125 L 119.40625 227.953125 L 119.40625 177.390625 " fill-opacity="1" fill-rule="nonzero"/><path fill="#ffffff" d="M 32.203125 227.953125 L 44.699219 227.953125 L 44.699219 173.707031 L 32.203125 173.707031 L 32.203125 227.953125 " fill-opacity="1" fill-rule="nonzero"/><path fill="#ffffff" d="M 222.175781 162.277344 L 142.96875 162.277344 L 142.96875 177.496094 L 202.609375 177.496094 C 205.398438 173.195312 210.25 170.394531 215.597656 170.394531 C 219.71875 170.394531 221.691406 166.859375 222.175781 162.277344 " fill-opacity="1" fill-rule="nonzero"/><path fill="#ffffff" d="M 142.96875 190.109375 L 142.96875 195.769531 L 199.671875 195.769531 C 199.496094 193.898438 199.449219 192.007812 199.535156 190.109375 L 142.96875 190.109375 " fill-opacity="1" fill-rule="nonzero"/><path fill="#ffffff" d="M 142.96875 211.859375 L 204.3125 211.859375 C 203.371094 210.027344 202.570312 208.140625 201.902344 206.203125 L 142.96875 206.203125 L 142.96875 211.859375 " fill-opacity="1" fill-rule="nonzero"/><path fill="#ffffff" d="M 142.96875 227.953125 L 218.351562 227.953125 C 216.25 226.480469 214.253906 224.8125 212.394531 222.953125 C 212.179688 222.730469 211.964844 222.515625 211.753906 222.304688 L 142.96875 222.304688 L 142.96875 227.953125 " fill-opacity="1" fill-rule="nonzero"/><path fill="#ffffff" d="M 353.945312 302.257812 C 349.886719 306.320312 344.460938 308.179688 339.132812 307.851562 C 334.617188 307.570312 330.179688 305.707031 326.730469 302.257812 C 319.234375 294.761719 319.234375 282.542969 326.730469 275.046875 C 334.230469 267.539062 346.445312 267.539062 353.945312 275.046875 C 357.394531 278.484375 359.253906 282.914062 359.535156 287.425781 C 359.875 292.753906 358.015625 298.199219 353.945312 302.257812 Z M 362.753906 266.238281 C 354.070312 257.558594 341.5625 254.972656 330.597656 258.488281 L 272.050781 199.945312 C 274.890625 189.9375 272.371094 178.734375 264.496094 170.859375 C 257.113281 163.476562 246.816406 160.792969 237.320312 162.820312 C 236.46875 163.003906 236.148438 164.050781 236.769531 164.660156 L 256.636719 184.53125 C 257.8125 185.703125 257.8125 187.601562 256.636719 188.773438 L 240.46875 204.941406 C 239.296875 206.113281 237.398438 206.113281 236.226562 204.941406 L 216.355469 185.070312 C 215.746094 184.453125 214.699219 184.78125 214.515625 185.625 C 212.488281 195.117188 215.164062 205.425781 222.546875 212.800781 C 230.414062 220.675781 241.621094 223.195312 251.628906 220.355469 L 310.183594 278.902344 C 306.65625 289.859375 309.234375 302.375 317.925781 311.066406 C 330.289062 323.429688 350.390625 323.429688 362.753906 311.066406 C 375.113281 298.714844 375.113281 278.601562 362.753906 266.238281 " fill-opacity="1" fill-rule="nonzero"/></svg>